<mxfile host="app.diagrams.net" agent="Mozilla/5.0 (Macintosh; Intel Mac OS X 10_15_7) AppleWebKit/537.36 (KHTML, like Gecko) Chrome/134.0.0.0 Safari/537.36" version="26.1.1">
  <diagram name="Page-1" id="0oVFEZ0js3jTztvlo5mX">
    <mxGraphModel dx="692" dy="528" grid="1" gridSize="10" guides="1" tooltips="1" connect="1" arrows="1" fold="1" page="1" pageScale="1" pageWidth="850" pageHeight="1100" math="0" shadow="0">
      <root>
        <mxCell id="0" />
        <mxCell id="1" parent="0" />
        <mxCell id="YuxHfZ-qimljH39FzYP2-1" value="" style="verticalLabelPosition=bottom;verticalAlign=top;html=1;shadow=0;dashed=0;strokeWidth=1;shape=mxgraph.android.phone2;strokeColor=#c0c0c0;" vertex="1" parent="1">
          <mxGeometry x="80" y="240" width="150" height="290" as="geometry" />
        </mxCell>
        <mxCell id="YuxHfZ-qimljH39FzYP2-3" value="" style="endArrow=classic;startArrow=classic;html=1;rounded=0;exitX=1;exitY=0.497;exitDx=0;exitDy=0;exitPerimeter=0;entryX=0;entryY=0.5;entryDx=0;entryDy=0;" edge="1" parent="1" source="YuxHfZ-qimljH39FzYP2-1" target="YuxHfZ-qimljH39FzYP2-4">
          <mxGeometry width="50" height="50" relative="1" as="geometry">
            <mxPoint x="400" y="480" as="sourcePoint" />
            <mxPoint x="320" y="382" as="targetPoint" />
          </mxGeometry>
        </mxCell>
        <mxCell id="YuxHfZ-qimljH39FzYP2-4" value="" style="rounded=0;whiteSpace=wrap;html=1;labelBorderColor=default;" vertex="1" parent="1">
          <mxGeometry x="320" y="325" width="150" height="120" as="geometry" />
        </mxCell>
        <mxCell id="YuxHfZ-qimljH39FzYP2-5" value="Api Gateway" style="text;html=1;align=center;verticalAlign=middle;whiteSpace=wrap;rounded=0;" vertex="1" parent="1">
          <mxGeometry x="320" y="325" width="90" height="30" as="geometry" />
        </mxCell>
        <mxCell id="YuxHfZ-qimljH39FzYP2-6" value="" style="shape=image;verticalLabelPosition=bottom;labelBackgroundColor=default;verticalAlign=top;aspect=fixed;imageAspect=0;image=data:image/png,iVBORw0KGgoAAAANSUhEUgAAAyAAAAMgCAYAAADbcAZoAAAAAXNSR0IArs4c6QAAAERlWElmTU0AKgAAAAgAAYdpAAQAAAABAAAAGgAAAAAAA6ABAAMAAAABAAEAAKACAAQAAAABAAADIKADAAQAAAABAAADIAAAAADAlM0/AABAAElEQVR4AezdCZxlVXXo/73OvdVD3SpEJhFREMEh0RglSJia6gJRjIYkRhKfTxPzYnj+k5eB9/cv9IClXd0NMc8oJjEv5p/BIYngGDX6CHSVICLBNk4omChEIygyNV23qruq7llv34ampxrucIa91/mV8umqe8/Ze63vOtVdq87Z5zjHBwIIIIAAAggggAACCCCAAAIIIIAAAggggAACCCCAAAIIIIAAAggggAACCCCAAAIIIIAAAggggAACCCCAAAIIIIAAAggggAACCCCAAAIIIIAAAggggAACCCCAAAIIIIAAAggggAACCCCAAAIIIIAAAggggAACCCCAAAIIIIAAAggggAACCCCAAAIIIIAAAggggAACCCCAAAIIIIAAAggggAACCCCAAAIIIIAAAggggAACCCCAAAIIIIAAAggggAACCCCAAAIIIIAAAggggAACCCCAAAIIIIAAAggggAACCCCAAAIIIIAAAggggAACCCCAAAIIIIAAAggggAACCCCAAAIIIIAAAggggAACCCCAAAIIIIAAAggggAACCCCAAAIIIIAAAggggAACCCCAAAIIIIAAAggggAACCCCAAAIIIIAAAggggAACCCCAAAIIIIAAAggggAACCCCAAAIIIIAAAggggAACCCCAAAIIIIAAAggggAACCCCAAAIIIIAAAggggAACCCCAAAIIIIAAAggggAACCCCAAAIIIIAAAggggAACCCCAAAIIIIAAAggggAACCCCAAAIIIIAAAggggAACCCCAAAIIIIAAAggggAACCCCAAAIIIIAAAggggAACCCCAAAIIIIAAAggggAACCCCAAAIIIIAAAggggAACCCCAAAIIIIAAAggggAACCCCAAAIIIIAAAggggAACCCCAAAIIIIAAAggggAACCCCAAAIIIIAAAggggAACCCCAAAIIIIAAAggggAACCCCAAAIIIIAAAggggAACCCCAAAIIIIAAAggggAACCCCAAAIIIIAAAggggAACCCCAAAIIIIAAAggggAACCCCAAAIIIIAAAggggAACCCCAAAIIIIAAAggggAACCCCAAAIIIIAAAggggAACCCCAAAIIIIAAAggggAACCCCAAAIIIIAAAggggAACCCCAAAIIIIAAAggggAACCCCAAAIIIIAAAggggAACCCCAAAIIIIAAAggggAACCCCAAAIIIIAAAggggAACCCCAAAIIIIAAAggggAACCCCAAAIIIIAAAggggAACCCCAAAIIIIAAAggggAACCCCAAAIIIIAAAggggAACCCCAAAIIIIAAAggggAACCCCAAAIIIIAAAggggAACCCCAAAIIIIAAAggggAACCCCAAAIIIIAAAggggAACCCCAAAIIIIAAAggggAACCCCAAAIIIIAAAggggAACCCCAAAIIIIAAAggggAACCCCAAAIIIIAAAggggAACCCCAAAIIIIAAAggggAACCCCAAAIIIIAAAggggAACCCCAAAIIIIAAAggggAACCCCAAAIIIIAAAggggAACCCCAAAKWBcRycuSGAAIIIFCOwOljelh99fTQitnasKu3hqSVNLSWNtXVdrR0bsdN64Z/XE5kzIoAAgggULYADUjZFWB+BBBAICKBNZt2PyepzT/LqT5L1D3Lh/50J+5w53RInAw7dcP+68GOU1J3n993hzrZ4fdpf/4VP843UtGvT64f/kbH47AhAggggEA0AjQg0ZSKQBFAAIHiBF51jdbuv6P5XKnJaerS03xT8DPq3PP8PxoDxUXhmr7Ruc6pfDJtNT45OSb3Fzg3UyGAAAII5CRAA5ITLMMigAACsQmMjOmQG5h6eeLkIh/7K/x/jbBy0FtSJ59wMvCJyXUr7wgrNqJBAAEEEOhUgAakUym2QwABBAwK+KbjKBmY/iV/puEXRdxLY0nRn42528f694noB25YN/zNWOImTgQQQAAB56/U5QMBBBBAoFICZ13VPG7lfPpK/0P8K/2lVWf75GtRA6j7F//P2V8n9cG/v/6yPWtJok6H4BFAAAHrAjQg1itMfggggMBjAiObps6XxP2+//Jl/i9/i3//+7tsuat1rvGHfr3IwxQeAQQQQCBMAYv/AIUpTVQIIIBACQIXXq0rZ3ZM/1dJ9Pf9X/jPLSGEEqZs31Ur+V86N/jHvhGZKiEApkQAAQQQWEKABmQJHN5CAAEEYhVoNx67H2m+0Z/nuMzn8KRY8+gnblX1d82SrffNN/7k9jGZ7Wcs9kUAAQQQyE6ABiQ7S0ZCAAEEShdoNx67Hpm6xIlc5v+Cf3LpAQUQgKr7vqq89ehnDf7NtRdLK4CQCAEBBBCotAANSKXLT/IIIGBJYGTzzt/2t9Bd53M6zlJeWeXi14dsd2n9NRMbV92Z1ZiMgwACCCDQvQANSPdm7IEAAggEI9B+YOAD/9Z8rf8t/xX+NrpPDyawcAPZnTr3lsm5xtvdmPhP+UAAAQQQKFqABqRoceZDAAEEMhJYu6n5Mifp1SLyjIyGrMww/mzIra20/tobN676t8okTaIIIIBAIAI0IIEUgjAQQACBTgXO3qpPXNFq/qlfYP7qTvdhuwUE1E2r0zdNbBj+swXe5SUEEEAAgZwEaEBygmVYBBBAIA+BtZun/ot/avm7/FmPo/IYv4pj+rMhNyTOveaG9UM/qmL+5IwAAggULUADUrQ48yGAAAI9CFzwdm3MzU69zz+5/Jd62J1dlhHwZ0J+7KT2iol1g7cusylvI4AAAgj0KUAD0icguyOAAAJ5C4xs3XVy0pr7J39r3VPynqvS46vzzwpJfnXbhsGPVdqB5BFAAIGcBfxZZz4QQAABBEIVGB1vviJJ579C81FAhcStUEk/snZzc2MBszEFAgggUFkBzoBUtvQkjgACoQuMbp660sf45tDjtBmf/uW29cNvsJkbWSGAAALlCtCAlOvP7AgggMAhAmddpcMr5pof98/1GD3kTV4oTkD12iOfOfRqnp5eHDkzIYBANQRoQKpRZ7JEAIFIBM7fuuukVmvuOp7tEUzBPvOjucYv3D4mfn0IHwgggAACWQjQgGShyBgIIIBABgL+FrsvEdVr/HqPwzIYjiEyEvBPmd/2yHzjFdvHZDqjIRkGAQQQqLQADUily0/yCCAQikD7+R6i7v3+4YLcHCSUouwfh+oX6iuHLrjuTdLc/2U+RwABBBDoXoB/6Lo3Yw8EEEAgU4HRzc23+N8GfZDmI1PWbAcTOXN+tjnRXp+T7cCMhgACCFRPgDMg1as5GSOAQEACa8d3/oVf78HdlgKqyVKh+Kemb5+tN9be/GbZudR2vIcAAgggsLgADcjiNryDAAII5CowOr6zvd7jVblOwuDZC/jLsdL5ofMmx2RX9oMzIgIIIGBfgEuw7NeYDBFAIECB0fGp99F8BFiYTkLyl2NJvfmJV12jtU42ZxsEEEAAgQMFaEAO9OArBBBAIHcB/3Tzd/v1Hq/NfSImyE3AP6Plgvu/PfUhp8qVBLkpMzACCFgVoAGxWlnyQgCBIAXaC86d6O8EGRxBdSXg1+68cu3mZvtp9XwggAACCHQhwG9uusBiUwQQQKAfgZHNO387cfIn/YzBvgEKqF68bcPwtQFGRkgIIIBAkAI0IEGWhaAQQMCawMiW6V8WTa/xf+ny96614qqbVq2/cGLjqjutpUY+CCCAQB4CXIKVhypjIoAAAvsJnLd551pJ07+n+dgPxdKn4gadzH369DHlCfaW6kouCCCQmwANSG60DIwAAgg4N7J56qfVySf9ouU6HnYF/HqQZwzWmx9hUbrdGpMZAghkJ0ADkp0lIyGAAAIHCIxcNX28OL3Ov9g44A2+MCngm8zz125pbjaZHEkhgAACGQpwLXKGmAyFAAII7BUYGdN6MtC81X/9wr2v8WdFBDT5pW0bBj9WkWxJEwEEEOhagDMgXZOxAwIIILC8gH9Q3V/4rWg+lqcyuEX6gbWbdj3LYGKkhAACCGQiQAOSCSODIIAAAvsE/IMG/7u/HOf1+17hs0oJPLYo/cKrdWWl8iZZBBBAoEMBGpAOodgMAQQQ6ETg3K3N0/yDBt/TybZsY1egvSh99yNT77SbIZkhgAACvQuwBqR3O/ZEAAEEDhDw6z6GknrzDv+kj6cc8AZfVFcgdS/ZtnGofSMCPhBAAAEEHhPgDAiHAgIIIJCRgNSnPkDzkRGmkWE00Q/4xvQoI+mQBgIIIJCJAA1IJowMggACVRcY3dJ8o7/s5qKqO5D/gQLi5GgZaH7gwFf5CgEEEKi2AJdgVbv+ZI8AAhkInLdl50+kqWz3C89XZTAcQ5gUkDdsW9/4S5OpkRQCCCDQpQBnQLoEY3MEEEDgAIExTVKVD9J8HKDCF4cI6DvP37rrpENe5gUEEECgggI0IBUsOikjgEB2AmsHmv/Tn0r+6exGZCSjAo20Nfd+o7mRFgIIINCVAJdgdcXFxggggMA+gbOvnHnaQKt1h/+LdPW+V/kMgSUE1L1u24YhGpEliHgLAQTsC3AGxH6NyRABBHISGJif/yDNR064RodVp+84/0p9gtH0SAsBBBDoSIAGpCMmNkIAAQQOFBjdPPXr/q5XZx/4Kl8hsLSAP2aOas1PbVl6K95FAAEEbAtwCZbt+pIdAgjkIND+Dbb/IfJu/8Pk4TkMz5DGBdQ5dYmcNnF5Y7vxVEkPAQQQWFCAMyALsvAiAgggsLhAa775xzQfi/vwztIC/jd/Ii3966W34l0EEEDArgANiN3akhkCCOQgMDI+/bP+lruvz2FohqySgLjnjWze+dtVSplcEUAAgb0CNCB7JfgTAQQQ6EDA/+qa31x34MQmywv4MyFbz9my8+jlt2QLBBBAwJYADYitepINAgjkKLB289SbxMmzc5wi7qFVH/HLGz7uVzhcmar79VRr56Qy8Jw50WO2rR8Sv/bhpf4uUP8Yd5LZRe+PpeGB1L0tuxEZCQEEEIhDgEXocdSJKBFAoGSBkTE9SupTd/m1H0MlhxLc9L6puFmd/Pnk+qEPdBLceZt3rvUNynu95TM62d76Nu0mbXLdyjus50l+CCCAwF4BzoDsleBPBBBAYAkBGZjaTPOxD6h9JyffeHx0vuV+amL98NmdNh/tEW5YPzyh80M/zdmQRz2TdO4P98nyGQIIIGBfgDMg9mtMhggg0KeAXyz83MTJ1/scxszuexqHdOD/m9i46s5+k1o7PnWpX9T/v/odJ/b9VWojE+tWfy72PIgfAQQQ6ESAMyCdKLENAghUWiBR96eVBtibvLr7fPPxK/6Mx0VZNB/tYSc2DL0jTd2F/nTKrr3TVPFP0dY7qpg3OSOAQDUFaECqWXeyRgCBDgX8wvOX+Kc2rOlwc8Ob6cdn5hvP8c3HNVknOblx6LMuSUb8RV1+EXtlP144Oj716spmT+IIIFApARqQSpWbZBFAoGsBdeNd72NsB3924upt64d/8ZYxeTCv1CbWDd4qiTvDLy3ZkdccoY+r4raEHiPxIYAAAlkI0IBkocgYCCBgUmB0c/NCvz7hZ0wm10FS7YXm/n9v8pdJ/V4Hm/e9yQ3rhr/ZSpIXV/VyLL8o80R/FuT/7RuSARBAAIHABWhAAi8Q4SGAQHkCqvq28mYvf2bfgLxu24ahPyoyks9d3rhNE3lVkXMGNZfoZWe8Q1cHFRPBIIAAAhkL0IBkDMpwCCBgQ2Bk09RLq332Q/5bN7fWzbLqk+san3JO3pDlmPGMJUeummn+TjzxEikCCCDQvQANSPdm7IEAAhUQSMS9tQJpLpKi/u7E+sZfLfJmIS9vW9/4S/9ww3cXMllwk+ibOAsSXFEICAEEMhSgAckQk6EQQMCGwHmbp17sxL3IRjZdZqGy0S84D+IHf98E/a5fhFK5Z2OIk6NXz0z9ZpeVY3MEEEAgGgEakGhKRaAIIFCUgF/7saGouUKax6/5+PS2DY2g7vo1lwz9ol+U/v2QnIqIxZ/9ufzU/60DRczFHAgggEDRAjQgRYszHwIIBC0wOj59ZhWf++Gbrjtn643gnkPx+cvlIX853MuDPmhyCM7fEevJh90//fochmZIBBBAoHQBGpDSS0AACCAQlICk1Tv7oW7a6cBFN79ZdgZVi8eCuWH90Nf82Zl1IcaWZ0yiuu5V12gtzzkYGwEEEChDgAakDHXmRACBIAXWvK35Ah/YhUEGl2NQaZL82sTGVXfmOEXfQ0+sH9rqn0nyL30PFNMA4k748beb/zWmkIkVAQQQ6ESABqQTJbZBAIFKCNRqelklEt0/SXXvn1w3+OH9Xwr187RWf02oseUVV+J0fV5jMy4CCCBQlgANSFnyzIsAAkEJnHVV8zhR98tBBZVzMP6ypnt3DzR+O+dpMht+8vJV/+7XqhTyVPbMgu53IJFT1o5Pv7LfYdgfAQQQCEmABiSkahALAgiUJrByXi/1t96t1N+JqdR+JdR1H4sdCBMbhq/2t+a9ebH3Tb4urT8wmRdJIYBAZQUq9Y9tZatM4gggsKTAyJiu8j/U/taSG1l7U90ffW7d6ptiTCuRgd/wZ2/mYoy9l5j9c0HOWvu2qef3si/7IIAAAiEK0ICEWBViQgCBYgUGmpf4H/KGi520xNnUfX3H0Y1o7yp1w7pV3xanf1iiYOFTS81Vb31S4cpMiAACRQnQgBQlzTwIIBCsgH/mwu8HG1wOgWnqXrv9Eon6DEI6NzTuH1B4Vw48oQ75qyNXTR8fanDEhQACCHQjQAPSjRbbIoCAOYGRLc2X+wbkRHOJLZqQ/uXEFUNfXfTtSN6YHJNdfkH6b0QSbiZhylz6PzIZiEEQQACBkgVoQEouANMjgEC5ApKmv1luBMXN7te57PRnDi4vbsZ8Z5rcODzpVK/Nd5aARhd94xnv0NUBRUQoCCCAQE8CNCA9sbETAghYEBgZmzpWRC6ykEsnOYjK2/yZg/s72TaWbeYkqcxtedvrlFbOTFXqrE8sxyFxIoBAdwI0IN15sTUCCBgSkAH3ekPpLJfK99L5xjuX2yi2929a37jXPyH9ytji7jVe/4/2pb3uy34IIIBAKAI0IKFUgjgQQKB4AXVvKH7ScmZUld/1Zz/my5k931mTeuNKfynWg/nOEsroctLoePMVoURDHAgggEAvAjQgvaixDwIIRC8wumnnqIh7evSJdJKA6o0TGxqf6GTTGLe5/jLZ4ZxsjTH2XmL2a3n+ey/7sQ8CCCAQigANSCiVIA4EEChUQBP5b4VOWOJk82li/jbD2zYM/ZF/OOF/lshc2NS+cX7Z2VfOPK2wCZkIAQQQyFiABiRjUIZDAIHwBU4d00F/691Xhh9pBhGq+9SNVzT+NYORgh/C13Rj8EFmFOCK+fnKXD6YERnDIIBAQAI0IAEVg1AQQKAYgSfUpl/jZ1pZzGzlzpI6eWu5ERQ3+7b1Q3/jH054e3EzljmT/FaZszM3Aggg0I8ADUg/euyLAAJRCmiilbj8yl+S9OnJDY0vRVmkHoP2Z0E297hrXLuJO8Y/RPMX4gqaaBFAAIFHBWhAOBIQQKBSAms27TrF/5B6ehWS9g3IhirkuX+O29Y3/sHnfff+r1n9XFK9xGpu5IUAArYFaEBs15fsEEDgIIGazFfiyef+UqR/mlw/9JWD0rf/pYjvPypyRyxxL2Exuv1DmgwRsChAA2KxquSEAAJLCbxuqTetvKdO3mIll27zmFjf+Avfhdzb7X6xbe/P5MmK1jxrQWIrHPEigICjAeEgQACBygis3TJzrr+F6bHWE/ZnP66r2tqPQ2qq7o8Oec3kC1KJM3omS0dSCFRYgAakwsUndQQqJ5DOX1yJnEWurkSeSyS5a7Dxnoo8Hf1JLEZf4kDgLQQQCFKABiTIshAUAgjkIiDu1bmMG9Cg/uzH9/0lSJ8OKKRSQrnlUplx4t5dyuQFT5qkaSUuKyyYlekQQCBHARqQHHEZGgEEwhE4b/POteLkieFElE8kKu5d+Ywc36izyVDbYnd8kXcXsYq8fGRMh7rbi60RQACB8gRoQMqzZ2YEEChQwJ8ZqMLlV7vn6o2/KJA16Kk+f7k85BejfzDoIDMIzi9GH0hq0+bP7mVAxRAIIBCIAA1IIIUgDAQQyFFgzD96UNyv5DhDEEP7JusDN79ZdgYRTCBBtNKBSixG1yR9TSDkhIEAAggsK0ADsiwRGyCAQOwC5w1MnVuFy69cWo01D90cjzduXPktv/1EN/vEuK0/vs9dMz791BhjJ2YEEKieAA1I9WpOxghUTiB1ySutJ61Ob564Yuir1vPsJb+0IncFSyT9L734sA8CCCBQtAANSNHizIcAAsULqFagAXF/UjxsHDNOXj74ifbdweKItvco/TPgX9v73uyJAAIIFCdAA1KcNTMhgEAJAudumT7D+sMHVfVhNzf04RJ445hS/I/mzr0zjmB7j9If5z+59m1Tz+99BPZEAAEEihGgASnGmVkQQKAkgVqa/lJJUxc3rSQfnByT+eImjG+m2YHGe5266fgi7zLimmMxepdkbI4AAsUL0IAUb86MCCBQpIBU4Pa7Iu8vkjTGufbcHUz072KMvZuY/S15eShhN2BsiwACpQjQgJTCzqQIIFCEwGOXozytiLnKm0O/PbFu8Nby5o9n5laSVOEZKU9au2Xm3HiqQqQIIFBFARqQKladnBGoikAiF1lPVTX5W+s5ZpXf5y5v3OYvw/p6VuMFO47Om3/mTbD2BIYAAh0J0IB0xMRGCCAQpYDoy6KMu8Og/cpqnRf31x1uzmZewN+u+M+tQ/gl97/i/MM3redJfgggEK8Af0HFWzsiRwCBJQROH9PD/NsvWmKT6N/y1/tP3rS+cW/0iRSYwCPzQ3/jp9td4JTFTyVyxEitOVr8xMyIAAIIdCZAA9KZE1shgEBkAoMDzZf7H9D9/+1+pOq4/KrL8m4fk2n/TBD7i9FFL+6Shs0RQACBwgRoQAqjZiIEEChUQJ3ty6/U7do537i2UFMjk6mzvxjdd96v5DIsIwcsaSBgUIAGxGBRSQkBBPypD9GXWnbwP2B+rP3bfMs55pXb5IbBL5pfjO4vwxqtNc/Py5BxEUAAgX4EaED60WNfBBAIUmB0fNqv/ZAjgwwuo6BU9OMZDVXJYbQCi/d9jr9ayeKSNAIIBC9AAxJ8iQgQAQS6FfB3OjJ99qPtMbBi6NPdurD9PoHdc/rBfV9Z/Ux/0Wpm5IUAAnEL0IDEXT+iRwCBBQTEpS9Z4GUzL/nb7376ujdJ00xCJSTyhbHh+7zj/ylh6sKmFJHD125u/lxhEzIRAggg0KEADUiHUGyGAAJxCJw6poMqckYc0fYWpabysd72ZK/9BfzdsN6//9c2P+duWDbrSlYIxC1AAxJ3/YgeAQQOEhheMX2BX6Dt/2/4ozX4CcPZFZba7sHGR1V1qrAJS5hInF5UwrRMiQACCCwpQAOyJA9vIoBAbAJJavvyK/8s75smx+T+2OoSYry3XCoz/nZpHw0xtuxikiect3nn2uzGYyQEEECgfwEakP4NGQEBBAIS8JdfvTygcDIPRR2XX2WJqqn9y7BStf09keXxwFgIIFCMAA1IMc7MggACBQiMbtr1DH/t1fEFTFXaFC1NPlza5AYnntw4dL1/Jsh9BlN7PCX/TBzTTfnjifIJAghEI0ADEk2pCBQBBJYVkNaLl90m4g38XZu+cuOGwe9HnEKQofvnZfxtkIFlFpQ88/ytu07KbDgGQgABBPoUoAHpE5DdEUAgHAH//I+RcKLJPhJxwsMHs2d1qnJNDsMGNWQrnWcxelAVIRgEqi1AA1Lt+pM9AtYEzrWW0P75+Gv5TT+3Yv9ci/x8ckPjS36+7xU5Zwlz8TyQEtCZEgEEFhagAVnYhVcRQCAygTWbdp0i4o6NLOwuwtUdkxsGv9jFDmzancC13W0e19Z+bdRI+xk5cUVNtAggYFWABsRqZckLgYoJJK61xnTK6q4znV/JyaX2F/fXhlfMvKxkZqZHAAEE9gjQgHAgIICACYFE1PjlVwmXX+V4pLbPLvkno/8wxylKH1rSlLthlV4FAkAAgbYADQjHAQIIWBGwfQaEp5/nfpz6y5T+IfdJypxAlDMgZfozNwIIPC5AA/I4BZ8ggECsAiNXTR/vxJ0Qa/zLxe1/M387Tz9fTimL9xPj60Dk6NHx6RdlIcUYCCCAQD8CNCD96LEvAgiEITCXmr78yiNz+VUBR9q2DYNf8NPcU8BUpU2hoi8pbXImRgABBB4ToAHhUEAAgegFxOmZ0SexVALCAvSleDJ9T+WjmY4X2mCaXhBaSMSDAALVE6ABqV7NyRgBcwL+AX1nmEtqv4R0rvG5/b7k0xwFNEk+nOPwpQ8tImePjOlQ6YEQAAIIVFqABqTS5Sd5BOIXuPBqXemzeH78mSycgV//cZ1f/7Fr4Xd5NWuBidlVNzmnO7IeN6jxVkyPBBUPwSCAQOUEaEAqV3ISRsCWwOzOqTP9AnSzf5f5OzP9s62KBZ7NmKTOyWcCj7Kv8BLV8/sagJ0RQACBPgXM/qPdpwu7I4BAJAItl5he/+EvCfK/keejSIFU3aeKnK/4ufTFxc/JjAgggMA+ARqQfRZ8hgACEQqI2l2A7i+/2nXUyau/FGFZog55Zr7xSfXXYUWdxJLBy0+cs2Xn0UtuwpsIIIBAjgI0IDniMjQCCBQgIHpOAbOUM4XorddeLK1yJq/urLeOySP+zmqftyxQS4WHElouMLkhELgADUjgBSI8BBBYXGDNpl2n+DtgDS++RfTv3Bh9BrEmoPKPsYbeSdz+H//zOtmObRBAAIE8BGhA8lBlTAQQKEQgSeZOLWSikibRVNoPxuOjBIE0GTC+DsTxQMISjiumRACBRwVoQDgSEEAgWgF/9uOF0Qa/XODqUtdqmL4MaDmCMt+fXLfyDr8G564yY8h1bnHHrHnb1PNynYPBEUAAgUUEaEAWgeFlBBCIQEDdCyKIsqcQVdzX/PM/pnramZ2yERD38WwGCnOUpOZGw4yMqBBAwLoADYj1CpMfAoYF/EJhu2dAnNxsuHRRpJY4/WQUgfYYpP/+oQHp0Y7dEECgPwEakP782BsBBEoSGNk6c6ITOaKk6QuYVln/UYDyUlMcccrQjf793UttE/l7a536c218IIAAAgUL0IAUDM50CCCQjYB//ofhsx/OzdVqrP/I5lDpeZT2LZD9OpCJngcIfMf2HeRGtjSfH3iYhIcAAgYFaEAMFpWUEKiCgKQts+s/fP3u+fxlq79XhTqGnqM/P3B96DH2Gd+5fe7P7ggggEDXAvWu92AHBBBAIACBNKl9NdHWWwMIJfMQUpV/y3xQBuxJIG256/xibbMfiWq7AXmX2QRJDAEEghTg2s8gy0JQCCCAAAKhCIyOT/3I+dvWhhJPtnHoA9vWDx+V7ZiMhgACCCwtwCVYS/vwLgIIIIBAxQXUuX+2SyBHjmze+Vy7+ZEZAgiEKEADEmJViAkBBBBAIBgBYR1IMLUgEAQQsCFAA2KjjmSBAAIIIJCTwJzop3MaOohhE3UsRA+iEgSBQHUEaECqU2syRQABBBDoQeCmdcM/9s/L+FYPu8axi/BE9DgKRZQI2BGgAbFTSzJBAAEEEMhJQJ3YXgeyZfezc6JjWAQQQOAQARqQQ0h4AQEEEEAAgQMFNLHcgDiXtObPOTBjvkIAAQTyE6AByc+WkRFAAAEErAjMDk46damVdA7JI9E1h7zGCwgggEBOAjQgOcEyLAIIIICAHYHJMZnyT0X/mp2MDsxEnf7sga/wFQIIIJCfAA1IfraMjAACCCBgSUDdjZbS2T8XcXLyeVv0yP1f43MEEEAgLwEakLxkGRcBBBBAwJhAYrYBaReq5abPMFYw0kEAgUAFaEACLQxhIYAAAgiEJbBrfvVEWBFlG02iKZdhZUvKaAggsIgADcgiMLyMAAIIIIDA/gK3jMmDqnrn/q9Z+lxVOANiqaDkgkDAAjQgAReH0BBAAAEEghOwexmWuDP8AxclOHECQgABcwI0IOZKSkIIIIAAAnkJqIjZBsR3HqvP29J8Xl52jIsAAgjsFaAB2SvBnwgggAACCCwj0HJywzKbRP126oR1IFFXkOARiEOABiSOOhElAggggEAAAjetb9zrH0j4HwGEkksI4pR1ILnIMigCCOwvQAOyvwafI4AAAgggsLyA2cuweCDh8sVnCwQQ6F+ABqR/Q0ZAAAEEEKiSgMpNVtP1DyR89tlb9YlW8yMvBBAIQ4AGJIw6EAUCCCCAQCQC86pfjCTUnsIcSJsv6mlHdkIAAQQ6FKAB6RCKzRBAAAEEEGgL3Lix8Q11bsaqhqicZjU38kIAgTAEaEDCqANRIIAAAgjEIiDi+w/9l1jC7TpOSU/teh92QAABBLoQoAHpAotNEUAAAQQQaAv4tRKGL8OSF1JlBBBAIE8BGpA8dRkbAQQQQMCmgCa32kxsT1ZPO/9KfYLh/EgNAQRKFqABKbkATI8AAgggEJ/AXNL6fHxRdx5xOtc8vfOt2RIBBBDoToAGpDsvtkYAAQQQQMDdtG74x6ru+2YpxHEZltnikhgC5QvQgJRfAyJAAAEEEIhQwK9Ft3sZligL0SM8JgkZgVgEaEBiqRRxIoAAAgiEJaBitwFxnAEJ62AjGgRsCdCA2Kon2SCAAAIIFCSQuprlO2GdxEL0gg4kpkGgggI0IBUsOikjgAACCGQgML/qS05dmsFIQQ6Rzk1xGVaQlSEoBOIXoAGJv4ZkgAACCCBQgsDkmOzy0361hKkLmTJN5AWFTMQkCCBQOQEakMqVnIQRQAABBLIS8I9E/3JWY4U2jv8B4WdCi4l4EEDAhgANiI06kgUCCCCAQCkCarYBcU65FW8pxxSTImBfgAbEfo3JEAEEEEAgL4Gktj2vocsfV5556pgOlh8HESCAgDUBGhBrFSUfBBBAAIHCBHR29XbLC9EPWzHzvMIwmQgBBCojQANSmVKTKAIIIIBA1gJ+Ifq8H/P2rMcNZTxRpQEJpRjEgYAhARoQQ8UkFQQQQACBEgTEmb0Myy+y/6kSRJkSAQSMC9CAGC8w6SGAAAII5C1geSF6SgOS9+HD+AhUUIAGpIJFJ2UEEEAAgQwF1O5CdFHHJVgZHioMhQACjwrQgHAkIIAAAggg0IfAzODqfzW7EF3kiNHx6af0wcOuCCCAwCECNCCHkPACAggggAACnQvccqnMONE7Ot8jsi1FuQwrspIRLgKhC9CAhF4h4kMAAQQQCF9Axe5CdO6EFf7xR4QIRCZAAxJZwQgXAQQQQCBIAbNPRBdhHUiQRxxBIRCxAA1IxMUjdAQQQACBQARUvxZIJHmEwSVYeagyJgIVFqABqXDxSR0BBBBAIBuB2frQv2YzUoCjqHuuU5UAIyMkBBCIVIAGJNLCETYCCCCAQDgCn79cHlJ1PwwnogwjEZes2dR8boYjMhQCCFRcgAak4gcA6SOAAAIIZCZg9jKseuLPgvCBAAIIZCRAA5IRJMMggAACCFRbwC/W/rpdAf0Ju7mRGQIIFC1AA1K0OPMhgAACCJgUSNVuA6LOPcdk0UgKAQRKEaABKYWdSRFAAAEErAkkImbPgPizOzQg1g5Y8kGgRAEakBLxmRoBBBBAwI7AjqMGv+7UpXYy2j8TeZYbU35m2J+EzxFAoGcB/jLpmY4dEUAAAQQQ2Cew/RKZU9Fv73vF1Ge181bsPtlURiSDAAKlCdCAlEbPxAgggAAC9gTE7J2w0rTFZVj2DlgyQqAUARqQUtiZFAEEEEDAooCo3XUg/uzOsy3WjJwQQKB4ARqQ4s2ZEQEEEEDAqIBfJWH2DIgoC9GNHrakhUDhAjQghZMzIQIIIICAVQGV2jet5ibcitdqackLgcIFaEAKJ2dCBBBAAAGrApO7V37X59aymJ86HkZosa7khEAZAjQgZagzJwIIIICATYExSVXdHRaTE5Ghs65qHmcxN3JCAIFiBWhAivVmNgQQQAAB8wJqsgFpl23FvHInLPPHLwkikL8ADUj+xsyAAAIIIFAhAf/UcLMNiCgNSIUOZVJFIDcBGpDcaBkYAQQQQKCKAqnKt6zmrZI802pu5IUAAsUJ0IAUZ81MCCCAAAKVEJA7zaapeorZ3EgMAQQKE6ABKYyaiRBAAAEEqiCwYuWg2TMg4vQZVaghOSKAQL4CNCD5+jI6AggggEDFBK57kzSduh9YTFudPN1iXuSEAALFCtCAFOvNbAgggAACFRBQowvR/QL7+ppNMzQhFTiGSRGBPAXqeQ7O2NUVOGNMjxgcmHp+S90x/um5R4pLjnCScrxV95AgcwQWFfDPzXhwYsPw1YtuEOEb0l6ILnpehKEvG3ItaZ3kN7pr2Q3ZAAEEEFhEgB8IF4Hh5e4Ezt+666S01brAOT3T//ezTpqn+FP1LvHdx6Mf6v94/Iu9L/InAggg4ES0/fRwUw1IKukdidm/86S9DuQGDl0EEECgVwEakF7l2G+PwMiW5iVJqr+RpvMv2vdvLY0GhwcCCHQuoOov7LH2kfo7YRm9yNk/C4Q7YVk7XskHgYIFaEAKBrcy3cj41K/5f1s3O9Wn7Gs8rGRHHggggEB/AqkkdyYu7W+QQPdW0fYlWHwggAACPQvQgPRMV80d14xPP7Xm0r/yv688v5oCZI0AAlkL+Euw2tdomvq4ccPg90c3T5nK6fFkdM8lWI9/yScIIIBAtwJGTxB3y8D2nQiMjk+9tu5a36D56ESLbRBAoFMBk5dg+eTV6R2dGkS1nTiehh5VwQgWgfAEaEDCq0mQEa3dvPPP/KVW7/OrRQ8LMkCCQgABBIITkO8EF1IGAfkFO6tHxqaOzWAohkAAgYoK0IBUtPDdpL12fOeHxckbu9mHbRFAAIHKC6gz2YC06yorEp6IXvkDHAAEehdgDUjvdub3HBnTugw0P+5/2/Vz5pMlQQQQQCBjAb+25d+t3n5c0/Rkz3VzxmQMhwACFRHgDEhFCt1Lmkm9+T6aj17k2AcBBBBoCyS+AbH5IY47YdmsLFkhUIwADUgxztHNMrp55//waz5eHV3gBIwAAtEJWLwLVrsIIjWzl2D57E6I7kAjYAQQCEaABiSYUoQTyMjWmRP9Py5vDyciIkEAAcsCVu+CdcTJK7/j7y9s7hbDe45F0RMtH5PkhgAC+QrQgOTrG+Xo0mq91we+MsrgCRoBBKITsHoG5NqLpeWL8R/RFaSDgP3luU/tYDM2QQABBBYUoAFZkKW6L/pnfbya53xUt/5kjkAZAlbPgOyxVPfdMkzzntPX7Gl5z8H4CCBgV4AGxG5te8rMXyvwjp52ZCcEEEAAgUMF9twJ69CXY3/F/6KqPnLV9PGx50H8CCBQjgANSDnuQc66dvPU6/w/KjxcKsjqEBQCCEQpoDYfRrinFnNyYpQ1IWgEEChdgAak9BIEFIDqGwKKhlAQQKAiAlbXgLTLp0li8hKsdm6Ja7EOpA3BBwIIdC1AA9I1mc0d1myaebqInG0zO7JCAIGQBSyvAUlS972Q7fuJTcWd2M/+7IsAAtUVoAGpbu0PyLwm6WsPeIEvEEAAgYIELJ8B2TXfursgxhKmUZ4FUoI6UyJgQYAGxEIVs8hB0guyGIYxEEAAgW4FLJ8B+cLY8H2qbr5bkyi2Vx5GGEWdCBKBAAVoQAIsStEhveoarTmV04uel/kQQACBKgiI07ss5unz4gyIxcKSEwIFCNCAFIAc+hQ/umP6p9q3VAw9TuJDAAEEYhRQJyYfRugcZ0BiPB6JGYEQBGhAQqhCyTHUaukpJYfA9AgggIBdATG6EF3c4MiYHmW3cGSGAAJ5CdCA5CUb0biiclxE4RIqAggYE7C8CP3RUsndxkr2eDppMs2teB/X4BMEEOhUgAakUynD2/mnn3McGK4vqSEQuoDlRehte79W4vuh16DX+JK6Yx1Ir3jsh0CFBfjBs8LF35u6OJfu/Zw/EUAAgaIFrJ8BSVO9u2jTouaTNOUMelHYzIOAIQEaEEPF7DWVNJGZXvdlPwQQQKBfAetnQBI3YPYMiK/9U/qtP/sjgED1BGhAqlfzQzIW1Z2HvMgLCCCAAAKZCBz5rJV3+0td/f/tfYiwhtBeVckIgfwFaEDyNw5+Bn8Q/Dj4IAkQAQTMCli/BOvai6XlL3W912IB/UMWuQTLYmHJCYGcBWhAcgaOYfi5tPbvMcRJjAggYFPA+iVY7aqp6vdsVo9LsIzWlbQQyFWABiRX3jgGv3Hj6rviiJQoEUDAooD1MyDtmvkzIDbXgYhyBsTiNyU5IZCzAA1IzsDxDK83xRMrkSKAgCWBKpwBcSL3WKrZ3lzEyRP9wwjre7/mTwQQQKATARqQTpSqsI26z1UhTXJEAAEEyhDwayVMNiB7LFfuPrEMU+ZEAIF4BWhA4q1dppFrUvtspgMyGAIIINChQBUuwfLXYP1nhxzRbebXtzw5uqAJGAEEShWgASmVP5zJJ9YN3ux/Q8dakHBKQiQIVEagCpdgJU5N3gWrfZDW0tbxlTlYSRQBBDIRoAHJhNHIIOLeayQT0kAAAQTCEpCBH4QVUHbRpMKteLPTZCQEqiFAA1KNOneUpc413uOflMVT0TvSYiMEEECgc4GHZ1eavQTL3+GLp6F3fiiwJQIIeAEaEA6DxwUmx+Rh/w/Jnz3+Ap8ggAACBQhUYQ3I9jGZ9mslHi6As/Ap/L8brAEpXJ0JEYhbgAYk7vplHn061xj3/0jen/nADIgAAghUXMD/oG5yHYj/N4M1IBU/tkkfgW4FaEC6FTO+ffssiL8M63eMp0l6CCCAQOEC6sTkOhARd0zhmEyIAAJRC9CARF2+fIKf3DD8If8brY/kMzqjIoAAAgcKVOEuWO2MrZ4BceqOPbCifIUAAggsLUADsrRPZd+dnh/6Df+Pyn9UFoDEEUCgMIEqrAFpY6rVZ4GIHFbYwcJECCBgQoAGxEQZs0/i1jF5JKnVR/0/mQ9kPzojIoAAAvsEqnMGxO6zQNaMTz91X0X5DAEEEFhagAZkaZ9Kv3v95au+mzo53+qdWypdXJJHICCBqpwBcVozeyveWk1ZBxLQ9xShIBC6AA1I6BUqOb7J9UNfcamMqNOHSg6F6RFAwKhAVc6AaOLuM1pCJykL0a3WlrwQyEOABiQPVWNjTlwx9FWVFWf6u2NtN5Ya6SCAQAACVTkD0molZhsQ/0uqowM4lAgBAQQiEaABiaRQZYc5uW7lHRPrh37GL0y/nKell10N5kfAlkBVzoCsGFhptgHxR+STbB2VZIMAAnkK0IDkqWtw7G0bhq7UevJMvy7kEwbTIyUEEChBoCpnQK6/THaUwFvIlKJcglUINJMgYESABsRIIYtMY/LNg/85sWH4F/yCynNV3e1Fzs1cCCBgT6AqZ0D2VE6dyYcR+tw4A2LvW5OMEMhNgAYkN1r7A2/bsPrGiQ1Dz3WanOUvy/pj/9/d9rMmQwQQyFqgKmdA9riJ+1HWfiGM559xwl2wQigEMSAQiUA9kjgJM2CBbRsGv+DDa/936cjmqZ9O1L3UL0g8yYkc558jMhRw6ISGAAIBCIjKPQGEUUgI/qzxfeIfiW7tw6fEInRrRSUfBHIUoAHJEbeKQ++5ba9zX6li7uSMAAIILCfgf1D/8XLbRPm+cglWlHUjaARKEuASrJLgmRYBBBBAoIICYvZZIJwBqeDhTMoI9CpAA9KrHPshgAACCCDQpYBfK2dyDYgTt2JkTA/vkoPNEUCgogJcglXRwpM2AggggEDxAlbXgLQlk9ruI/0fDxevmt+MazfvfFCcPDG/GRg5JIH2zXTE6b3+z3tFE782Lb1TRK69Yf2QzV8clIhPA1IiPlMjgAACCFRLIBHxDyP0P94Y/GjVW0f4tL5jKTX/fJMf+rM7NCCWirpELn6N1onOyYn+T/9H+/vUtyPOvXt089RtqXMf8V32hyYvX313+20++hPgEqz+/NgbAQQQQACBjgVaibu/440j21DmtX0GxNSHOuE336Yq2nMyp/kfmK9M0tZdazdPXe//e0nPI7HjHgEaEA4EBBBAAAEEChKotRJ/BsTmhySufQbE2gcNiLWK9pmPPztynv/vs6PjO29es2n3c/ocrrK704BUtvQkjgACCCBQtMCO+VU2b8PrIf3zn8xdquR/0Ly36GOE+SIREDmznsx9c+1484pIIg4qTBqQoMpBMAgggAAClgW2j8m01fzEJebOgKTi14DwgcASAiL61rXjU585/0p9whKb8dZBAjQgB4HwJQIIIIAAAnkK+Dthmfyh1i/XNbcGJEnNPrclz0O8cmOLuJe2WlNfGh2fOaFyyfeYMA1Ij3DshgACCCCAQI8CD/S4X9i7qb01IP7OR1yCFfZRF0x0/nbNJzs3/+XRTbueEUxQAQdCAxJwcQgNAQQQQMCigD5kMisx2IAod8GyeKzmlpPIEZrMfeqCt2sjtzmMDEwDYqSQpIEAAgggEI2AyTMg/hIsc2tAtGbzcrlovlMiDNSfCXn23OzU30UYeqEh04AUys1kCCCAAAJVF/BPVjZ5BsTX1dwakJvWN9pPxW4/kY4PBDoW8E3Iz/vb9G7qeIcKbkgDUsGikzICCCCAQHkCfhH6g+XNnt/MPi9zZ0Ae1VKzD4/M72hgZCeyYc3bmi9AYmEBGpCFXXgVAQQQQACBXARUxGQD4s/sHJULWOmDsg6k9BJEGkCtlr470tBzD5sGJHdiJkAAAQQQQGCfQKLO5BqQdoanj+lh+zK18Zl/GKHZh0faqFC4WfhLsc4a2dJ8ebgRlhcZDUh59syMAAIIIFBBgdSlVteAuJW1XebWgaiqyTNWFfzWKyVl0fTtpUwc+KQ0IIEXiPAQQAABBGwJ1IxegtWuUpK07D0NWhxrQGx9CxaaTfuuWJwFOZScBuRQE15BAAEEEEAgN4E0sbkGpA0mUrPXgDi79crtIGfgAwQk1V894AW+cDQgHAQIIIAAAggUKKAuMbsGRF06XCBlUVOxBqQoabPz6EVmU+sxMRqQHuHYDQEEEEAAgV4E6rLK7BoQUXuL0H2NzTaMvRy/7NO9gL9D3NDIpqnzu9/T7h40IHZrS2YIIIAAAgEKXP9m90iAYWUTkurh2QwUzihWb5scjnA1IpHEXVCNTDvLkgakMye2QgABBBBAIBsBEfXP1p7OZrCwRvELbs3dhledcAYkrMMs0mj0RZEGnkvYNCC5sDIoAggggAACSwiI27nEu9G+peLMNSB1w2t2oj3Qogxcnhll2DkFTQOSEyzDIoAAAgggsKiAqtHLsOydAZmeXclteBc9kHmjUwH/QMsnnzqmg51ub307GhDrFSY/BBBAAIHwBERMngGxuAj9lre4h/wlc2l4BxERxSbQqM2eEFvMecVLA5KXLOMigAACCCCwiICqzYXoKmrvOSDtNTuiZu9ctsghyss5CNTd3FNzGDbKIWlAoiwbQSOAAAIIxCzgL8cweQbEqb1LsNrHmTp/FoQPBPoU0Jqs6nMIM7vTgJgpJYkggAACCMQi4H+gNbkGRAwuQn/0mJIdsRxbxBmugLTSqXCjKzYyGpBivZkNAQQQQAAB5y/pMdmAOFWLT0JvnwKhAeH7tm8BVW7pvBeRBmSvBH8igAACCCBQlIDaXITuOyt7a0D8MeGXgdhsGIs63plnj8B9aeNbUDwqQAPCkYAAAggggEDhAjYv6fHPAbF5BsTJw4UfIkxoSkBV7799TGZNJdVHMjQgfeCxKwIIIIAAAr0IiKQmF6H7xfWre/GIYB8uwYqgSCGHKCK3hRxf0bHRgBQtznwIIIAAAgg4q5dgOXf6mJp7Grpf22KyYeQbsTiB1MnNxc0W/kw0IOHXiAgRQAABBIwJqCZmf6Bd7ZoGn/Zs85I5Y99WQadTc/rJoAMsODgakILBmQ4BBBBAAAEndm/HmdZq9i7DUhoQvmv7EdBv3rB+6Gv9jGBtXxoQaxUlHwQQQACB4AVSqU0HH2SPAdZ03twZkFRS7oLV4/HAbv4uzur+FIcDBWhADvTgKwQQQAABBHIXkDSdyX2SkiZIBxJzDYh/wjuL0Es6nmKfVp0+pPNDfxV7HlnHTwOStSjjIYAAAgggsIxALUntngFpJeYuwdJaQgOyzDHN2wsLqJOrJsdk18LvVvdVGpDq1p7MEUAAAQRKEmhJ3WwDkmrL3BmQZL7FJVglfa9EPu09bq7xrshzyCV8GpBcWBkUAQQQQACBxQVmd8+bbUCkZu8SLB2oNxevJu8gsLBA6vR/cvZjYRsakIVdeBUBBBBAAIHcBFa4IbMNiKapuUuwLDeMuR3kFR/YLzyfnFw//A8VZ1g0fRqQRWl4AwEEEEAAgXwEjv4JZ3YReqJi7hIsyw1jPkd41UfV784nenHVFZbKnwZkKR3eQwABBBBAIAeBay+WVg7DBjGkir0zIP4ymqkgcAkifAF196VJ/byb1g3/OPxgy4uQBqQ8e2ZGAAEEEKiwgKo+bDF9cfbOgLTr5C+p4U5GFg/YbHNqaqqjk5evvjvbYe2NRgNir6ZkhAACCCAQgYD/Qd3kwmb/3ANza0Dah5OImqxXBN8qUYTof6Ew1ZLahRNXDN8eRcAlB0kDUnIBmB4BBBBAoJoCKmpzHYiIyQbEtyA0INX8Vl0+a3U/UHFnfG7d6puW35gt2gI0IBwHCCCAAAIIlCAgKjYbENVGCZy5T+l/w22zXrnL2Z7An/H7aFJv/KS/49U3bGeabXb1bIdjNAQQQAABBBDoRMD/xnRaOtkwtm1EVsUWcifxinAGpBOnqmzjG9Iv+uvyNkysH76hKjlnmScNSJaajIUAAggggECnAuqazmAHIuoGOiWIajt/jb//gTOqkAk2ewF/M4Iv+Wb0iokNQ5/JfvTqjEgDUp1akykCCCCAQEgC4uZCCierWPyZnZVZjRXSOOpkF+1HSBUpPJaJNHVbJjcOXV/4zAYnpAExWFRSQgABBBCIQUB3+4XNMQTaVYyiavIMiLj2XbDs1aur4lZr49vUuc/74/mWdF5umhwb+mG10s83WxqQfH0ZHQEEEEAAgQUF/I+yswu+Ef2LYrMBSdyGVkuvjr48JLCgQCK12TSpPdhysw/wEMEFiTJ9kQYkU04GQwABBBBAoEMBlTmTv1A3egnWDeuGv+kr2/6PDwQQ6FOA2/D2CcjuCCCAAAII9CLgL+8weQbE35Z0RS8e7IMAAtUR4AxIjrUeGdOjagPN4zR1x/onrhzn1P8pavL2hDkyMjQCCBgX8HeVeXBiw3AFL21R34DYW1Ng9i5Yxr8PSQ+BIgVoQDLWHtnSfHmi+iv+N0A/J675RP8brn2Pe9zz74y9f2wyJmQ4BBComICIftenXLkGRFziF6Hv+VfCVMX93aI4A2KqoiSDQPYCNCAZmJ63eerFqXO/7n/r8wtOdbA9pBj8rVYGVAyBAAIIHCKgWs2HK6jonMVfSflq0oAccpTzAgII7C9AA7K/Rpefrx2ffqW41ib/+6vncHKjSzw2RwABBCou4P/dYA1IxY8B0kegqgI0ID1UfnR85gQnrfc6l77Y4vW7PZCwCwIIINCzgL8Ey951SB1o+Et1Z42eLedniw7qzyYIVFmAvyS6rP7IpqmXqsxf4//RGO5yVzZHAAEEEFhAoKqXYPkFgv5J6BZ7L+FmKwsc57yEAAL7BLgN7z6LZT8b3bxzPEncZ2g+lqViAwQQQKBjgSqfAekYKaIN/aVlJh9EGFEJCBWB4AU4A9JhidaO7/y4v9zqog43ZzMEEEAAAQSWE9i13AYxvs9zQGKsGjEjUKwAZ0A68F47PvU3IjQfHVCxCQIIIIBAhwJ+6Yu/BMvgh3IGxGBVSQmBTAVoQJbh9Gc+ftffUvDXltmMtxFAAAEEEOhOQJL57naIZWvh6opYSkWcCJQke98YPQAAQABJREFUQAOyBLy/29Uaf+bjHUtswlsIIIAAAn0KVHURuqQ2z4D4NSA8B6TP7wl2R8C6AA3IIhVeMz79VH+3q0/5t2uLbMLLCCCAAAII9C4gzuYZEP+I995R2BMBBKogwF8Si1S57tKruNvVIji8jAACCCDQt0Dqn4Te9yCBDnDq/1buhBVobQgLgRAEaEAWqMK5W5unOXGvXuAtXkIAAQQQyFigqrfhFa2ZbUC2XyJmc8v48Gc4BCopQAOyQNmTVsq6jwVceAkBBBDIQ6Cqa0A00VYeniGMedZVysN6QygEMSAQqAB3qjioMKObpi7wZz/OPuhlvkQAAQQQyEmgumdAnNmzBKuVdSA5fbswLAImBDgDclAZVfS3DnqJLxFAAAEEchSo6hkQ59TmInR/rOxOp7gTVo7fMwyNQOwCNCD7VXBkTIecyM/v9xKfIoAAAgggkJeA2QbEacIVFnkdNYyLgAEBGpD9ipjUpy709y/nzh37mfApAgggkLdAdS/BsrsIvVYXbmGf9zcO4yMQsQANyH7FUycX7vclnyKAAAIIFCDAJVgFIBc8RTor/DKvYHOmQyAmARqQA6t1/oFf8hUCCCCAAAL5CLRqdp8D4pxwCVY+hw2jImBCgAbksTJe8HZtiLinmqgqSSCAAAIIBC9QS53Z2/DSgAR/+BEgAqUK0IA8xj+/e+YnS60EkyOAAAIIVEpADN8Fy+kcZ0AqdTSTLALdCdCAPOaVJnpMd3RsjQACCCCAQO8Cc+mA2eeAcAak9+OCPRGoggANyGNVltRxx44qHPHkiAACwQlU9S5YdaezwRUjo4BqAzyIMCNKhkHApAANyONlZcHc4xR8ggACCBQoUNW7YKV15+/8bvNDWtyG12ZlyQqBbARoQB5z9L+Bm86GlFEQQAABBBBYXqCmds8SpE7T5QXYAgEEqipAA/JY5VNNdlb1ICBvBBBAAIHiBVpOzP4bnIijASn+kGJGBKIRMPuXX7cVqNfknm73YXsEEEAAAQR6FZD5WbNrDzkD0utRwX4IVEOABuSxOl9/+arv+k8N35O9Ggc0WSKAAAKxCFg+A+I7K86AxHIgEicCJQjQgOyPru6b+3/J5wgggAACCOQlMFCzuwi9xRqQvA4bxkXAhAANyAFl1JsP+JIvEEAAAQQQyElgzvCdomqsAcnpqGFYBGwI0IAcUEe58YAv+QIBBBBAAIGcBCw/K6PlVnAJVk7HDcMiYEGABmS/Kib1xj+pc4afTLtfsnyKAAIIIFCqgP8J3ey/wTUuwSr12GJyBEIXMPuXXy/w118mO0T1473syz4IIIAAAgh0I5Co3dvwtrgEq5tDgW0RqJwADcjBJVf35we/xNcIIIAAAvkJ+AfB+pPP1fuwfAYknVfuKlm9Q5qMEehYgAbkIKptG4e3+Ze+dtDLfIkAAgggkJOAqkhOQwc9rKRi9jkgSd1VsqkM+oAjOAQCEqABWaAYqchbFniZlxBAAAEEEMhMQBO7t+Gd5xKszI4TBkLAogANyAJVnVzX+Lj/1c3/WeAtXkIAAQQQQCATAWnNmz0DUhflLliZHCUMgoBNARqQReoqWrvEv9Vc5G1eRgABBBDISKCqa0Ay4gtymBZrQIKsC0EhEIoADcgildi2YfV/+CtY37jI27yMAAIIIIBAXwL+CqwVfQ0Q8M4ruA1vwNUhNATKF6ABWaIG2zYMvd9fivW+JTbhLQQQQACBPgWqugjdiazsky7Y3afnGjxTK9jqEBgC5QvQgCxTg6NOafyGv0HkZ5fZjLcRQAABBBDoSkANnwFJVvNQ364OBjZGoGICNCDLFPzai6W1a7DxS74JmVxmU95GAAEEEOhBoKprQFRaAz1wRbHLzW+WnVEESpAIIFCKAA1IB+y3XCoz9803XkIT0gEWmyCAAAJdClT1Eiy/BmRVl1RsjgACCJgQoAHpsIy3j8nsI0c3LvCnzK/wi9NnO9yNzRBAAAEEEFhQwOolWP6XdfMLJsyLCCCAwGMCNCBdHArbL5G5ifWNTWky8HynemMXu7IpAggggMAiAlW9BMvfKKq+CEnkL+uuyBMgfAQQyFmABqQH4Ml1K+/YtmH4XH8m5HX+Nz0/7GEIdkEAAQQQeEygqpdgOauXYAkL0PnmRgCBpQVoQJb2WfLd9m16H5lvPMOfDRlX1YeX3Jg3EUAAAQQWFKjqGRAVZ3MRusruBQvNiwgggMBjAkZP/xZX3+1jMu1n29j+77zNUy9OnVwkqq9y4o4pLgpmQgABBOIVqOoZEFH/HBDxT5uy98EzQOzVlIwQyFSABiRDzhvWD/2zH6793++cu7V5mrTSk0TkOP/10f6/p/hLto71/9iYffCUz5EPBBBAoHsBkR90v1P8e4hL/RkQiT+RgzIQxxqQg0j4EgEEDhKgATkIJKsvP3d54zY/Vvs/PhBAAAEEEFhAwOxteLkL1gLV5iUEENgnwBqQfRZ8hgACCCCAQGEC/uKrFYVNVuBE/vbC3Kq+QG+mQiBGARqQGKtGzAgggAAC0Qv4S5VMNiAiPCsr+oOTBBDIWYBLsHIGZngEEEAAAQQWEvBnCgbsrQBpZ2pvDcjo+PSZTtKbF6ojr9kR8Gcl7/a/GLjX/3mvaHKPc+mdztU+tm3DYCXXqeVZWRqQPHUZGwEEEEAAgcUExK1e7K2YX/d3NTN3Fyx/q/3D/ZkdPowL+BKf6G8MceKeUu+5Q137s/Tdo5unbkud+4hLah+avHz13f5FPvoU4BKsPgHZHQEEEEAAgZ4EVBs97Rf4Tv4HdXvPAUn08MDZCS9fgdP8D8xXJmnrrrXjUzeMbGm+PN/p7I9OA2K/xmSIAAIIIBCggL9N+2CAYfUdkjqd6XuQwAbwtXpCYCERTkkCvsEeTVQ/OTq+8+Y1m3Y/p6Qwop+WBiT6EpIAAggggECMAv6yHpOXYPkHLDZjrMdSMaeqhy31Pu9VUEDkzHoy9821480rKph93ynTgPRNyAAIIIAAAgh0L2D2DIjodPcaYe+RqOMSrLBLVFp0IvpWf1nWZ86/UjlL1kUVaEC6wGJTBBBAAAEEshLwZ0BsrgFRMXcJlr+zFw1IVge+wXH8ZVkvbbWmvjQ6PnOCwfRySYkGJBdWBkUAAQQQQGBpAX8GxOQlWE7U3CVY/s5I/HZ76cO58u+Kk5Odm//y6KZdz6g8RgcANCAdILEJAggggAAC2QvYPAOSusTeGRDhEqzsj3+DI4ococncpy54u83v7SwrRgOSpSZjIYAAAggg0KmA2jwD4u8QZO8MiHJ9f6eHddW382dCnj03O/V3VXdYLn8akOWEeB8BBBBAAIE8BMSZvA1vmhhcA8IZkDy+A8yO6ZuQn/e36d1kNsEMEqMByQCRIRBAAAEEEOhG4NQxNdl8tA2S1N5dsJyyBqSb45ttvYDIhjVva74Ai4UFaEAWduFVBBBAAAEEchMYdjbPfjwKlkzlBlfSwP7hiixCL8k+5mnrtfRdMcefZ+w0IHnqMjYCCCCAAAILCKT1GZt3wPK5ppqaW4Tu71g2tEAZeQmBZQTknJEtzZcvs1El36YBqWTZSRoBBBBAoEyBJKmZfAZI21RqNVMNyOj49FPKPFaYO24B0fTtcWeQT/Q0IPm4MioCCCCAAAKLCiQ6b3YNiKapqbtgiaRHLlpI3kBgGYH2XbE4C3IoEg3IoSa8ggACCCCAQK4CaZoelusEJQ4uqa1LsFLnji6Rk6kNCEiqv2ogjUxToAHJlJPBEEAAAQQQWF4gkcSvQ7f5oQN1W2dAVI+wWSmyKk5ALypurjhmogGJo05EiQACCCBgSCAVw3dV2r3K1F2wUnHHGDr0SKUEgfZNDEY2TZ1fwtTBTkkDEmxpCAwBBBBAwKqAqJq9BGvyLe4BS3VLXHKUpXzIpRwBSdwF5cwc5qw0IGHWhagQQAABBAwL+IWpVhuQ3f4BbGqqdOpoQEwVtKxk9EVlzRzivDQgIVaFmBBAAAEETAv4B9uZXAPi83rEXOFEaUDMFbWMhOSZZcwa6pw0IKFWhrgQQAABBMwKiEusngHZYa1oyhkQayUtJR9x7smnjqnZ2293i0oD0q0Y2yOAAAIIINCngIrNNSD+0jKDZ0C4BKvPw53dHxNo1GZPAONRARoQjgQEEEAAAQQKFhBnswHxZwvsNSCOBqTgbw+z09Xd3FPNJtdlYjQgXYKxOQIIIIAAAv0KqBOTa0Cc2FsD4i+dOb7ferM/AnsERFYi8agADQhHAgIIIIAAAkULqHtC0VMWMZ+1S7BGxvTwItyYoxoCmiQWzxD2VDwakJ7Y2AkBBBBAAIF+BKzeBUtMLUJPa7NP7qfK7IvA/gKt+daD+39d5c9pQKpcfXJHAAEEEChHQGw+B8Q/YHFnOaD5zFp3NCD5yFZz1AfSxp3VzPzQrGlADjXhFQQQQAABBHIV8OsKuA1vrsLZDJ6KcAYkG0pGce57t4/JLBCPCtCAcCQggAACCCBQvECj+CkLmDGxdQmWE3dsAWpMUQEBVb2tAml2nCINSMdUbIgAAggggED/Auds2Xl0/6OEOUJq7BIsUXdcmNJEFZuAiPtcbDHnGS8NSJ66jI0AAggggMBBAvXWwBEHvWTmy0RtnQFpP73aTHFIpFSB+XTgs6UGENjkNCCBFYRwEEAAAQRsC6S11GwD4lxi6i5YXIJl+3uxwOxuu3Hjqn8rcL7gp6IBCb5EBIgAAgggYEkgUTXbgKQyb+o2o+qUMyCWvvlKysXfzOD/L2nqYKelAQm2NASGAAIIIGBTQI+0mZc//6G1hyzlxhoQS9UsJxe/+PxhNzv4t+XMHu6sNCDh1obIEEAAAQQMCvgfas2eAdlx9Or7rJTsVddozRl9XouVGkWRhyTvmByTXVHEWmCQNCAFYjMVAggggAACztk8A6LOzWy/ROasVPiBO3efaCUX8ihJQN0PBlYMvqOk2YOelgYk6PIQHAIIIICANQH/g7rJMyD+zI6p9R9O9CnWjj3yKVYgVffr171JmsXOGsdsNCBx1IkoEUAAAQSMCIiIyQbE3zHqASMl2pNGKq2nWcqHXIoVUHV/O7lx6PpiZ41nNhqQeGpFpAgggAACBgT8DyYmGxCfl6kzIKJCA2Lg+62MFPxZzrt3DTbeWMbcscxJAxJLpYgTAQQQQMCGgDibd8EStdWAuPSpNg44sihWQB9opfULbrlUZoqdN67ZaEDiqhfRIoAAAghELiBOnxh5CouFf/9ib8T4uorQgMRYuBJj9s+N2aktOY+HDi5fBBqQ5Y3YAgEEEEAAgSwFTJ4BESemngHiC35ClkVnLOMCqo+4lpwzccXQV41nmkl6NCCZMDIIAggggAACnQrIEzrdMqbt/HXvphah+zNVnAGJ6QAsMVa//ukuTWUNzUfnRah3vilbIoAAAggggEA/AiNjU8f2s3/Y+4qZBuSsq3TYzTdNNophH0PxReebjz+c2DD05vgiLzdiGpBy/ZkdAQQQQKBCApK4J1lN1981yswlWAPzU/7yK7FaKvLKQkD1C/O64jdv3LjyW1kMV7UxaECqVnHyRQABBBAoTSCpuWP8pUomPzQRM3fBkjR5mkusVsrk4VdYUv6ouFtVL5vcMPyhwiY1OBENiMGikhICCCCAQJgC/nKNo8z+Yn1+3s5dsBJ3fJhHEFGVJeC/d//Jf+9+aGL90PvKisHSvDQglqpJLggggAACoQuYvQRrvu7uCx2/0/jEpf4hhFyC1amXte38GY77ReQef7bjDqfJNQMrV3/2ujdJ01qeZeZDA1KmPnMjgAACCFRKQMUdY/XH2pvWDf/YSjFFBt7Xas1dbyUf8lheQGq1mblE7v38Zau/t/zWbNGvAA1Iv4LsjwACCCCAQKcC6o61+It1/wA2M81Hu5Q3rFv1bf9H+z8+EEAgBwGeA5IDKkMigAACCCCwoIA/A7Lg67G/qGLm8qvYS0H8CMQgwBmQGKoUWYxrtzZP1VZ6cuLkyf43fcc6dce1//S/IVsRWSqEiwAChQjID/zCztcUMlX5kxxVfgg5RCDuhzmMypAIIGBUgAbEaGGLTuu8zVMvTp1cJKqvcqke4xdv7QvhsU/F4nUH+7LkMwQQ6FGg/RThHneNbjcxegmWz4szINEdjQSMQHkCNCDl2Uc/8+j4zAnqWpc6p6/zd4o4XPypDnqM6MtKAggULiD+NxeFT1rShD7RJ+3365mSoshl2h/lMiqDIoCASQEaEJNlzTepc7bsPLqeylVOWq9/9B9So/+c5svI6AggUDGBkTEdEmmuspi2v7sXZ0AsFpacEMhJgEXoOcFaHXZ0S/ONdXXf8VdYvd5qjuSFAALFCqjuf81msXMXOVt95W6bC9A9oqYsQi/yWGIuBGIX4AxI7BUsKP4z3qGrV0033+NUf421HAWhMw0CFRGoyiVY8630mMTqCeOa4xKsiny/kiYCWQjQgGShaHyMczY3n1yfaV7nf0f5XOOpkh4CCJQgUJUzIJL4OwIaXe3ifzFl6jkgJXwbMCUClRKgAalUubtPdmTL7meLzt7o/3E5uvu92QMBBBBAYK+AaOspVu/U4a+i4wzI3kLzJwIILCvAGpBliaq7weljeliis5+m+ajuMUDmCCCQpYD4BsTox+5V/2k0M9JCAIEcBGhAckC1MuRgvfkR/9u6k6zkQx4IIIBAqQLth7Ia/FDVqckxmTeYGikhgEBOAlyClRNs7MOObp56p8/h/NjzIH4EEAhfoCqL0P2tao8zugady6/C/zYjQgSCEuAMSFDlCCOY0fHpX/SR/F4Y0RAFAgggYEVATV6C5W9Qco+VCpEHAggUI0ADUoxzNLP4B2X5s2LpH0cTMIEigED0ApW5C5bK06Iv1gIJqJN7F3iZlxBAAIFFBWhAFqWp6BsDzd9z4k6oaPakjQACCOQicNZVOuz/bh3MZfCyB1XHAvSya8D8CEQmQAMSWcHyDHfPXa+cbsxzDsZGAAEEqihQm5093mrefm0Ll2BZLS55IZCTAA1ITrAxDjtYn/59f9erJ8QYOzEjgAACIQvUkjmTd8DaY67KGZCQDz5iQyBAARqQAItSXkj6m+XNzcwIIICAaQGTC9DbFdOkzhkQ04cuySGQvQANSPamUY547tbmaf5OJk+NMniCRgABBMIXMNuADIj8IHx+IkQAgZAEaEBCqkaJsdTS9KISp2dqBBBAwLiA3aegP/EZK//DePFIDwEEMhagAckYNN7h5IJ4YydyBBBAIGwBcanRMyD6wLUXSytsfaJDAIHQBGhAQqtICfFc8HZt+GlPK2FqpkQAAQRcFZ6E7p+VYfQSVy6/4lsYAQS6F6AB6d7M3B5z89PPNpcUCSGAQDQCVXgQoTg9MZqCdBGoKrfg7YKLTRFA4DEBGhAOBSctfSYMCCCAQFkC1s+AnDqm/gGEcmRZvnnO62vHLXjzBGZsBIwK0IAYLWx3afHsj+682BoBBLIUsH4G5PAVUydm6RXSWJwBCakaxIJAPAI0IPHUKsdI03qOgzM0AgggUGkB1eQEswCScAtes8UlMQTyE6AByc82npHFSTzBEikCCCAQl0Aq7mlxRdxVtDQgXXGxMQIItAVoQDgO2ofBDAwIIIAAAvkIiKrZMyDqUp4Bks9hw6gImBagATFd3s6SSzXd2dmWbIUAAggg0IOA2QbEzQ39ew8e7IIAAhUXoAGp+AHQTl+T+j0wIIAAAgjkJWDzDIg6fWhyTHblpca4CCBgV4AGxG5tO86srq1vd7wxGyKAAAIIdCkgRs+ACJdfdXkksDkCCDwqQAPCkeBuWD/0I38eZAcUCCCAAALZC/i7fByf/agBjKhKAxJAGQgBgRgFaEBirFoeMavcmMewjIkAAghUWWBk68yJdvPnDIjd2pIZAvkK0IDk6xvT6DQgMVWLWBFAIAoBUWf08ivPL+7uKIpAkAggEJwADUhwJSkpIK1/rKSZmRYBBCouIP4+tWYJtGW2ARFN7jZbNxJDAIFcBWhAcuWNZ/BtG1d9x6l+IZ6IiRQBBKwIqIpfJmHzw/dWp9jMzK8crOn3rOZGXgggkK8ADUi+vpGNLn8eWcCEiwACBgQsnwHxvdVJBkq0YAq6e5BF6AvK8CICCCwnQAOynFCF3j/ymY2/c+p+UKGUSRUBBAIQMH0GxDmTZ0D8NXMz/hkg9wdw+BACAghEKEADEmHR8gr52oullYpuzWt8xkUAAQSqJqBGL8ESp3dVrZbkiwAC2QnQgGRnaWKkybmh9/jfbH3DRDIkgQACCJQocPZWfaKIHF5iCDlOzS14c8RlaATMC9CAmC9xlwmOSSpOfq3LvdgcAQQQQOAggZqbPvmgl8x8qU7vNpMMiSCAQOECNCCFk4c/4bb1jS/7syDrwo+UCBFAAIFwBWotNduAOJW7w5UnMgQQCF2ABiT0CpUU38T6oa3+zvzXlzQ90yKAAALRC6SG74AlLvm36AtEAgggUJoADUhp9OFP/Mh84yJ/V6x/CT9SIkQAAQTCEzD9DJA0/W544kSEAAKxCNCAxFKpEuLcPibTs7XGS/2ZkK+WMD1TIoBARQSsPgfE53WS1RLuGmp822pu5IUAAvkL0IDkbxz1DJ+/XB7S+caIXxPylagTIXgEEAhWwOpzQHxeNp8Bou6Ht1wqM8EeUASGAALBC9CABF+i8gP0D5t6eNfqxpn+cqx3+v/S8iMiAgQQQCBsgZ8c0xUi7tiwo+wxOtHv9LgnuyGAAAJ7BGhAOBA6Emj/tmvbhqE/0CRpNyJf72gnNkIAAQQ6ELB4CdaxA81nd5B6lJv4W7WzAD3KyhE0AuEI0ICEU4soIplYN3irb0R+yjchf+BUH4kiaIJEAIGgBSxegpU6NduApE7+PegDiuAQQCB4ARqQ4EsUZoC+CXnnzPzQ0/3DqN7jI2yGGSVRIYBADAIWz4A4Tcw2IE5TGpAYvrGIEYGABeoBx0ZogQvcMiYP+hD/n/Z/a7c0f140fYW/Y9Yvi8jhgYdOeAggEJCAxTMgYvgMiNYSbsEb0PcPoSAQowANSIxVCzDmiXWNf/Rhtf97w7lbps9INH26qDvO+UWYvik51i/GPMafLVkRYOiEhAACZQuI/KDsEHKY3+wZkAEZ5Ba8ORwwDIlAlQSkSsmSKwIIIIAAAkUIjI5P7fa/gDH3Sxf/i6SHJtYPH1GEIXMggIBdAdaA2K0tmSGAAAIIlCAwsnXmRIvNR5vS3wGL9R8lHFNMiYA1ARoQaxUlHwQQQACBUgWSNH1OqQHkObk6GpA8fRkbgYoI0IBUpNCkiQACCCBQkIDqswqaqfhpRFn/Ubw6MyJgToAGxFxJSQgBBBBAoEwBFTV7BiR17o4ybZkbAQRsCNCA2KgjWSCAAAIIBCLg7wBo9g5Y0pJvBcJMGAggELEADUjExSN0BBBAAIHwBFSc2TMgjzyp8c3wxIkIAQRiE6ABia1ixIsAAgggEKzAqWM66O8UdXSwAfYVmH53+yUy19cQ7IwAAgh4ARoQDgMEEEAAAQQyEjhsxcwLMhoquGHUcflVcEUhIAQiFaABibRwhI0AAgggEJ6ApPq88KLKJiK/toX1H9lQMgoClRegAan8IQAAAggggEBWAirpT2U1VmjjqHAGJLSaEA8CsQrQgMRaOeJGAAEEEAhRwGwDktKAhHi8ERMCUQrQgERZNoJGAAEEEAhRQFTMrgGZml391RDNiQkBBOIToAGJr2ZEjAACCCAQoMDo+MwJTtxggKH1HZKq++H2MZnueyAGQAABBLwADQiHAQIIIIAAApkI2F3/IcIC9EwOEQZBAIE9AjQgHAgIIIAAAghkIJCKM7v+Q1W5A1YGxwhDIIDAowI0IBwJCCCAAAIIZCAgavgWvI4zIBkcIgyBAAKPCdCAcCgggAACCCCQgYA4NXsGxF+CdXsGRAyBAAII7BGgAeFAQAABBBBAoE+BkTGtOyfP6nOYYHeX2tCXgw2OwBBAIDoB/xcmHwgggAACCCDQj0AyMN0++2H1l3r3XH+Z7OjHh30RQACB/QWs/mW5f458jgACCCCAQK4CqeH1H/4WvF/LFY/BEUCgcgI0IJUrOQkjgAACCGQtkIgz+wBCb0UDkvUBw3gIVFyABqTiBwDpI4AAAgj0L+BvU3tq/6OEOYLSgIRZGKJCIGIBGpCIi0foCCCAAAKBCIiYbUDSlDMggRxlhIGAGQEaEDOlJBEEEEAAgTIE1mza/RxxbnUZc+c+p7r0xo2Nb+Q+DxMggEClBGhAKlVukkUAAQQQyFogSebMnv1w4r7hRPxVWHwggAAC2QnQgGRnyUgIIIAAAhUU8Gc/Xmg4bRagGy4uqSFQlgANSFnyzIsAAgggYEJAWIBuoo4kgQACxQnQgBRnzUwIIIAAAgYFVOQ0g2ntSUlT93WruZEXAgiUJ0ADUp49MyOAAAIIRC6wdtOuZ5ldgO5rM7dCuAQr8mOU8BEIUYAGJMSqEBMCCCCAQBQCIvN213+oPnjzmxv3RFEIgkQAgagEaECiKhfBIoAAAgiEJOBvD/UzIcWTZSzq5EtZjsdYCCCAwF4BGpC9EvyJAAIIIIBAtwJi9wno/ha827vlYHsEEECgEwEakE6U2AYBBBBAAIGFBNQZfgZIwhmQhWrOawgg0LdAve8RGAABBBBAAIEKCoxs3vlccTJkNfVWS/7Vam7khQAC5QpwBqRcf2ZHAAEEEIhUIHHJz0Yaegdh644bN66+q4MN2QQBBBDoWoAGpGsydkAAAQQQQMA5VTXbgKjKbdQYAQQQyEuABiQvWcZFAAEEELAuYLYB8YX7svXikR8CCJQnQANSnj0zI4AAAghEKnDWVTos4n4y0vCXD1uUO2Atr8QWCCDQowANSI9w7IYAAgggUF2Bgdnm6Zazl3SABsRygckNgZIFaEBKLgDTI4AAAgjEJ5CIGL78Snds27jqO/FVhYgRQCAWARqQWCpFnAgggAACwQio2F2A7pyw/iOYI41AELApQANis65khQACCCCQo4ConpPj8OUOrTwBvdwCMDsC9gVoQOzXmAwRQAABBDIUGN206xlO5LAMhwxqqNQpT0APqiIEg4A9ARoQezUlIwQQQACBHAXSZP6MHIcvfehU6/9SehAEgAACpgVoQEyXl+QQQAABBLIWEGd5Abr7EU9Az/qIYTwEEDhYgAbkYBG+RgABBBBAYCkB1ZGl3o75Pf909y/GHD+xI4BAHAI0IHHUiSgRQAABBAIQOHurPtHyAwhV5JYAmAkBAQSMC9CAGC8w6SGAAAIIZCewojUzkt1o4Y2UaI0GJLyyEBEC5gRoQMyVlIQQQAABBPITSNfkN3bJI6tLVx626taSo2B6BBCogAANSAWKTIoIIIAAAhkJiDPbgKi4f/3M78rujKQYBgEEEFhUgAZkURreQAABBBBAYJ/ABW/XhlP30/tesfaZsADdWknJB4FABWhAAi0MYSGAAAIIhCUwt2v6XCfO7L+b/g5YrP8I65AjGgTMCpj9i9RsxUgMAQQQQKAUAUnU7OVXbdB6rU4DUsqRxaQIVE+ABqR6NSdjBBBAAIGeBCw3IPrA9Zev+m5PLOyEAAIIdClAA9IlGJsjgAACCFRP4MKrdaWqnGY1c3XuZqu5kRcCCIQnQAMSXk2ICAEEEEAgMIHZnVNn+gcQ1gMLK7Nw1MkXMhuMgRBAAIFlBGhAlgHibQQQQAABBFInLzatoMnnTOdHcgggEJQADUhQ5SAYBBBAAIEgBdSZbUBU3a6jn7n6tiDdCQoBBEwK0ICYLCtJIYAAAghkJXD6mB7mb797albjhTaOv7TspmsvllZocREPAgjYFaABsVtbMkMAAQQQyECgUZ96iTjfghj98IvrJ42mRloIIBCoAA1IoIUhLAQQQACBMAT8HaLMXn61RzgR1n+EcagRBQKVEaABqUypSRQBBBBAoCcBkQt72i+CndrrP446efUXIwiVEBFAwJAADYihYpIKAggggEC2Ams27TrFX3t1fLajBjSauJtZ/xFQPQgFgYoI0IBUpNCkiQACCCDQvUBN5mxffuW4/Kr7o4I9EECgXwGzD1XqF4b9EUAgDoGRMT3K1aaeG0e03UU5uXF4srs92DprAX/24/ysxwxpvFSSyZDiIRYEEKiGAA1INepMlgiYFZCBqVFx8iGLCZ63eer5N6wf+prF3KLJSeSCaGLtMtD2+o9jTlnFE9C7dGNzBBDoX4BLsPo3ZAQEEChVQMz+IsXfHvXMUmkrPvnI+PTPeoKGYYYvsP7DcHVJDYGABWhAAi4OoSGAQEcCZhsQJ3pWRwJslIuAuJbZu189Csb6j1wOHAZFAIFlBWhAliViAwQQCFlAVXeHHN//be9eoOuqygSO731u0ia5iaCO42OWa3DUkRl842MhGJOgM8rLwYqIVGGN49tRh7W05FWubdKCLB1h8I0PQB2nAloV5NUkFLHLcYqi4gPwtRRUQBSTm6ZNcr750vIqpL3Pc+5+/Lt0Nbl3n72/77fvCvl69j67kdj0/IkjGrmeaxsVsEc12oPT1yd2i9PxERwCCAQrQAES7NSSGAJxCNik8KtQM9UN0Acdflb5CaHm53JeR26QR1trnudyjA3GVp7c1bmtwT64HAEEEKhLgAKkLjYuQgABVwTmdnXe4kosWcSxYiHlLkgWsBX6FCkfW6GJ32+LmTAlm/qdBNEjgICvAhQgvs4ccSOAwG6BbSV7ty7D+nO4HAkFSEsmV45uybB5DWrl6ryGYhwEEEDgoQIUIA8V4XsEEPBOQJcqBfuoWmvYiJ77B7IkiZGw93+kdgUFSO4fLAZEAIH7BChA7pPgbwQQ8FjAhnuWgZhn62GLHR5Pjneh9xVmeo01Xd4FXmXAYuTOqaGVP62yOc0QQACBpgtQgDSdlA4RQCBvgTSx1+c9Zm7jWZMkhRnOA8kN3BibhH33Q+/ufCNHToZCAAEEHiZAAfIwEl5AAAHfBOYLXdf6FnMt8UqScB5ILWCNthUT9ON3dckiy68a/YxwPQIINCRAAdIQHxcjgIALAtevsdO6rCTgJSXsA8nrc/bi8fLj9fG7h+Q1XivGKS8UL2vFuIyJAAII3CdAAXKfBH8jgIDfAmKu8zuB/UUvLMHaH08T32sX88omdudcV3q45fe/U7J/cS4wAkIAgagEKECimm6SRSBcASs22EPVrLE9/RvLh4Y7e+5kJlZe7U40mUTC8qtMWOkUAQRqEaAAqUWLtggg4KxA2tYW8B0QZU+l11n8QAI7YqM8UvdHHBlIOsumIam5atk3eBEBBBDIUYACJEdshkIAgewEpgY7btXeb89uhFb3LH2tjiD08dvT2eODzlHM7PRfF4N+YEPQ80dyCAQkQAES0GSSCgKxC0jQ+0BMf+zzm3X+euhj6Muvtmx/i53P2pH+EUAAgUoCFCCVhHgfAQS8EdC9ElPeBFtjoEv7QI4cn3lmjZfRvEoBPeyx20jYy6/0hJPLq+SgGQIIIJCpAAVIprx0jgACeQosSFvQy0sWDXdBsvo8JW3l4/X08xVZ9e9Cv/PWbHYhDmJAAAEEKED4DCCAQDACW0dX/sQY+WMwCT0kkUTMSx/yEt82SUDPkVnVpK6c7EaXJ9503XDxd04GR1AIIBCdAAVIdFNOwggELiBmItQM9ZfkvhM2SSHU/FqVly6/6tAlbq9o1fi5jGsNy69ygWYQBBCoRoACpBol2iCAgD8CSTLpT7C1RWqt7b7j1h0vqO0qWlcSSNpmjg19+ZWxBU4/r/RB4H0EEMhNgAIkN2oGQgCBPARksRDsHZAlv0SEZVhN/iCJNaub3KVb3enjdyd3dYR9To5b4kSDAAIVBChAKgDxNgII+CUwOdrxMzHmt35FXUO0IgM1tKZpBYE9hw/a4yo08/xtucyUbOp5EoSPAAIBCVCABDSZpIIAAvcKiLkyYIsjDi1JV8D55ZraisWZk3MdsBWDif1mK4ZlTAQQQGBfAhQg+5LhdQQQ8FZAN2tf7W3wFQK31rQ9ojDbV6EZb1ctYF9fdVNPG9pC8Wuehk7YCCAQqAAFSKATS1oIxCywc6E72AJk97wm7ANpxue7d/3cU3XzedCb+nU54vYtQzbYR1M343NAHwggkL8ABUj+5oyIAAIZC2wr2bt1iBsyHqZ13Yv5p9YNHs7Ibcn8KeFks49MxF66j3d4GQEEEGiZAAVIy+gZGAEEMhUQc1Wm/bewc12GdUhfaeZxLQwhiKHF2OD3fyxK4ctBTBZJIIBAUAIUIEFNJ8kggMB9AqlIyBvRjW3nLsh9c13P3wNjO3qtMQfVc60v1+jyqx9tHe24xZd4iRMBBOIRoACJZ67JFIGoBKZGe6Z0M/p0qEnrL89hn9yd8cSJWXxDxkO0vHs93f3ilgdBAAgggMAyAhQgy6DwEgIIhCGgv6RvCSOT5bIQCpDlWKp47bAPSad+Nk6qoqnXTVKTXuJ1AgSPAALBClCABDu1JIYAAmKSgM8/sAf0je04glmuXaBzdvYUffpV2GepiNwyNdzzo9p1uAIBBBDIXoACJHtjRkAAgRYJWLGXtWjoXIa1dvGoXAYKbBBdmvfOwFJ6WDq6/4PN5w9T4QUEEHBFgALElZkgDgQQaLrAxEjXbcbIj5vesSsdiqEAqXEuXrKx/Pylp4jVeJl3zRfThP0f3s0aASMQjwAFSDxzTaYIRCpgg12Gpb9IP2tgbPZvIp3YutJOFtM31XWhRxeJmF9uXVv8nkchEyoCCEQmQAES2YSTLgKxCSzawuaQc04TOSbk/JqZ257N5+Gf/aH7W7j70cwPDn0hgEDTBShAmk5Khwgg4JLAtUOd1+ma/ztdiqmZsSSpHN3M/kLua+Xc7BuC33yuEyhiN4U8j+SGAAL+C1CA+D+HZIAAAhUErJhgH0eqm41fViF93r5XwIq8NXwMuXlqpPh/4edJhggg4LMABYjPs0fsCCBQlYC19tKqGnrYSPeBdPSvL7MZvcLc9W+YPVzP/nh2hWbevy2SXOB9EiSAAALBC1CABD/FJIgAAluGu68WkT8HK5Gk7AOpMLk2XXx3hSZBvC3t9sIgEiEJBBAIWoACJOjpJTkEEHhAwAa8Gd3+ywN58tVDBfY8KcyueujrAX4/ObWm67cB5kVKCCAQmAAFSGATSjoIILC8gDU22H0gurTo8fpL9guWz5xXxaTv0s3nwf/3LhXD8is+7ggg4IVA8D+QvZgFgkQAgcwF7nlM1xX6NKzpzAdq1QA2fVWrhnZ53KVH7xorb3M5xmbEpmd/zE0vFDn9vBmY9IEAApkLUIBkTswACCDggsD2t9h5Y+xXXIglixj0aVgnZtGv7312zs2eqne/enzPo4r4L9lesrNVtKMJAggg0HIBCpCWTwEBIIBAXgL6i+iX8hor73F0GdZBfRt2Hpz3uK6PJ6LLryL4k1iWX0UwzaSIQDACFCDBTCWJIIBAJYGJ4eI3Q34alk13nVTJIKb3B8bLr9CiM/iiTJdf/X7pSW8xzS25IoCA3wIUIH7PH9EjgEDNAuEuw9KN1q+rmSPkCyQ9PeT07s/Nmovu/5ovEEAAAQ8EKEA8mCRCRACBJgpY8z9N7M2prvRf+5/C07D2TMlLNsweZqztdWqCsgombft0Vl3TLwIIIJCFAAVIFqr0iQACzgpMzhevNmLucDbABgMTK6sb7CKIy5M0HQkikQpJ6JLCb02OdvysQjPeRgABBJwSoABxajoIBgEEMhco2VTH+GLm47RsgPS1LRvakYF71808w1pzlCPhZBqGGHt+pgPQOQIIIJCBAAVIBqh0iQACjgtYG+yaeV2G9Zj+8fLRjs9ApuEVCiaKux96J2/2zoXif2eKSecIIIBABgIUIBmg0iUCCLgtoE/DusEY+bHbUTYQncjrG7ja60v7Ns49xYp5tddJVBm8Hqz5uZtKdleVzWmGAAIIOCNAAeLMVBAIAgjkKSBiL8hzvJzHeuXhZ0kMh+89jNUuLpyuTwOL479tqf3kwwB4AQEEEPBAII4f0h5MBCEigEC+Avo76hf09HD9X3h/dP9DR/uu2deEl9n+M+pdP/dUzf3U/bcK41394G6fXNt9YxjZkAUCCMQmQAES24yTLwII7BaYGOm6TcuPK0PlsDY9NdTc9pVXIZk/U98r7Ov9kF4Xaz8VUj7kggACcQlQgMQ132SLAAJ7CSTBPkHIWnvEkRum/3GvdAP+pndd+Tm6Af9VAaf44NR27uzouvDBL/A1Aggg4JMABYhPs0WsCCDQVAFZ6Nys5yjc1dROHeosFfNuh8LJNJS2JD0v0wEc6lzEfHHbaXaHQyERCgIIIFCTAAVITVw0RgCBkASmSnZB/9U83LsgYle/9Ew5IKQ5Wy6XgbHysXrq+YuWey/E1xZT+18h5kVOCCAQjwAFSDxzTaYIILCcgLQFW4Do06C6FhdmTlku7ZBeE5t+IKR89peLPnr3+q1ri9/bXxveQwABBFwXoABxfYaIDwEEMhWYGO34uT5RaEumg7Syc2v/o5XDZz22Hrr4Zr2LdXDW4zjTvy18yJlYCAQBBBCoU4ACpE44LkMAgXAExCYfDyebvTOxxhzUPza7au9Xw/jusJI8ykh6VhjZVJGFmNsmBzu/UkVLmiCAAAJOC1CAOD09BIcAAnkITA12XqIbe3+Tx1gtGcOm723JuBkP2tFWPlef9nVgxsM4031qzdm61yXIs2ucQSYQBBDIRYACJBdmBkEAAacF9Jc6seYjTsfYQHB6F+SF/RtmD2+gC+cuPXJ8ul8PHTzZucAyC0ju2dlZ5OTzzHzpGAEE8hSgAMlTm7EQQMBZgYVk9y93O50NsMHAbLq4ocEunLn8kJKsSMV+2pmAcgnEns+jd3OBZhAEEMhBgAIkB2SGQAAB9wW+NWj/pMuwPu9+pHVGaG3vwPrpgTqvduqyx7bPDOndjyc5FVSWwYhJd7ZZNp9naUzfCCCQqwAFSK7cDIYAAi4LLKbmHJfjazQ2Saz3d0H2nO5uz2jUwqvrrdl0/Zri7V7FTLAIIIDAfgQoQPaDw1sIIBCXwNa13T8M+ZG8S3tB+samT/R5VnWzzkU+x19P7IsJdz/qceMaBBBwV4ACxN25ITIEEGiFQBr2L3t6ZsaH+0rS3QraRsfsHyuv1T6e22g/nl1/9bWDxe96FjPhIoAAAvsVoADZLw9vIoBAbAKTo8XLjchPQs1b9048Lmmb3ehbfr3rZp5hjIz6Fnej8erdj+FG++B6BBBAwDUBChDXZoR4EECg9QI2CXrDr1h5x8DY7ItaD11dBCdskkKhIJu0eGqr7oowWulDEa7i7kcYc0kWCCCwtwAFyN4efIcAAgiYieHi+WLkzlApdC+Inma3eKEuxerwIce7bi5v0KVjB/sQa1NjTJKlJWf8QQABBIIToAAJbkpJCAEEmiEgJgn6iVh6gviTbfuM83d6ljbN652P9zVjTn3qQx+GcOXkUNd3fIqZWBFAAIFqBShAqpWiHQIIRCWwYkXXh0XkzyEnrXcV3tY/Nv12V3PsG595thZKn3U1vizjShMb3X6XLD3pGwEE3BKgAHFrPogGAQQcEbjqvbZsTHK2I+FkF4a15w2MlY/NboD6etblYX+l68S+psvFOuvrwd+rdO/HFez98Hf+iBwBBCoLUIBUNqIFAghEKtC+suscvQtyV8jp794PYuWS/vXlo1zJ8xXnysqkrXyZLr16oisx5RlHYs2aPMdjLAQQQCBvAQqQvMUZDwEEvBHYfRfE2g94E3CdgWoR0m4TuUyfjHV8nV009bK56fJmY80LmtqpJ53p3Y/Ltwx3/8CTcAkTAQQQqEuAAqQuNi5CAIFYBOY6i+dprn+IIl+bXto3NnNKK3PtH5+5QAuif25lDK0cW+9+DLZyfMZGAAEE8hCgAMlDmTEQQMBbgW2n2R16MOGYtwnUGLj+Avy5/rGZ82u8rCnN+8fL52nx8YamdOZjJ2Iu4u6HjxNHzAggUKuA/qznDwIIIIBAJQH9l/lf6g/Mgyq1C+V9XQp046K0n7R1dGUup8L3j09/dOmpXKH41ZNHmhSeNDXY+at6ruUaBBBAwCcB7oD4NFvEigACrRQ4o5WD5z22bgB/ViGZv1Ef0/v+Q0qyIsvxdYxPxl58aMF3LsVHlp8y+kYAAZcEuAPi0mwQCwIIOC2gd0F+qD80n+50kFkEJ3KLSZL/nBgqfqyZ3b/0TDkgXSh/XjecH9PMfr3rS8xsulD826mSDfqJa97NCwEjgEBmAhQgmdHSMQIIhCbQv6F8nBXZHFpe1eYjRv5kjP344qL98ta1xe9Ve91y7QbGy8/VRxx/NdZH7T7YRMSeMTlSXPfg1/gaAQQQCFmAAiTk2SU3BBBousDA+MyEdtrf9I5961DMr/XOxcVizA9Ekpvn2ztvun6Nna4mjYGx6fXG2pFq2gbfRswdbSuLf7fn4MvgsyVBBBBAYLcABQgfBAQQQKAGgf71c0+zycJPa7gkoqbyR93LcIsWF7+wRn6piS/snbw9UL9/rf7/sXu/Hu93ehfoHZMjPR+NV4DMEUAgRgEKkBhnnZwRQKAhgYGxmY36r/+nN9QJF0cvoMXaTZMLxWeakk2jxwAAAQSiEuApWFFNN8kigEAzBHZ0FdfpL4+/aUZf9BGngC5d060fZjXFR5zzT9YIxC5AARL7J4D8EUCgZoGlwwklse+q+UIuQOBeAV1+cO7UcPf3AUEAAQRiFKAAiXHWyRkBBBoWmBoqflX/FfvKhjuig/gExNzWtqI4HF/iZIwAAgjsEaAA4ZOAAAII1ClgJXmjFiE76rycyyIVSMWcylOvIp180kYAgd0CFCB8EBBAAIE6BSZGum6zYobqvJzLohSQi6dGu6+JMnWSRgABBO4VoADho4AAAgg0IDCxUDxX74Jsb6ALLo1EQB+5OzM3b94RSbqkiQACCOxTgAJknzS8gQACCFQhsPQI1UXzxipa0iRyAV2yd9q3Sz13RM5A+ggggIChAOFDgAACCDQoMLm2+0ZjbKnBbrg8YAF9bPPExGjxUwGnSGoIIIBA1QIUIFVT0RABBBDYt8DEUNc6lmLt2yfyd8oL1q6O3ID0EUAAgfsFKEDup+ALBBBAoAEBa6WQtL1G/6V7roFeuDRIAfue64aLvwsyNZJCAAEE6hCgAKkDjUsQQACB5QSuGez4hZ5uffpy7/FanAK7l14NF8+PM3uyRgABBJYXoABZ3oVXEUAAgboE9HTrc/SXzivqupiLwhIQ+QtLr8KaUrJBAIHmCFCANMeRXhBAAIH7BQptxdcaPe36/hf4Ik4BYelVnBNP1gggUEmAAqSSEO8jgAACNQpcc7q9x5jkNTVeRvOABPQu2OUTo92fDSglUkEAAQSaJkAB0jRKOkIAAQQeENBT0r+dGvaDPCAS1Ve3zxeKPPUqqiknWQQQqEXA1tKYtggggAACtQn0j01/1Vr7ytquorXfAvbQieHiDX7nQPQIIIBAdgLcAcnOlp4RQAAB076y+2Q9H+RHUMQhkFr7VoqPOOaaLBFAoH4BCpD67bgSAQQQqChw1XttWU8IOcYY+WPFxjTwWkALzQunhoqf8DoJgkcAAQRyEKAAyQGZIRBAIG6BiZHOX4stLC3DWoxbIuTsZdsd88U3hZwhuSGAAALNEqAAaZYk/SCAAAL7EZgc6ro+FfPG/TThLU8FROTnO+a7j7mpZHd5mgJhI4AAArkKUIDkys1gCCAQs8DUSPcFej7IYMwGweWuhw1Kof3l20r27uByIyEEEEAgIwEKkIxg6RYBBBBYTmBipPtMI/a85d7jNR8F2o6dGuy41cfIiRkBBBBolQAFSKvkGRcBBKIVmBgp/rsR+XK0AIEkLkZO1P09WwNJhzQQQACB3AQoQHKjZiAEEEDgAYFH/333SfoL7NceeIWvfBJIjR2ZHO7Z5FPMxIoAAgi4IsBBhK7MBHEggEB0AidsksJdt8xcao09LrrkPU5YxFwwOdJ9qscpEDoCCCDQUgEKkJbyMzgCCCBgjJ6WfrGelr4KCx8E5OKJ4Z4TfIiUGBFAAAFXBViC5erMEBcCCEQjMDnS82pN9kvRJOxponrn4wsUH55OHmEjgIBTAhQgTk0HwSCAQKwCE8O794R8LNb8Xc9bTzn/jC67Wu16nMSHAAII+CBAAeLDLBEjAghEIaCbmt+u/8q+JopkPUpSjP3I5HA3h0h6NGeEigACbguwB8Tt+SE6BBCIUKBvbObkxJrPR5i6cynrKefrdIncGc4FRkAIIICAxwIUIB5PHqEjgEC4AgPj5eeKSa/QJ2Q9Jtws3c4sNeY9U8Pd57gdJdEhgAAC/glQgPg3Z0SMAAKRCLx4vPz4diObNd3nR5KyM2mmqf23qdHip50JiEAQQACBgAQoQAKaTFJBAIEwBfrHpz+hd0LeHGZ2bmWlh0NOJ8au2jLcfbVbkRENAgggEI4ABUg4c0kmCCAQsMDA2PQJxppPGWMPCDjNlqamDwD4jZG2l02OdvyspYEwOAIIIBC4AAVI4BNMegggEI5A79jsE9vs4he0CHlxOFm5kYk+Zvc7O+fluG+Xeu5wIyKiQAABBMIVoAAJd27JDAEEAhXoHysPWSvjgaaXe1r6mN21k8PF9bkPzIAIIIBApAIUIJFOPGkjgIDfAn0b556SpPOf4W5IA/Mo8pPU2tfpk66+30AvXIoAAgggUKMABUiNYDRHAAEEXBLoHy//q5H0g9baA12Ky/VYdMnV2Xq44Ptcj5P4EEAAgRAFKEBCnFVyQgCBqASO2CiPbF8sl3ST+tv0h3p7VMnXmKwWHr+ykpw4MdL1vzVeSnMEEEAAgSYJUIA0CZJuEEAAgVYLDKyfe7Kx82cba49vdSyOjn/Ojs7i4LbT7A5H4yMsBBBAIAoBCpAoppkkEUAgJoH+DbMv1GVZo/oD/uiY8t5XrnrX44uJbXv/lqGOm/fVhtcRQAABBPIToADJz5qREEAAgVwF+tfNPMskMqr7Q1blOrA7g30zNWaITebuTAiRIIAAAksCFCB8DhBAAIHABXrXzz21YBfeqY/uPUV/7MdwkOHkok2Grx3q2hb41JIeAggg4KUABYiX00bQCCCAQO0CfSXpSArlk8Sat1trnld7D45fIbLViHn/xGjPhOOREh4CCCAQtQAFSNTTT/IIIBCrwJ67IvOrNf8TdYnW03x10P0dv9XYL5Kk7TNTgx23+poHcSOAAAIxCVCAxDTb5IoAAggsI9C7rvyctkK6Sk8Ef7n+R+HQZZo49ZKI+b019uJUZPPUaPc1TgVHMAgggAACFQUoQCoS0QABBBCIR+Cwkjyqo728VIi8TO8u9OnfB7mQvcay3Rr5hiTJ1ycHi9tdiIkYEEAAAQTqE6AAqc+NqxBAAIEoBPYUJLOHWZMeJmKfr3tHnq6JPyGH5P+g+zm+axJ7eVqwX59a07W01Io/CCCAAAIBCFCABDCJpIAAAgjkKXD4WdLTls4enKTyD7oU6klG5EC9Q9Gjdygeocu4evRpW0UtVh5hjHTr/pJujW3p/0UxMq1P4bpHC4t7tM3d+vWMLqf6i7Fyz9LrVsztukH+h/NJ8YZvDdo/5ZkTYyGAAAIIIIAAAggggAACCCCAAAIIIIAAAggggAACCCCAAAIIIIAAAggggAACCCCAAAIIIIAAAggggAACCCCAAAIIIIAAAggggAACCCCAAAIIIIAAAggggAACCCCAAAIIIIAAAggggAACCCCAAAIIIIAAAggggAACCCCAAAIIIIAAAggggAACCCCAAAIIIIAAAggggAACCCCAAAIIIIAAAggggAACCCCAAAIIIIAAAggggAACCCCAAAIIIIAAAggggAACCCCAAAIIIIAAAggggAACCCCAAAIIIIAAAggggAACCCCAAAIIIIAAAtkTukIAAAMTSURBVAgggAACCCCAAAIIIIAAAggggAACCCCAAAIIIIAAAggggAACCCCAAAIIIIAAAggggAACCCCAAAIIIIAAAggggAACCCCAAAIIIIAAAggggAACCCCAAAIIIIAAAggggAACCCCAAAIIIIAAAggggAACCCCAAAIIIIAAAggggAACCCCAAAIIIIAAAggggAACCCCAAAIIIIAAAggggAACCCCAAAIIIIAAAggggAACCCCAAAIIIIAAAggggAACCCCAAAIIIIAAAggggAACCCCAAAIIIIAAAggggAACCCCAAAIIIIAAAggggAACCCCAAAIIIIAAAggggAACCCCAAAIIIIAAAggggAACCCCAAAIIIIAAAggggAACCCCAAAIIIIAAAggggAACCCCAAAIIIIAAAggggAACCCCAAAIIIIAAAggggAACCCCAAAIIIIAAAggggAACCCCAAAIIIIAAAggggAACCCCAAAIIIIAAAggggAACCCCAAAIIIIAAAggggAACCCCAAAIIIIAAAggggAACCCCAAAIIIIAAAggggAACCCCAAAIIIIAAAggggAACCCCAAAIIIIAAAggggAACCCCAAAIIIIAAAggggAACCCCAAAIIIIAAAggggAACCCCAAAIIIIAAAggggAACCCCAAAIIIIAAAggggAACCCCAAAIIIIAAAggggAACCCCAAAIIIIAAAggggAACCCCAAAIIIIAAAggggAACCCCAAAIIIIAAAggggAACCCCAAAIIIIAAAggggAACCCCAAAIIIIAAAggggAACCCCAAAIIIIAAAggggAACCCCAAAIIIIAAAggggAACCCCAAAIIIIAAAggggAACCCCAAAIIIIAAAggggAACCCCAAAIIIIAAAggggAACCCCAAAIIIIAAAggggAACCCCAAAIIIIAAAggggAACCCCAAAIIIIAAAggggAACCCCAAAIIIIAAAggggAACCCCAAAIIIIAAAggggAACCCCAAAIIIIAAAggggAACCCCAAAIIIIAAAggggAACCCCAAAIIIIBA4AL/DyXuJca2nU1vAAAAAElFTkSuQmCC;" vertex="1" parent="1">
          <mxGeometry x="360" y="360" width="70" height="70" as="geometry" />
        </mxCell>
        <mxCell id="YuxHfZ-qimljH39FzYP2-7" value="" style="endArrow=classic;startArrow=classic;html=1;rounded=0;exitX=1;exitY=0.497;exitDx=0;exitDy=0;exitPerimeter=0;entryX=-0.013;entryY=0.58;entryDx=0;entryDy=0;entryPerimeter=0;" edge="1" parent="1" target="YuxHfZ-qimljH39FzYP2-8">
          <mxGeometry width="50" height="50" relative="1" as="geometry">
            <mxPoint x="471.05" y="394.4" as="sourcePoint" />
            <mxPoint x="559.9999999999999" y="395.5999999999999" as="targetPoint" />
            <Array as="points" />
          </mxGeometry>
        </mxCell>
        <mxCell id="YuxHfZ-qimljH39FzYP2-8" value="" style="rounded=0;whiteSpace=wrap;html=1;labelBorderColor=default;" vertex="1" parent="1">
          <mxGeometry x="560" y="325" width="150" height="120" as="geometry" />
        </mxCell>
        <mxCell id="YuxHfZ-qimljH39FzYP2-9" value="Api Backend" style="text;html=1;align=center;verticalAlign=middle;whiteSpace=wrap;rounded=0;" vertex="1" parent="1">
          <mxGeometry x="560" y="325" width="80" height="30" as="geometry" />
        </mxCell>
        <mxCell id="YuxHfZ-qimljH39FzYP2-10" value="" style="shape=image;verticalLabelPosition=bottom;labelBackgroundColor=default;verticalAlign=top;aspect=fixed;imageAspect=0;image=data:image/png,iVBORw0KGgoAAAANSUhEUgAABGoAAAJSCAYAAACbTiP8AAAAAXNSR0IArs4c6QAAAERlWElmTU0AKgAAAAgAAYdpAAQAAAABAAAAGgAAAAAAA6ABAAMAAAABAAEAAKACAAQAAAABAAAEaqADAAQAAAABAAACUgAAAAAGnh38AABAAElEQVR4AezdX6glV3oY+n2EDLrBhomDz/HEYEW5JjBwCWgGWoE8SC1NbPQwEAvyEmg3iPSDlZeAo34Y39Dd5M48SDeQlygPJwjaDXkJyIZ5EHZGaunhQtQwIwiBgeBE1oCj9BliDyQ4Ag997v7OPtWnzu79p/7XWlW/A917n71rr1rf71t776rvrKo6WPghQIAAAQKJClx7+73DZ05/+rWie8dHV68W95vc3nh4/3687suDr/zo3puvnTRpw2sIECBAgAABAgQI9Clw0Gfj2iZAgAABArsEikLMRQHmqVdXy59e2fW6bp87eLBq79H7cRvFHIWcboW1RoAAAQIECBAgUF1Aoaa6lSUJECBAoKHA5oLMkMWYhh1fRBHnooBzfPP1j5u25HUECBAgQIAAAQIEqggo1FRRsgwBAgQI1BK48da7L16eJZNDUaZqiKvijZk3Vb0sR4AAAQIECBAgUEdAoaaOlmUJECBAYKNAzJi5d/j8G4tFHLo0paLMxnDXHlS4WQPxKwECBAgQIECAQAsBhZoWeF5KgACBOQtczJqZY3FmV+ZXhZtrJ5++44TFu5w8R4AAAQIECBAgsElAoWaTiscIECBA4AmBi1kz8dTBrScW8MAGgYvZNs5vs4HHQwQIECBAgAABAk8IKNQ8QeIBAgQIELgkcPez26vfFWcuudT+xUyb2mReQIAAAQIECBCYoYBCzQyTLmQCBAjsE7g4rElxZp9Vs+cVbZq5eRUBAgQIECBAYPoCCjXTz7EICRAgUEng4tAm55ypBNbZQqd34gpSDo3qDFRDBAgQIECAAIGsBRRqsk6fzhMgQKC9wEWBxuyZ9pptWljNsllcf+52m1a8lgABAgQIECBAIG8BhZq886f3BAgQaCzg8KbGdAO88PSOq0YNwGwVBAgQIECAAIEEBRRqEkyKLhEgQKBPgVWB5pW3FovTK32uR9tdCCjYdKGoDQIECBAgQIBATgIKNTllS18JECDQQkCBpgXe6C9VsBk9BTpAgAABAgQIEBhIQKFmIGirIUCAwFgCCjRjyfexXgWbPlT7bjPOA/XM6U+/Fus5Prp6dfP64iTe6z+P3l9/JH6Pk0/H7ZcHX/nRvTdfO4n7fggQIECAAIHpCCjUTCeXIiFAgMAlAQWaSxwT+0XBJrWExvst+rQqxBRFlyEPL4yTUcfPqrjjSmIrDf8TIECAAIEcBRRqcsyaPhMgQGCHgKs47cCZ3FOnd1wlatikFrNjxivI1I33ooATxRuzcOr6WZ4AAQIECAwvoFAzvLk1EiBAoD+Bu5/dXixcZrs/4BRbPnhw4+EHN49vvv5xir3LvU9PFmaGnCXTp96yyLf8cXWxPo21TYAAAQIEmgko1DRz8yoCBAgkJeAwp6TSMVJnHA7VFfzq/RTnkolDmKZSmNmlE7NuHr3vcKldRp4jQIAAAQLDCSjUDGdtTQQIEOhcwGFOnZNOoEGHQzVK4tlstHilGWlLg7PCjdk2jUaSFxEgQIAAgdYCCjWtCTVAgACBcQRWf/V/+aNx1m6taQscPLh28oNvuSLQ7ixdzJxRnNkupWiz3cYzBAgQIECgHwGFmn5ctUqAAIHeBFazaL7xvXkcktEb40waNrtmPdGKM+sidX53PqQ6WpYlQIAAAQJNBRRqmsp5HQECBEYQMItmBPTsV2l2zVkKzw5tmss5Z/oetGbZ9C2sfQIECBCYt4BCzbzzL3oCBDIRcC6aTBKVcDdvPPzwpbldGcr7ZogBaZbNEMrWQYAAAQLzElComVe+RUuAQIYCq1k0r7zlUKcMk5dcl+dxZSgFmjEG3mqWzeL6c7fHWLt1EiBAgACBKQko1Ewpm2IhQGB6AmeHazjR6fQSO2ZE0z0USlFzzHFVrFvBppBwS4AAAQIEmgoo1DSV8zoCBAj0LaBI07fwrNuf0qFQCjQpDmUFmxSzok8ECBAgkIeAQk0eedJLAgRmJOCqTjNK9uih5n1VKIc4jT6AKnTAOWwqIFmEAAECBAhcElCoucThFwIECIwr4KpO4/rPc+35HQqlQJPjSFWwyTFr+kyAAAEC4wgo1Izjbq0ECBB4UsChTk+aeGQggYyKNd4nA42JvlYzjxNa96WnXQIECBCYh4BCzTzyLEoCBFIXsPOZeoZm0b+Uz1vjPDRTG4J5H3Y3tWyIhwABAgTSElCoSSsfekOAwBwFFGnmmPVkY06tWOMwp2SHSgcdczhUB4iaIECAAIEJCijUTDCpQiJAIA8BJw3OI0/z7GUasx2cs2kuoy+N8TYXbXESIECAQPoCCjXp50gPCRCYoIAizQSTOrmQxtt59v6Y3GCqEJDZNRWQLEKAAAECMxFQqJlJooVJgEA6AnZC08mFnuwTGL5YYxbNvpxM/fnhx9zURcVHgAABAvkJKNTklzM9JkAgYwFFmoyTN9uuD7jj7HxNsx1llwPP6CpklzvuNwIECBAg0ImAQk0njBohQIDAfgFFmv1GlkhV4ODB4vqzL/TVO++NvmTzbje1E1vnran3BAgQIJCTgEJNTtnSVwIEshWwI5pt6nT8sUA/M2sc6vQY2J2NAv2Mu42r8iABAgQIEEhEQKEmkUToBgEC0xVQpJlubucXWcc7zQ51mt8QahSxQ6EasXkRAQIECGQr8FS2PddxAgQIZCCgSJNBknSxhsDBrcVZcaXGSzYsGu+Lxd3PP1kslu35IbBX4PTKvcNvfC9mX+1d1AIECBAgQGACAgo1E0iiEAgQSFNAkSbNvOhVW4F2xZrY2Y6d7sXi9Erbnnj9nAROrxwfvfyRYs2cci5WAgQIzFdAoWa+uRc5AQI9C9w7fP4NO6M9I2t+JIGDW012mOM1sbPtfTFS2iaw2rPx08GsrglQCIEAAQIEJizgHDUTTq7QCBAYUcC5N0bEt+qhBGpdlcd7Yqi0zGQ9HZ8vaSZqwiRAgACBPAQUavLIk14SIJCTgB3SnLKlry0Frp388Ojem6+d7GzGe2InjyebCijWNJXzOgIECBBIW8ChT2nnR+8IEMhMYHU4iBOkZpY23W0hEOebOTs58LY2FGm2yXi8tUCcL+nzT3aOv9br0AABAgQIEBhewIya4c2tkQCBiQpcnH9jogEKi8BWgYMHi+vPvvDE04o0T5B4oA8Bl+/uQ1WbBAgQIDCegBk149lbMwECExKIv+geH73y1oRCEgqBGgLLKzidFWVKL1GkKWG426/A6vLdZtb0q6x1AgQIEBhOwIya4aytiQCBKQssp9+7ks2UEyy2agLn5wxRpKnGZamOBcys6RhUcwQIECAwkoBCzUjwVkuAwIQE7JROKJlCaS+wPAxqsZxh44fAKAKKNaOwWykBAgQIdCrg0KdOOTVGgMDcBJw8eG4ZF+9+AUWa/UaW6E/AYVD92WqZAAECBIYSMKNmKGnrIUBgcgJxPoR7h19/OLnABESAAIHsBbac4Dr7uARAgAABAnMQMKNmDlkWIwECvQjEZYl7aVijBAgQINBSYMMJrlu26OUECBAgQGAoATNqhpK2HgIEpiXgvDTTyqdoCBCYqICZNRNNrLAIECAwaQEzaiadXsERINCHgPPS9KGqTQIECPQhYGZNH6raJECAAIF+BRRq+vXVOgECExQ4PnrlrQmGJSQCBAhMVODg1qrAPtHwhEWAAAECkxNQqJlcSgVEgECvAmeHPLmqTa/GGidAgEDHAsdHL3+kWNMxquYIECBAoDcBhZreaDVMgMDUBBzyNLWMiocAgTkJxGzIuFrfnGIWKwECBAjkKeBkwnnmTa8JEBhD4O7nnywWZtOMQW+dBAgQ6EbAyYW7cdQKAQIECPQpYEZNn7raJkBgOgIOeZpOLkVCgMCMBZxceMbJFzoBAgSyEVCoySZVOkqAwFgCq6nyB7fGWr/1EiBAgECXAk4u3KWmtggQIECgewGHPnVvqkUCBKYm4JCnqWVUPAQIEFhcO/nh0b03XzuZGsW2kyYfH129uinWGw/v39/0+PHN1z/e9LjHCBAgQKB/AYWa/o2tgQCBjAVigzeuFpJxCLpOgAABAhsF8jpfTVGAuSi4PPXqRVh9nz9taXX28+j9Yp1FgUdBpxBxS4AAge4EFGq6s9QSAQJTFDCbZopZFRMBAgTOBU7vLK4/dzsVjjjU9pnTn37tcjGm7yJMF9FfLuREEUcBpwtXbRAgMFcBhZq5Zl7cBAjsFzg7gbBz0+yHsgQBAgTyFbjx8MOXxigqXC7KFLNjcijK1Ml1FHBWs3AUb+q4WZYAgbkLKNTMfQSInwCBjQKxAX3v8OsPNz7pQQIECBCYkMAwh0A9WZiZWlGm6pBYFW8Ubqp6WY4AgTkKKNTMMetiJkBgv4DZNPuNLEGAAIHJCPRzCNTqPGdxEt+YMTPXwsy+QbIq3Fw7+fSdKZ7ceV/0nidAgMAmAYWaTSoeI0Bg1gJm08w6/YInQGCmAl1cBWr1/fH8GwozTQeR2TZN5byOAIFpCSjUTCufoiFAoAsBs2m6UNQGAQIEMhNodgiU4kyfaT694xCpPn21TYBAqgIKNalmRr8IEBhFwGyaUditlAABAokIVDsESnFmjHQp2oyhbp0ECIwjoFAzjru1EiCQoMDFhrcrPSWYHl0iQIDAIAK7DoG6OOeM74lBkrFxJc5ps5HFgwQITEpAoWZS6RQMAQJtBMymaaPntQQIEJiKwOVZNRdFfCcETi/DZtmklxM9IkCgCwGFmi4UtUGAwDQEnJtmGnkUBQECBFoK3Hj44UvRxPFRXLHJ7JmWnAO83CybAZCtggCBAQUUagbEtioCBNIVMJsm3dzoGQECBAgQqC5weselvqtrWZIAgTQFFGrSzIteESAwtIDZNEOLWx8BAgQIEOhRQMGmR1xNEyDQs4BCTc/AmidAIBOBu59/slicXsmkt7pJgAABAgQIVBJQsKnEZCECBJISeCqp3ugMAQIERhCIq3go0owAb5UECBAgQKB3gYNb9w6//nCxnDkbhzn3vjorIECAQAcCZtR0gKgJAgQyFzCbJvME6j4BAgQIEKgqYIZNVSnLESAwnoBCzXj21kyAQAICTiKcQBJ0gQABAgQIDC6gYDM4uRUSIFBZQKGmMpUFCRCYpICTCE8yrYIiQIAAAQLVBE7vLK4/d7vaspYiQIDAMALOUTOMs7UQIJCswMGtZLumYwQIECBAgEDPAsvtgOUh0Kvz1fW8Ks0TIECgooBCTUUoixEgMD0BG2XTy6mICBAgQIBAfYHTK8dHL3/khMP15byCAIF+BBz61I+rVgkQyEHASYRzyJI+EiBAgACBgQUcDjUwuNURILAmYEbNGohfCRCYh8DqEp2nV+YRrSgJECBAgACB6gKrw6Fczru6mCUJEOhWwIyabj21RoBALgJOIpxLpvSTAAECBAiMKGB2zYj4Vk1gtgJm1Mw29QInMHeBp16du4D4CRAgQIAAgX0CZtfsE/I8AQLdCyjUdG+qRQIEEhdw2FPiCdI9AgQIECCQlMDplXuHX3/oIgRJJUVnCExawKFPk06v4AgQ2CjgsKeNLB4kQIAAAQIE9gkcPLh28oNv3XvztZN9S3qeAAECTQXMqGkq53UECGQs4LCnjJOn6wQIECBAYESBmF3zje+ZXTNiCqyawAwEzKiZQZKFSIDAmsDdPzlde8SvBAgQIECAAIGaAk40XBPM4gQIVBQwo6YilMUIEJiGgL+ATSOPoiBAgAABAuMLxImGP7vtMt7jZ0IPCExNQKFmahkVDwECOwWOj65e3bmAJwkQIECAAAEClQUObsWhUIo1lcEsSIBABQGFmgpIFiFAYEoCzk8zpWyKhQABAgQIjC/gqlDj50APCExLQKFmWvkUDQECOwRclnsHjqcIECBAgACBVgLHRy9/FIdCtWrEiwkQILAUUKgxDAgQmI3AvcPn35hNsAIlQIAAAQIERhBYnbdmhBVbJQECExJQqJlQMoVCgAABAgQIECBAgMDYAoo1Y2fA+gnkLqBQk3sG9Z8AgRoCzk9TA8uiBAgQIECAQGOBKNZ8/omTDDcG9EICsxZQqJl1+gVPYD4Czk8zn1yLlAABAgQIpCEQJxl2Rag0cqEXBPISUKjJK196S4BAQ4FnTn/6tYYv9TICBAgQIECAQEOBVbHmxlvvvtiwAS8jQGCGAgo1M0y6kAnMUeD46OrVOcYtZgIECBAgQGBsgdMrcUUoxZqx82D9BPIRUKjJJ1d6SoBAKwHnp2nF58UECBAgQIBAKwHFmlZ8XkxgVgIKNbNKt2AJECBAgAABAgQIEBhLQLFmLHnrJZCXgEJNXvnSWwIEGgg4kXADNC8hQIAAAQIEehFQrOmFVaMEJiWgUDOpdAqGAIFNAk4kvEnFYwQIECBAgMBYAoo1Y8lbL4E8BBRq8siTXhIg0ELAiYRb4HkpAQIECBAg0ItAFGtWs357aV6jBAhkLKBQk3HydJ0AAQIECBAgQIAAgXwF7h1+43uKNfnmT88J9CWgUNOXrHYJEEhIwBWfEkqGrhAgQIAAAQKPBU6vKNY8xnCHAIFzAYUaQ4EAAQIECBAgQIAAAQKjCayKNaOt3ooJEEhOQKEmuZToEAEC3QucXum+TS0SIECAAAECBLoSWG6r3P3sdletaYcAgbwFFGryzp/eEyCwR8Bx33uAPE2AAAECBAgkInBwS7EmkVToBoGRBRRqRk6A1RMg0K+AS3P366t1AgQIECBAoEsBxZouNbVFIFcBhZpcM6ffBAhUEnBp7kpMFiJAgAABAgSSETi4deOtd19Mpjs6QoDA4AIKNYOTWyEBAgQIECBAgAABAgS2CxwfvfyRw7e3+3iGwNQFFGqmnmHxESBAgAABAgQIECCQnUBctju7TuswAQKdCCjUdMKoEQIECBAgQIAAAQIECHQp4EpQXWpqi0BOAgo1OWVLXwkQaCDw1KsNXuQlBAgQIECAAIEEBJxcOIEk6AKBwQUUagYnt0ICBAgQIECAAAECBAhUFXBy4apSliMwFQGFmqlkUhwECBAgQIAAAQIECExS4PjolbcmGZigCBDYKKBQs5HFgwQITEdgeXy3HwIECBAgQIBA1gLOV5N1+nSeQE0BhZqaYBYnQIAAAQIECBAgQIDA8AIOgRre3BoJjCOgUDOOu7USIECAAAECBAgQIECglsDx0csfXXv7vcNaL7IwAQLZCSjUZJcyHSZAgAABAgQIECBAYK4C9w6/8b25xi5uAnMRUKiZS6bFSYAAAQIECBAgQIDABAROr9x4690XJxCIEAgQ2CKgULMFxsMECBAgQIAAAQIECBBIUcAhUClmRZ8IdCegUNOdpZYIECBAgAABAgQIECAwiIBDoAZhthICowgo1IzCbqUECBAgQIAAAQIECBBoI+AQqDZ6XksgZQGFmpSzo28ECBAgQIAAAQIECBDYInB89MpbrgK1BcfDBDIWUKjJOHm6ToAAAQIECBAgQIDAnAVOr9w7fP6NOQuIncAUBRRqpphVMREgQIAAAQIECBAgMBOBg1tm1cwk1cKcjYBCzWxSLVACBAgQIECAAAECBKYo4MTCU8yqmOYsoFAz5+yLnQABAgQIECBAgACBCQg4sfAEkigEAo8FFGoeU7hDgMA0BQ4eTDMuUREgQIAAAQIELgSOj17+6OI39wgQyFlAoSbn7Ok7AQIECBAgQIAAAQIECoG7n90u7rolQCBfAYWafHOn5wQIECBAgAABAgQIECgJOLFwCcNdAtkKKNRkmzodJ0CAAAECBAgQIECAwGUBl+u+7OE3AjkKKNTkmDV9JkCghsCj92ssbFECBAgQIECAQOYCZtVknkDdJ7BQqDEICBAgQIAAAQIECBAgMCEBs2omlEyhzFJAoWaWaRc0AQIECBAgQIAAAQLTFTCrZrq5FdkcBBRq5pBlMRKYscCNh/fvzzh8oRMgQIAAAQIzFTCrZqaJF/YkBBRqJpFGQRAgQIAAAQIECBAgQKAsYFZNWcN9AjkJHOTUWX0lQIBAI4G7f3La6HVeRIAAAQIECBDIWuD0zuL6c7ezDkHnCcxQwIyaGSZdyAQIECBAgAABAgQIzEHArJo5ZFmM0xNQqJleTkVEgMATAgcPnnjIAwQIECBAgACBGQg4V80MkizEyQko1EwupQIiQOBJgUfvP/mYRwgQIECAAAECcxB46tU5RClGAlMSUKiZUjbFQoAAAQIECBAgQIAAgUsCp1duvPXui5ce8gsBAkkLKNQknR6dI0CgCwGX6O5CURsECBAgQIBArgLHR6+8lWvf9ZvAHAUUauaYdTETmJnAlwdf+dHMQhYuAQIECBAgQKAkcHrl2tvvHZYecJcAgYQFXJ474eToGgECHQq4RHeHmJoiQIAAAQIE8hNwqe78cqbHcxUwo2aumRc3gdkJuPLT7FIuYAIECBAgQKAkcHCr9Iu7BAgkLKBQk3BydI0AgS4FXPmpS01tESBAgAABAhkK3P3sdoa91mUCsxNQqJldygVMYJ4CTig8z7yLmgABAgQIECgLuFR3WcN9AqkKKNSkmhn9IkCgUwEnFO6UU2MECBAgQIBAlgJOKpxl2nR6dgJOJjy7lAuYwIwF7n7+yWJxemXGAkInQIAAAQIEZi/gpMKzHwIAkhcwoyb5FOkgAQIECBAgQIAAAQIEuhJw+FNXktoh0JeAQk1fstolQCBBAScUTjApukSAAAECBAgMKnB65cZb77446CqtjACBWgIKNbW4LEyAQM4CTiicc/b0nQABAgQIEOhK4Pjo6tWu2tIOAQLdCzhHTfemWiRAIGUB56lJOTv6RoBAxwJ/76//H6fR5N//1b9ysq3pP/jxXxzGc//+v/1v24XbkDxOYHICBw8W1599YXJhCYjARAR8IU8kkcIgQKCigEJNRSiLtRUodpCLdjbtKBc7yLGMneRCym1bgX/1d/7aw9/46jOP/s9fePqrddv6L//zZ1/84RdfPhVj05isq2d5AnkJXDv54dG9N1/bWsTNKxq9JTAtAYWaaeVTNAQI7BO4+9ntxeLg1r7FPE+grcAf/+avfFFnR/nXv39yase4rfp8Xx+FwX/9wi/+9zpjbp+WMblPyPMEchdw9afcM6j/0xVwjprp5lZkBAhsELh28uk7Gx72EAECBLIViKLgH33z8KDLIk1gKBxmOyR0nEBFAVd/qghlMQKDCyjUDE5uhQQIjCmwmuK7PC7bDwECBDIXiFk0p7/17KLrAk2wvPOf/9fDzHl0nwCBvQKnV669/d7ZOar2LmoBAgQGFVCoGZTbyggQSEPAZbrTyINeECDQVCDOQxOzaJq+ft/ryudP2res5wkQyFfg3uHzb+Tbez0nMF0BhZrp5lZkBAhsEXD40xYYD3cq0Mcsh047qLFsBaJI88bf+vmjPgNw2FOfutomQIAAAQK7BRRqdvt4lgCBCQo4/GmCSRUSgZkIDFGkcdjTTAaTMAmcCbjAgoFAIEUBhZoUs6JPBAgMIODwpwGQrYIAgQ4F4pw0fc+kie467KnDpGmKQAYCN95698UMuqmLBGYloFAzq3QLlgCBQsDhT4WEWwIEchGIy2/33df/8j9/9oXDnvpW1j6BtASOj65eTatHekOAgEKNMUCAwCwFHP40y7QLmkC2AnHIU1fnPYpizDaIP/ziS9uG23A8TmCyAi7TPdnUCixbgaez7bmOEyBAoLVAHP50cKV1MxogQIBAzwJtDnmKc87E4UylmTJfLbobh1PF/b//q3/l5De++syjf/wf/sfj54pl3BIgMHWBU9tCU0+x+LIT8FeT7FKmwwQIdCXg8KeuJLVDgECfAjGbpkn7MXPm4Pc+XyyLL0elIs2lpuLx+BfL/Nrv/6kizSUdvxCYj8C1t987nE+0IiWQvoBCTfo50kMCBHoSWB3+dHqnp+Y1S4AAgU4EmsymiVk0Ci+d8GuEwCwE7h0+/8YsAhUkgUwEFGoySZRuEiDQj8CNh/fv99OyVgkQINBeoDg0qU5LMZMmZsjUeY1lCRAgQIAAgXQEFGrSyYWeECAwgsDxzdc/Xp6n5sEIq7ZKAgQI7BVocqUnM2n2slqAAIEnBJxQ+AkSDxAYUUChZkR8qyZAIBWBOKmwHwIECKQnUPdKT3HIU3pR6BEBAukLOKFw+jnSwzkJKNTMKdtiJUBgo4DDnzayeJAAgZEFmhz25JCnkZNm9QQyFrjx1rsvZtx9XScwKQGFmkmlUzAECNQROLvCwd3PPzk+evmjOq+zLAECBIYQiEtm11lPnJumzvKWJUCAQFng+Ojq1fLv7hMgMJ7A0+Ot2poJECAwosDdz27fWxzcWixOR+yEVRMgQGC7wG989ZlH25998pk//OJLf4B7ksUjBAgQIEAgOwFf6NmlTIcJEGgjcDatdzmLZnkC4WWRxg8BAgTSFah7fpo/+PFfHKYbjZ4RIJC+gBMKp58jPZyLgBk1c8m0OAkQWCyWs2iOzaIxEggQyEDg/Pw0B3W6+u//2/+utXydti1LgAABAgQIDCdgRs1w1tZEgMBIAsW5aMyiGSkBVkuAQG0B56epTeYFBAi0FnDlp9aEGiDQkYBCTUeQmiFAIE2BONTp3uHXl5ertfGRZob0isBwAjFLpfxvuDXXX5Pz09Q38woCBNoLuPJTe0MtEOhCwKFPXShqgwCBNAUeH+qUZvf67lVxad/4y3zs9FU530Vx1ZjipKRxzotUDqeIeIpZBuWd2G1xFbGEc4rx9J3/qu0XrvtMC8+wTGlcbIpzPabSGNl6aFBq8ZX6vCnEJB8r3KNzxXjaFEfZOpZNfTxFH+v8hEOxfPGZVZw/aMjP0yIfu3JR9DNuN+UlHh+yz7G++Cn6Hvd39X9Tn8fob/TTDwECBLoU2LrB0uVKtEWAAIEhBeJQp3uH3/jeXGfRxAbuv37hF//7ph2kpnmIjeGhd9CLOKLPXcYS7UU8v/3Jn/1ynxv0p7/1bKyq8s+vf//ktM/+lDvyr/7OX3sYOz9tXYtx8Y//w/84Krc/xv1ix+6Nv/XznfWliK/LQkJ5XO9yqpub6Ouu9jY918V7oIinbn839WeI92V5vX/8m79S2WyfVd33VF+x1u1H2WPX/T7eC+vr6/I93Jfvep+n+fvpncX1525PMzZREchHQKEmn1zpKQECFQRiyu7x0csfVVh0covEBnqXO6nbgPrcAO5rJ2NbLPH4O//5fz3so9CQWqGmy52gTZ59jotN6yse67JQULS56bbYUW07VoZ6n26KYf2xNsXBvuPo631ZGMS4+aNvHlbeDo78/9rv/+lXi9fHbVdjr00euuxHObZ999v2udx+32Opy76W+z3d+wo1082tyHISqPwFlVNQ+kqAwEwFloc6zfGEwV3tLDQZNV3sTI3Z/3LMXcRSbi+lQk3MHOhixkM5vm33u3bctp54fMi4yv1oU5Qaq8/l/hf3D37v8+Ju5du+d6rXO9LXeGpbqOkyj03yEE5jf3Y27XeR4yHHUpv3bNHf+dwePFhcf/aF+cQrUgJpCjiZcJp50SsCBOoKzLRIExu68VfhoXbC19MSM3hihyV2GNaf2/d7vCZeO2b/y30sYik/lvv9GB9RMBpyfBSOTcZEVe9oe+i4yn0Lzxi3MX7Lj1e5P2QudvUndlx3Pb/+XPF+HWLWXnndQ4yn8vr23e967EUhat86Nz0/9md/3fFTjmGMsVS8Z8Ot3Bf3CRAgkKqAQk2qmdEvAgSqC8y4SDP0TtOmpBQbwHV3WlMp0JRjiliaFp7K7aRwP+IYa3wUYyJ2yLq2iDZj7HTdbpP2ivHS5LU5vaYwj3jH6HcxnsbcyY5zdBXFkS4NipMMV21zjCLHpr4VJ2jf9Nyux8YeS/GZOOY42mWTznOukplOLvRkzgIKNXPOvtgJZC4QJw1e3P38kzke7hQbmmPthHcxbGJjvYt2+mgjdgrjZMx9tD1Um1GkGWunuhxjFFS6zHWxk1dex9j36zh3adE27qo72imZj7mTHevu4zO3zgnEi1zUGXNtx8m21zc5V1Mfha5t/dv1+JjjaFe/PEeAAIGygEJNWcN9AgSyEZjzlZ1iY72PHYa2yY+rolRto87OSdU2u1wudoTqzhDqcv1t2kqlSFPE0GWxJsUCWp1DQIpLNRc2Y95WmcmRyo512WlKO9l1xk5RpClbjHW/Tr+LPqb2x4UpjaPCuMvbsz+EddmgtggQqC2gUFObzAsIEBhbYM5FmrBP5bCP9XFQt/jS9NwM6+vt6/co1sTORV/t99FuakWaIsYuijWRixRmEhQxFbdVZ6YUy+dym2pBOPymspNdtbidUpEm/Kv2O5aNn9SKNKteTWccFfF0efvM6U+/1mV72iJAoL6AQk19M68gQGBEgbkXaVItHDT5C2uVv+iPONTOVp3izKVtJqkWaYr+tp0Nk2ou6hwC8htffeZR4TH27a7CamqFgU1WMR6in5uey+WxXTkox5Bacb5qvyOGlAt+0b8pjKOIww8BAtMTeHp6IYmIAIGpCsy9SBN5bbqzGoWU4q+g6xvZxc5OcVhG7EzWnblQtF1n7EU/ol911xXrKApDu2YzNIljU/+jOFZnZ3xTG30/1sVskzANz6KAVoyT8vhoOv4i/mKGUhPL8wLlURPHmLkVMRXxlNsox9ZkvJyPw8on2G0y1sv97er+vn53URhYf49GDorPmIijifd6/NHPtpeIXm9zqN/PZxTuHdPnh2BWHmP7+l+8zzctFzmJx3eN06r9LtrvaiwV3zHF+7jte7foX9xGEfnXfv9POzMut+0+AQIEmgokcdWEpp33OgIE5iOgSNN8+vivf//ktNi4rTNiYkM4dqyq7Jw33VmKHfB97Rc7Ftt2tvfFFHHEhviunY9dbcT6m2zEx+Wj6/w0zVOso+66yv3aVcgoL1fcr5KzYtlNt03GSpP4Iq4mRaFi3FcpJNRdR9H2JpfisSrrLZaN2+L9UX5s1/1976O2+a0zngqPfZ8Bu+Jp+v6MdXdRRNjWt+jXpufic6hqn9vmItZfjI99eV/va/jEY/EdUB6TdT6n2szyi35Hcabqd1f0t83nfN338rrX9H4/vbO4/tzt6cUlIgL5CCjU5JMrPSUwWwFFmlXqm2z01tmo3jXAdu1Qtd3A3bQTXuxcNNnR3hZHmw35Jo6b4trWt3i8yTridW125pquM9bbZDzG6+qOl8hb3R3qNnFFH8s/4VveUS0/16ToVH79pvt1XbuMtYl1EUPdHevidcVt3biL18VtE4M2sZbXXdwvPrPqFkSK12+6rfsZst5GE5f1Nsq/h1mdwknd922xrrqfEcXr4rbN52Ef7+dy3/K6r1CTV770dooCzlEzxayKicDEBO4dfuN7yzkDVyYWVu1w6s4I6XIjPTbOo2gSG7KxER07JUUAbYsp0V7RVtyPfscMlrbtFm0WtxFDtFvue/HcvtvyIRv7lh3y+dhxajoboe34CMty7qrGXbe/de0jv1V3Jqv0OcZhxBpe5bHTJPYq66v7Pq/SZtVlmp5HKFzCqI170/EUsTXtd1WXfcvFWIj+x1hpY1BeTxQcyr/XuR/5iM/qrvpSrLtOe01zEu+zNp/98dpoo+hzndv4PK2zvGUJECDQp4BCTZ+62iZAoL3A3c9uK9KsTshYB7PrndXyuss7rk03iMvtxV+gY0cndiy63NEpr6N8P3aoyr9XuR8zKqosN/QydYsYRf8ib3V2uorXrd9GvsrFi/Xnt/1eZye0rn1xLott6276eHjF2CmKlRF707a2va7JjmIXeYz+xLqbFImKIs22mOo83nQ8Rb+b2NXp27Zl2xYWtrVbt6BZtFMUjYrfx7htOpai712M52gj2qobe9PiUt31WJ4AAQJVBBRqqihZhgCBcQTOijQHt8ZZed5r3XWS3a4ii43hrjaq+9jp3RVn3Y34Jjuwu9bf1XNNdua62hkqYui78FXXvosxWcS27Xbo8bqtH02KZNvaalr067ow1mQ8RUxj7GR3VfBcz0mdQmb5tTEeUhibTXLRdd+bFP3qftaU7d0nQIBA1wIKNV2Lao8AgW4EFGkuOTbdibrUiF8eC8Qsnse/ZHqnyc5c1ztDBd1UCl9FPGPd1n2fd1mQTaHoV7jXHU/xuqF3svsq0kQsTXIRr2ta5IrXdvnTJBd99L1Jm00+V7u00xYBAgQKAYWaQsItAQLJCNx4690XFwszadokpO7hIm3WleNrm8y6GOvQim2+TXLc9eyHom9N/oqfmmcRy5i3TXLaRX+b5qJJ3qv0t8lsiGh3qJ3srmellU2a5iIKR+V2xrrfJAdNCnNV46s762ys92DVeCxHgMB8BBRq5pNrkRLIQiCu8HR89PJHWXQ24U7GXzSbbvAnHFanXau7Ad/pyjtorO5frSPeJgWqql2t69nk8IgqfWmyo1il3SGWqZvTrmaG1Z3JExZ97lxH+01mCw21k91XgSribvK+6Pu9Hf2q+tMkB12N4019rFucrvse3LROjxEgQKALAYWaLhS1QYBAJwIXl+HupLnZNxKXRlWsmeYwaFKMaLLjW0ev7/ar9iUOG5nLuO+q8NbkUJs+d64j102KIUPsZPddoGoSQ91iRNX3UpPl6va/7yJTV++RJhZeQ4AAgTYCCjVt9LyWAIFOBe4dPv+GKzxtJm26U6RYs9mzyaNNZh00WU+V16T2V+voc90xWnWHru5MnehLjPsmxax47Vg/YxWXmq53iB3gJrlvGk/VvNcd51XbjeWa9n2IXFSJo0n/hyjw1h1HTeKo4mMZAgQI1BFQqKmjZVkCBPoTcPLgnbZtNsRjp/WPf/NXvpj6xmfEV/zbiTmBJ6sWOcqhthlD5Xa23e+r/aY7cjFL5PS3nh3svCXbXKo+XrcQWHfns2o/qiw31Lqb5L6uY5V4y8v0Nc5jHU363vcMn3Ls++436X+fha99/d32fJM4trXlcQIECDQVeLrpC72OAAECXQnEyYOPnTx4L2fsHDXZQY+G43XLgs0i2ohp8n3ubOwNpOECUYQpNqBjRskGi4NtTZd3LJvs/G1rN5fHz+P/at/9rTtGI6f7xmLsyC2LLo27HgWbeH3s0EZb+9bXeEUDv7CrcXz+njqq0/2u1r1vnU1y32S22b5+FM/3/T5q0veUCh1N+j/E+zHG6xu/0PwzpMi/WwIECAwpoFAzpLZ1ESCwUeD46JW3loc8bXzOgxcCXWxsFgWbaDV2OlIv2sSOfJxc87woE4WYWjuUhV65qJP7BnuYLOPaWpQqYi7fxtg5f1354Szud7UjVxRsYtyHR5NzoPQJVncnt6sd9LrrDYOu1r3Ps6vc71tP1edj3FRdtsly5c+pqq9PyahJ/1P8XGrynqiaL8sRIECgqoBCTVUpyxEg0I/A2SFPp1f6aXxarcaOZZuZBesasVEds2ziJ7WiTZxfJHasl12LgkTvM0HCIJefJjMgiiLFADHWylXEstzR3Ft8i9kw5+OhdQgx7qNYF++lomgThYexd3ib7OS2xphgA306DlWgqpqWGL/LZWu956q2PdRycWjuAOva+xkzQB+sggABArUEev3LQK2eWJgAgdkJxCFPy/3wW7MLvEXAfZ2P4LxocxDn9BjzfDZRoIk+dLVT3oLaSxMS6Gv2y1nRZlkQLM7jNNYJiJvMKuiqsNSksNHVuqsMsfNiRJVFs16myRhIKeDc+5+Spb4QIEAgBBRqjAMCBEYRiEtxrw55GmX12a40dlj73nEpF21ix3WIDfBYRxSIFGiyHZq9d/zXv3/S6/GRRdFm7GJlFci+PwOq9MEy4wv0fSjW+BHqAQECBOYroFAz39yLnMCoAi7F3Zz/137/Tweb6h6Fk2K2QV8Fm2g31tHkL/vNFfN95VzPnxCzOPqaUbY+GtaLlevPd/17cZLsrtvto70cikR9fVYNOZOoj9xpkwABAgTyEVCoySdXekpgMgIOeWqfyphdMOQOU7Hj2vVhUUWRpr2IFuYgEDPKhirWFJ5RrOz7Mt91i29dzaToq6BR2HVx21WsXfQltTZSOmdOTsXG1PKYYn9uPLx/P8V+6ROBOQko1Mwp22IlkIiAQ57aJyL+shsza4Ys1kSvywWbtlEo0rQVzP/1TXY0o1jT92FQm2SjYNN1oXLTeqo81sStSruWIUCAAAECBNIQUKhJIw96QWA+Aq7y1Gmuo1gz9AyDCCAKNm12WhVpOh0Gs2ssCpVDzyorxn0cptf1SYfj/VQniQ7BqaOVx7JmpKSTJ7O40smFnhCYs4DLc885+2InMLBAnED4nqs8da4eMwyW/xax8zjkyXjPZ9csYoe57o7jv37hF//7EqLWzuk2uJhVtGvDunxYSd0d4m3r9Pj4AsWssij6xXgaMrfn77OH8d5rK3F++NEQlyhu21Wv71EgZkktx1WPa9A0AQIECOQkoFCTU7b0lUDGAmdFmsPn38g4hOS7Xi7YRHFiqB3XmGFQp1gTBaU2fSsKM7Fjc14gql3wGWPnPvkBNEIH6xb4NnVxrIJNV8Wa85kUlQs+54c71h7z2+w2PZ7SY+VCa0r9SqEvMXaW47/y2OmzzwpNfeoO3/bxzdc/Hn6t1kiAQFlAoaas4T4BAr0JPHP6068tzKbpzbfccPFX/ihGxIb8ELNsYkZD1atRNe1P7KD+9id/9svLHZPWO6ldFAjK5qnfH+OcLvtMus5BtFeMwSgGDlGsjLG83EGtPaNsn82u53fNHtv1ujk91/XYmpPdkLEWn+lDrrPKupbjJ4niV5W+WoYAgekKKNRMN7ciI5CUwOoEwqdJ9WnqnYmdldjgjMOiiqJNXzuvMUMmdo6LItE226aHecR5eJZtty7QbOtXTo/Hjvobv1D/EIk57byWx2HfRZs6RcpN4yy3GSNtZsNtit9j8xaY0+dSPpk+eJBPX/WUwHQFnEx4urkVGYFkBFaX4z69kkyHZtiR2BiOndeYcRCzK6LwcX4IRWcaVWbKnJ+bptY6z4s0/sJZS+3ywnM+UWkx7g9+7/Oz8yl1ffLtokh5Wbz6b3ULH3GISfXW9y/Z9efA/jXWW6KuT73W01m6ScEipSJfk/6no68nBAgQSE9AoSa9nOgRgckJuBx3WiktF21i57XLok3MXtgVbZOdrvLsiF1tz+W5rnfU5+IWcRZjv+uizZA7zCnsEJ/PjEty6KReeOoSrcnnaZfrb9tW7v1vG7/XEyBAYJeAQs0uHc8RINBewOW42xv23EJ5xkHb2Qa7dlib7Ny17U/PdNk0vysv2QTRcUfXizZtdvBjh7PJ+G7ymo4ZFk3OeTPUDK0UfLr23tVekzGYklHu/d+Vm3k99+j9ecUrWgJpCijUpJkXvSIwIYGnXp1QMJMPJYo2MdugyQZ34HT9F1KzaZ4cck1mVHSdlyd7lfcjYRqHBbYpDDYpXtR9TdP35a7sNJmhNVThr65PxNmk8LTLZ8jnmvS9idGQMVkXAQIECDQTUKhp5uZVBAhUETCbpopSkssU57Jp0rltf+Gtu0PRx05pk3hSfE0Tm215STG+sfrUtlBZt991Cx5NduTr9qnK8kMV/ur6RN+bFJ6qxDzEMk363sSor1iajM+63wt99V27FwI3Ht6/f/GbewQIjCWgUDOWvPUSmIWA2TQ5pzlmGbSZYZBz7Kn33Q5RvxmKy8DXXcMQO8xNduT3xdFkhla0OUThr0lBqGk8+5yGeL5J38NoiFxUib/J+KxyEvoq67ZMdwJfHnzlR921piUCBJoKKNQ0lfM6AgR2CrjS006ebJ506FGaqbJD1G9ehipSNilE9BF5kxlaTa7gVqfv+05MvqmtJnFsamfMx5rE0Hcuqno0KTRF26kUmqrGOfXl7r352snUYxQfgRwEFGpyyJI+EshQwJWeMkzali432XHY0pSHOxJoukPUZOe3oy5n10yTYlidIJvsnDbN+75+NZlB1HeRqckMpSYzzfbZDP18kxhSmlXTZBbmH33z8GBoZ+vbJnDwYNszHidAYFgBhZphva2NwCwErr393uFicXplFsEOHGSTnbu2XWyy49B2nfH6vncEu+jjmG002SGKwwzGGENtnXLsc9uY11/fZ8G0aQGor8Jf5LvJ+38KMwCbxpBKsaNpgbOvsbT+PvL7PgFXfNon5HkCQwko1AwlbT0EZiRw7/D5N2YU7mChxs5LbIyf/taziyE3apv8ZXsTSpMNeDvomyRXjzXxjFemskO3PbInnynG/R//5q98MZUxkdpJVFMq/DUZo30Wsp4ckf0+0jSWeH/027P9rUfRr0n/cy0i7xexBAECBJoJKNQ0c/MqAgR2Chzc2vm0JxsJlM9DEBu1Q+201v3LdtO/zm9CabLDtqmdKT7WdIcoLIYaO124lwszMRZjTAxRqCy/36rEUXfmWd0CaN32q/S5vEzTwl9dp/I6N91vWmxocvjWpvWn8FjTWOL90dSvy7ibjtV4b5ff7132SVvVBFzxqZqTpQgMIaBQM4SydRCYk8DZJbnnFPBwsa4XTIqd1j53uutu9O/6S2rTAs4QO+XDZbHbNbXZoRtyp6hNDjcVAqJQGTPL+tqpi3bX32/7Mle30NF3+/v6u/5808JfxNEmv+V+RDt1XeL18bnT9POlvP5U7jfNRfQ//Pp8b1Qxanr4VrQ9VCE21hXv874+Q6L9HH9c8SnHrOnzVAUUaqaaWXERGE3AJbn7oN+1IxQb5rFx23XBpsnO6r6/pO4q5Gxzi53yXfFve90cHm+zQxc+fYybwj1yFmMydhrb5HDXjnvR/y7HR4z7aLeIo+pt34WCvtuPOJsW/ooZflWtNi0XYyXa2fTcvsea9ntfu2M+3zam4r3RVSEi2on3WdX3WpND6QrvYjx11fei3bgt4ojPpTBq8l4vtzet+wcPXPFpWhkVTd4CCjV550/vCSQl4CTC/aWjymES5YJNbEy32ciN1zfZgN03q6DpzkfXG+5tbPrLcrOWm5oWa+tq3BQ7QOXiTLnI0mQnvMpOYawj2o4dr7bFyoihybivu1Oa6viLYlDdWMrjKHJQJWfFa+I2lo/XlcdK+fl996c2m6aIt00uijbavLfX38/xvoj3WdX3ccyqaVKYX+97Maaavme2xVGsJ26btl1uw30CBAh0LVD7L0Zdd0B7BAhMSODssCfnp+k6o7ER2WTnsehHbCzHTJcoouz6q3ysJ05wWnVDvGi/uI31/Nrv/+lXi9+33caGd9ufKjGVN74jrqLY1XSHMHZg60zprxvnr3//5HRXfnaZxc5u07xta7e8k1WeKVU4Fq+r41k3xii81Gm/6FPclsdI/L7Nthj3EVfTddWNq26+qr63Is4uftq4F+tf9y8ej9vi/djUu9zWwe99Xv618v0mn6tN11W5UxsWrPs5sqGJjQ+V39/lBarkpOp4b2Jc7su2+0Xfy59LsWz5s6lKHEX7Q7+/ivWmd3t6Z3H9udvp9UuPCMxT4Ol5hi1qAgT6EYjDnk77aXrGrZ5fHabRIQHBFhusb/zCz8fhJ/sUo3jfeD1VZ3ZEwaNtUaFiTOU/RjSOax9aCs+fF5Bau5ZjKe/oxPjp4ifON1OlmFesq9yH4rGqtxXHSDTXatzHTt6yCLS3QFm135uWW98h3bRMl4/Fe3lZHG7V5B7/Tt6PUTBYdrL8Pm/V5xRfHDG2KdRvi6nNe6vq+ziKo330v+h7V59LRXvbrObyeJxI+HguwYqTQAYCDn3KIEm6SCAHgRtvvfviskhzJYe+5tbHtkWNIeI931mttMPUdkr8EPHkuI4cXOvsENU9hGasnFUtUJb7V/7Lf/nxVO4XO9ip9GdTP6Lgu22W1Kblc30sxVzUeR9H/5seTjdkznL5vOnT5Pjm6x/32b62CRCoJ6BQU8/L0gQIbBE4Prp6dctTHm4hUD58p0Uzvb+07s5q3eV7D6CHFRTT83toemuTMVtljPVu7dCGJ6ruEKVezIjQmhYL6uzoxnr2nfsplun6J+Ud7HCvcxhi1zZDt5disabOd1PkKvViTQ6fN/2Ou4MH/bavdQIE6goo1NQVszwBAlsEXO1pC0yrh1PeWSoCq3q+gmL5uE1xx6Pcv033x9hZ3tSPfY+lXqypukMUxbyUi07RtybFgjo7uEWu4/1S3B/yNsUd7LkVaYp8p/aZGYc/FX2rchtj6fxQtSqLD75M3eLp4B3sfYWP3u99FVZAgEAtAYWaWlwWJkBgk4CrPW1S6e6xYgM3xZ3WJkWaQia1HY+iX1O4jWJNqn/BrrpDFOMj1TjivRh9m8JY2RdD8fmzb7khno/Pm+jPEOtKcR3FZ2YK3wVV38dlx5T6X+5Xcb/qbL9i+SndxvlpphSPWAhMQUChZgpZFAOBkQXuHT7/xshdmPzqi53W2FFJYSM9wNsUaYqEFRvuxe9uuxModrBTGS/lyOrMKok44mo7qcQR/WhTpDk/OXiZY+f9FOIu3qdj9SXW28XnzU7oTJ4svgtSKMTWeR8XvCn1v+iT28XC+WmMAgLpCSjUpJcTPSKQoYDDnoZKWrGRO2bBJnaaYsc5+tJF3NFOtJfCjsemeCLe6FtX8W5aR1+PpTBeyrG12eGO4siY4z7iiPW3KdJEG1UP/Ypl42foKz6t1vrk/8VYGvp9GusL867ff12396RYv4+kUIitW3QsixQF2KHHU7kPxf3iMz76VDw2r1vnp5lXvkWbi0AnG9m5BKufBAj0JHD3T1yTuyfafc3GXzTjXAFNpqHva3v9+diYjfOG9L2DE9PPx7rSVcQYccfOcZyTpk2sf/ybv/JFnbwMMWNgyPFSjJ8w7cKzaK+4jXESRY86xsVr697GzmRXO3Gnv/VsrdUPMS5qdeh84b79uzTfFl/dXERBOcWfeF9H0WSoz83ITdvPx3XHMT73h/pOW481vd9P7yyuP3c7vX7pEYF5CyjUzDv/oifQWiAuy3189PJHrRvSQGuBYmO9653XPjbKqwTbVzzFuosCQvze9U5HtBk7HnFb/lmfTVHMluhj/eX1brrfp29hO0RcfcXR105c3eJAqoWaYkx16T/0Z836e3Tb+7OItatiXdFeH7dd5qPo3xTezxHLkHEUdjnc3nj44UsOfcohU/o4NwGFmrllXLwEuha4+9ntxeLgVtfNaq+9QHmDvWht1+yD2IiN5cYsHhT93HRbxBPPre9QbVq+eKwcTzzWZpZM0eYUb5v4FrbhMURRpor7pjh2jftoszz2+4wj+vZH3zyste2V6iyObbnY5L9p2WLshHc87325San9Y1XzUaypnJcUclK3/5viiMdSiKXoW1q3y8Oerj/7Qlp90hsCBEKg1sYCMgIECDwhcPfzTxaL0ytPPO4BAgQIELgkUPfwjiggtT0nzqUO+IUAAQKXBBz2dInDLwQSEnAy4YSSoSsE8hRQpMkzb3pNgMDQAnVmgkXfitkNQ/fT+ggQmIeAy3LPI8+izFNAoSbPvOk1gSQE4vw0SXREJwgQIJCBwL5DsNZDKA4LWn/c7wQIEOhCwLlpulDUBoF+BBRq+nHVKoFZCBwfXb06i0AFSYAAgZYCca6Nuk04r0ZdMcsTIFBdYHnYkx8CBJIVUKhJNjU6RiAHgadezaGX+kiAAIGxBeLyyXX6UJzguM5rLEuAAIGqAg57qiplOQLjCCjUjONurQQIECBAgMCMBOqen2ZGNEIlQGAEAYc9jYBulQRqCCjU1MCyKAEC6wJOJLwu4ncCBAhsEqh7fprf/uTPfnlTOx4jQIBAewGHPbU31AKBfgUUavr11TqByQo4kfBkUyswAgQ6FojLctdt0vlp6opZngCBqgIOe6oqZTkC4wko1Ixnb80EshZwIuGs06fzBAgMKFD3sCfnpxkwOVZFYHYCBw8c9jS7pAs4QwGFmgyTpssECBAgQIBAHgIxm8ZhT3nkSi8JzEPg0fvziFOUBPIWUKjJO396T2BEAVd8RNLhqwAAQABJREFUGhHfqgkQyETgjb/180d1u+qwp7pilidAoKrAtZNP36m6rOUIEBhPQKFmPHtrJkCAAAECBCYs8Me/+Stf1A3vnf/8v2qfz6buOixPgMBcBQ4e3HvztZO5Ri9uAjkJKNTklC19JZCUgCs+JZUOnSFAICmBJoc8RQB/8OO/OEwqEJ0hQGAyAjcefnBzMsEIhMDEBRRqJp5g4RHoQ+Da2+/ZkegDVpsECCQr8Pf++v9xWqVzsVzMpGlyyFOcRNhhT1WULUOAQH0BJxGub+YVBMYTeHq8VVszAQK5Cjxz+tOv5dp3/SZAgEBdgZgdUy68REHlD7/48ok/dsXVnc5PHPzVuuuI5X/7kz/75Sav8xoCBAjsF3AS4f1GliCQjoBCTTq50BMCBAgQIEAgQYFykSa6F8WYN37h5zvt6flsmkYFnk47ojECBCYpECcRvjfJyARFYJoCT/w1aJphiooAgS4Fjo+uXu2yPW0RIEAgVYGYTTNE337t9/9UkWYIaOsgMEuB0ztOIjzLxAs6YwGFmoyTp+sECBAgQIBAvwJxOFO/a1gsfv37J5XOf9N3P7RPgMA0BVySe5p5FdW0BRRqpp1f0REgQIAAAQINBeLEwOfnnGnYwv6XxeW4nUB4v5MlCBBoKmA2TVM5ryMwpoBCzZj61k0gW4GnXs226zpOgACBigJ//1f/yknFRRstFkWaf/wf/sdRoxd7EQECBCoI3Hh4/36FxSxCgEBiAgo1iSVEdwgQIECAAIE0BPo87EmRJo0c6wWBaQu4JPe08yu6KQso1Ew5u2IjQIAAAQIEGgv0ddhTnJPGTJrGafFCAgQqCtx4+MHNiotajACBxARcnjuxhOgOAQIECBAgML7A+dWeOj0sqTSL5mD8CPWAAIFpC5hNM+38im7qAgo1U8+w+AgQIECAAIHaAuczXh7G4U9tZ9aUCjSdFn5qB+UFBAjMRiBm0xzPJlqBEpiegL/oTC+nIiLQv8Ddzz9ZLE6v9L8iayBAgMD4AnH1p+LEwrsKN//lf/7si+jtH37x5VN/8OO/OIz7rugUCn4IEBhW4ODB4vqzLwy7TmsjQKBLATNqutTUFgECBAgQIDA5gSi2LP9VmQ3z1ckFLyACBLITuHbyg2/dy67XOkyAQFnAyYTLGu4TIECAAAECBAgQIEAgW4HTO/fefO0k2+7rOAECZwIKNQYCAQIECBAgQIAAAQIEJiBw7eTTdyYQhhAIzF5AoWb2QwAAAQIECBAgQIAAAQL5C5hNk38ORUBgJaBQYyQQIECAAAECBAgQIEAga4GDB2bTZJ1AnSdwSUCh5hKHXwgQIECAAAECBAgQIJCbwKP3nZsmt5zpL4HtAq76tN3GMwQIECBAgAABAgQIEEhcIC7H/TduJ95J3SNAoIaAGTU1sCxKgAABAgQIECBAgACBlATictwp9UdfCBBoL6BQ095QCwRmKPDo/RkGLWQCBAgQIECAQGICTiCcWEJ0h0AnAgo1nTBqhAABAgQIECBAgAABAkMKOIHwkNrWRWBIAYWaIbWtiwABAgQIECBAgAABAh0I3Hj4wU0nEO4AUhMEEhRQqEkwKbpEgAABAgQIECBAgACB7QKnd45vvv7x9uc9Q4BAzgIKNTlnT98JjCRw4+H9+yOt2moJECBAgAABAjMXcMjTzAeA8GcgoFAzgyQLkQABAgQIECBAgACBaQg45GkaeRQFgV0CB7ue9BwBAgS2Ctz9k9Otz3mCAAECBAgQIECgB4HTO4vrz93uoWFNEiCQkMDTCfVFVwgQIECAAAECBAgQIEBgo8DBg8X1v3F741MeJEBgUgIOfZpUOgVDYEiB5caCHwIECBAgQIAAgUEErp384FuDrMhKCBAYXUChZvQU6ACBXAUevZ9rz/WbAAECBAgQIJCXwOkdl+LOK2N6S6CNgEJNGz2vJUCAAAECBAgQIECAQK8CzkvTK6/GCSQooFCTYFJ0iUAOAi7RnUOW9JEAAQIECBDIW8CluPPOn94TaCagUNPMzasIzF7gy4Ov/Gj2CAAIECBAgAABAj0KxHlpHPLUI7CmCSQq4PLciSZGtwhkIeAS3VmkSScJECBAgACB/ARuPPzwpeObr3+cX8/1mACBtgJm1LQV9HoCsxZw5adZp1/wBAgQIECAQE8Cp3cUaXqi1SyBDAQUajJIki4SSFfAlZ/SzY2eESBAgAABAnkKOHlwnnnTawLdCSjUdGepJQKzE3BC4dmlXMAECBAgQIBArwLL2crXn7vd6yo0ToBA8gIKNcmnSAcJpCvghMLp5kbPCBAgQIAAgdwE4gpPP/hWbr3WXwIEuhdwMuHuTbVIYF4Cdz//ZLE4vTKvoEVLgAABAgQIEOhWwMmDu/XUGoGcBcyoyTl7+k6AAAECBAgQIECAQPYCijTZp1AABDoVUKjplFNjBOYo4ITCc8y6mAkQIECAAIFuBBRpunHUCoEpCSjUTCmbYiEwgsC1k0/fGWG1VkmAAAECBAgQmICAy3BPIIlCINC5gHPUdE6qQQIzFHCemhkmXcgECBAgQIBAOwGX4W7n59UEpitgRs10cysyAgMKOPxpQGyrIkCAAAECBLIXUKTJPoUCINCjgEJNj7iaJjAXgRsP79+fS6ziJECAAAECBAi0E1Ckaefn1QSmL+DQp+nnWIQEhhG4+yenw6zIWggQIECAAAECuQoo0uSaOf0mMKSAGTVDalsXgUkLLDc8/BAgQIAAAQIECGwRUKTZAuNhAgTWBBRq1kD8SoBAfYFrb7936PCn+m5eQYAAAQIECMxFQJFmLpkWJ4EuBBz61IWiNggQWAk4/MlIIECAAAECBAisCSjSrIH4lQCBPQJm1OwB8jQBAnUEHP5UR8uyBAgQIECAwLQFbjz88KXF9eduTztK0REg0LXA0103qD0CBAgQIECAAAECBAjMXeDayQ+Pjm++fjJ3B/ETIFBfwKFP9c28ggCBXQJ3P/9ksTi9smsRzxEgQIAAAQIEpitw8ODayQ++de/N1xRppptkkRHoVcChT73yapzAHAUevT/HqMVMgAABAgQIEFgsFGmMAgIE2guYUdPeUAsECJQE4gpQ9w6//rD0kLsECBAgQIAAgRkIOGnwDJIsRAKDCCjUDMJsJQRmJuDwp5klXLgECBAgQGDuAoo0cx8B4ifQpYBDn7rU1BYBAmcCNx5+cBMFAQIECBAgQGAOAq7sNIcsi5HAsAJm1AzrbW0E5iNw909O5xOsSAkQIECAAIH5CTgfzfxyLmICwwi4PPcwztZCYIYCyynAi4NbMwxcyAQIECBAgMDkBeJQp79x+97k4xQgAQJjCDj0aQx16yQwA4FrJ5++M4MwhUiAAAECBAjMTMChTjNLuHAJjCDg0KcR0K2SwGwE7n5226ya2WRboAQIECBAYOICDnWaeIKFRyAZAYWaZFKhIwSmJ+BS3dPLqYgIECBAgMA8BVzVaZ55FzWBcQQc+jSOu7USmIXAvTdfO1ks4lw1fggQIECAAAECOQrELJofHi2uP3c7x97rMwECeQqYUZNn3vSaQDYCZtVkkyodJUCAAAECBC4JmEVzicMvBAgMJmBGzWDUVkRgngJm1cwz76ImQIAAAQL5CphFk2/u9JzANAQUaqaRR1EQSFrAFaCSTo/OESBAgAABAucCqys6PfvC6g9NWAgQIDCOgEOfxnG3VgLzE3AFqPnlXMQECBAgQCAbgdM78YclBZpsEqajBCYtoFAz6fQKjkBiAnc//2R5cuErifVKdwgQIECAAIHZChw8uPHwg5vHN1//eLYEAidAIDkBhz4llxIdIjBdgdgQmm50IiNAgAABAgRyEigOc1KkySlr+kpgHgJm1Mwjz6IkkI6AWTXp5EJPCBAgQIDALAVczWmWaRc0gYwEzKjJKFm6SmAKAtdOfvCtKcQhBgIECBAgQCA3gTgPzQ+PFtefu51bz/WXAIF5CZhRM698i5ZAGgJOLJxGHvSCAAECBAjMQsCJgmeRZkESmJCAQs2EkikUAlkJOAQqq3TpLAECBAgQyE9AgSa/nOkxAQIh4NAn44AAgVEEnFh4FHYrJUCAAAECExc4eLC8wuTjQ5xcbnvi6RYegYkKmFEz0cQKi0AWAg6ByiJNOkmAAAECBNIXiALNo/edfyb9TOkhAQL7BRRq9htZggCBPgUcAtWnrrYJECBAgMDEBU7v3Hh4/75LbE88zcIjMDMBhz7NLOHCJZCagEOgUsuI/hAgQIAAgdQFLh/epEiTer70jwCBugJm1NQVszwBAt0LOASqe1MtEiBAgACBSQmsDm26dvLpO847M6nECoYAgQ0CCjUbUDxEgMAIAg6BGgHdKgkQIECAQOoCBw9i9q1ZM6nnSf8IEOhSQKGmS01tESDQWODa2+8d3jv8xveWV2q40rgRLyRAgAABAgQyF1jNnHHemczTqPsECLQSUKhpxefFBAh0KXDjrXdfPD56+aMu29QWAQIECBAgkLqA4kzqGdI/AgSGFVCoGdbb2ggQ2CfgfDX7hDxPgAABAgQyF7gozHx58JUfOedM5unUfQIEOhdQqOmcVIMECLQWUKxpTagBAgQIECCQjoDCTDq50BMCBHIQUKjJIUv6SGCOAk4uPMesi5kAAQIzFTg/Ye7R1asrgKdezfOcbVGQiZ9H78c5ZsyWWWn4nwABAnUFFGrqilmeAIFBBJxceBBmKyFAgACBBARuPPzwpU1XNYrvwmdOf/q140sFnOjwmCfevyjGRE+iIBO3m/ofj/shQIAAgfoCCjX1zbyCAIGBBFbFmq8/HGh1VkOAAAECBEYQOL2zuP7c7SYrLgo58dqLYk65pZiZU+fn0fvlpYsiTDymEFOWcZ8AAQL9CijU9OurdQIEWgq4ElRLQC8nQIAAgaQFrp388MjJdJNOkc4RIEBgcAGFmsHJrZAAgboCijV1xSxPgAABAnkINJ9Nk0d8ekmAAAECTQQUapqoeQ0BAoMLKNYMTm6FBAgQINCrwPJcL9effaHXVWicAAECBLIUeCrLXus0AQKzE1gdG7/8y6MfAgQIECAwAYFrJz/41gTCEAIBAgQI9CBgRk0PqJokQKBHgbuf3V4sDm71uAZNEyBAgACBngUc8tQzsOYJECCQtYBCTdbp03kCMxVQrJlp4oVNgACBKQg45GkKWRQDAQIE+hRw6FOfutomQKAfgeVlTG88/PClfhrXKgECBAgQ6E/AIU/92WqZAAECUxFQqJlKJsVBYGYCcc4axZqZJV24BAgQyFwgvrdcijvzJOo+AQIEBhBw6NMAyFZBgEB/Aq4G1Z+tlgkQIECgSwHnpelSU1sECBCYsoBCzZSzKzYCMxG49vZ7h/cOv/G9xeL0ykxCFiYBAgQIZCXgvDRZpUtnCRAgMLKAQ59GToDVEyDQXiCmka+O+V9uCPshQIAAAQJJCRw8cF6apBKiMwQIEEhewIya5FOkgwQI1BJwRahaXBYmQIAAgX4F4rw0cV61fteidQIECBCYkoBCzZSyKRYCBFYCijVGAgECBAgkIeC8NEmkQScIECCQmYBDnzJLmO4SIFBB4PHlux0KVUHLIgQIECDQi4AiTS+sGiVAgMAMBMyomUGShUhgrgJOMjzXzIubAAECYwso0oydAesnQIBAzgIKNTlnT98JEKgm4FCoak6WIkCAAIEOBBRpOkDUBAECBGYt4NCnWadf8ARmIrA8FOrayQ+PFguHQs0k48IkQIDASAJxhadP3xlp5VZLgAABAhMRMKNmIokUBgECFQXMrqkIZTECBAgQqCewugz3vTdfO6n3OksTIECAAIHLAmbUXPbwGwECUxdwouGpZ1h8BAgQGEFAkWYEdKskQIDAZAXMqJlsagVGgMBeAbNr9hJZgAABAgT2CSjS7BPyPAECBAjUEzCjpp6XpQkQmJLA43PXLE/86IcAAQIECNQWUKSpTeYFBAgQILBXwIyavUQWIEBgDgI33nr3xeOjV95aLE6vzCFeMRIgQIBAWwFFmraCXk+AAAECmwUUaja7eJQAgbkKnB0O9dSrCjZzHQDiJkCAQBUBl+CuomQZAgQIEGgmoFDTzM2rCBCYuoDz10w9w+IjQIBAQwFFmoZwXkaAAAECFQWco6YilMUIEJiZwKXz1xw8mFn0wiVAgACBjQKKNBtZPEiAAAECnQqYUdMpp8YIEJisgEOiJptagREgQKCKwI2HH750fPP1j6ssaxkCBAgQINBGQKGmjZ7XEiAwOwEnHZ5dygVMgMDsBZw0ePZDAAABAgQGFlCoGRjc6ggQmIbAqmBz9epicXBrGhGJggABAgSeFDi9c+3k03fuvfnayZPPeYQAAQIECPQjoFDTj6tWCRCYk4DDouaUbbESIDAbAeejmU2qBUqAAIHEBJxMOLGE6A4BAhkKLE88vLj+7AvXTn54tLys953lLBsnH84wjbpMgACBlcDBgzgfzSI+2/0QIECAAIERBMyoGQHdKgkQmL7AxaFRT726LN5cmX7EIiRAgMAUBBzqNIUsioEAAQK5CyjU5J5B/SdAIHmBa2+/d3jv8Pk3Vh11TpvkE6aDBAjMUCBm0Xxw01WdZph6IRMgQCBBAYWaBJOiSwQITFvgYrZNxGnGzbSzLToCBNIXMIsm/RzpIQECBOYloFAzr3yLlgCBBAVixs0zpz/92vFRXEUqCjfxk9LhUnHOnUfvR69uPLx///jo5Y/ivh8CBAjkLWAWTd7503sCBAhMV0ChZrq5FRkBApkLxMybCGFVwIl7RREn7ndZyClOfnxRjIk1fHnwlR9tvCTt3c8/6Xb9sTY/BAgQGFLAFZ2G1LYuAgQIEKgnoFBTz8vSBAgQSE6gKOhU7djWAkzFBlaHbplVU5HLYgQIJCXgMKek0qEzBAgQILBRQKFmI4sHCRAgQGCngFk1O3k8SYBAagIKNKllRH8IECBAYLvAU9uf8gwBAgQIENgmsDpMatuzHidAgEAaAnEemg9fWlx/7vbGQznT6KReECBAgACBSwIKNZc4/EKAAAECVQSunXz6TpXlLEOAwD6B5blS/PQgcHpnVaB59gWX3O6BV5MECBAg0KuAQk2vvBonQIDANAVWf5m2gznN7IpqOIHVCW2vnfzwaHmCbgWbTuDjEKel53IGjQJNJ6AaIUCAAIERBJyjZgR0qyRAgEDuAnFJ8Yjh3uHXH+Yei/4TGEsgCgrlw3HifXXv8Pk3Vld46/LKbmNFONR648p1j96PmX5lz6HWbj0ECBAgQKBrAYWarkW1R4AAgTkJOKnwnLIt1k4FVrNptjW5urra1auLxcGtbct4PM4/88FNM2eMBAIECBCYmoBDn6aWUfEQIEBgQIHYSRpwdVZFYDIC+87zdFZ8WB6+c3FYVMwa8bMsXC0disObnH/GiCBAgACBaQqYUTPNvIqKAAECwwmYVTOctTVNRGD3bJptQc730CiHNm0bEx4nQIAAgWkKKNRMM6+iIkCAwGACq0M0Xv5osBVaEYHMBdbPTdM0nIvDo556dTnL5ErTdtJ83erkys47k2Z29IoAAQIE+hVQqOnXV+sECBCYh4BZNfPIsyg7EGg2m2bfii9m28SSuRVuisO6Hr1/4+H9+845sy/bnidAgACBqQso1Ew9w+IjQIDAAAJm1QyAbBWTEOhqNk0VjIsZN7F0KsWby0WZLw++8iNXaqqSTcsQIECAwJwEFGrmlG2xEiBAoE8Bs2r61NX2JAT6mU1ThyZm3jxz+tOvHR/FFaXiJwo4xU8Xh08VhZho89H78X/MkolbM2VCwQ8BAgQIENgvoFCz38gSBAgQIFBBYHXoxdcfVljUIgRmKTDkbJq2wEVBp0o7CjBVlCxDgAABAgSqCyjUVLeyJAECBAjsE7j72e3l5XNv7VvM8wTmJzD+bJr5mYuYAAECBAjkKfBUnt3WawIECBBIUSCu0JJiv/SJwLgCBw+8N8bNgLUTIECAAIGcBMyoySlb+kqAAIEcBMyqySFL+jiogNk0g3JbGQECBAgQyFxAoSbzBOo+AQIEkhRwYuEk06JTYwgsT657/dkXxlizdRIgQIAAAQJ5Cjj0Kc+86TUBAgSSFrjx8IObSXdQ5wgMJHDt5AffGmhVVkOAAAECBAhMREChZiKJFAYBAgRSEvjy4Cs/WiyWh3v4ITBrgdM799587WTWBIInQIAAAQIEags49Kk2mRcQIECAQBUBl+uuomSZ6Qo45Gm6uRUZAQIECBDoV8CMmn59tU6AAIHZCsRMghsPP3xptgACn7WAw/9mnX7BEyBAgACBVgJm1LTi82ICBAgQ2CvgxMJ7iSwwNQFXeZpaRsVDgAABAgSGFDCjZkht6yJAgMAMBZxMdYZJn3XIccjTc7dnTSB4AgQIECBAoJWAQk0rPi8mQIAAgX0CDoHaJ+T5KQk45GlK2RQLAQIECBAYR8ChT+O4WysBAgTmJ3D3s9uLxcGt+QUu4vkIOORpPrkWKQECBAgQ6E9AoaY/Wy0TIECAwLqA89Wsi/h9MgKu8jSZVAqEAAECBAiMLODQp5ETYPUECBCYk4Dz1cwp23OK9eCBsT2nfIuVAAECBAj0K6BQ06+v1gkQIECgJOB8NSUMdycjEOelibE9mYAEQoAAAQIECIwq4NCnUfmtnAABAjMVcL6amSZ+imE7L80UsyomAgQIECAwpoBCzZj61k2AAIE5CzhfzZyzP5HYFWkmkkhhECBAgACBpAQc+pRUOnSGAAEC8xFYndNjeQJWPwSyFIiTBz93O8uu6zQBAgQIECCQtIBCTdLp0TkCBAhMV2B1vpoPbk43QpFNV8DJg6ebW5ERIECAAIHxBRRqxs+BHhAgQGC2Asc3X//4xsMPX5otgMCzFHDy4CzTptMECBAgQCAbAeeoySZVOkqAAIEJCzi58ISTO63Qrp388MgVnqaVU9EQIECAAIHUBMyoSS0j+kOAAIE5Cpyd62N5YlY/BBIWiNlfijQJJ0jXCBAgQIDARATMqJlIIoVBgACBSQiYWTOJNE4zCFd4mmZeRUWAAAECBNITUKhJLyd6RIAAgXkLKNbMO/9JRq9Ik2RadIoAAQIECExUQKFmookVFgECBLIWuPv5J4vF6ZWsY9D5iQgo0kwkkcIgQIAAAQLZCDhHTTap0lECBAjMSOD6sy8sCzXOWTOjlKcZqiJNmnnRKwIECBAgMG0BM2qmnV/RESBAIG8BM2vyzl/WvVekyTp9Ok+AAAECBDIWMKMm4+TpOgECBCYvYGbN5FOcZoCKNGnmRa8IECBAgMA8BMyomUeeRUmAAIG8BZxgOO/8ZdV7RZqs0qWzBAgQIEBgggJm1EwwqUIiQIDA5ASuP3fbOWsml9XkArrx8MOXFmdjLbmu6RABAgQIECAwIwGFmhklW6gECBDIWmC5A322I511EDqfqkCMreObr3+cav/0iwABAgQIEJiPgEOf5pNrkRIgQGASAjfeevfF46OXP5pEMIJIQODgwbWTH3zr3puvnSTQGV0gQIAAAQIECCwUagwCAgQIEMhO4Nrb7x3eO/zG95aHQ13JrvM6nJCAIk1CydAVAgQIECBA4FxAocZQIECAAIEsBVbFmuffWCwObmUZgE6PLOCkwSMnwOoJECBAgACBLQIKNVtgPEyAAAECmQi4IlQmiUqnm85Hk04u9IQAAQIECBB4UsDJhJ808QgBAgQI5CTgJMM5ZWvkvh48UKQZOQVWT4AAAQIECOwVMKNmL5EFCBAgQCAHAeetySFLY/bx9M61k0/fcdLgMXNg3QQIECBAgEAVAYWaKkqWIUCAAIF8BBwKlU+uBuqpWTQDQVsNAQIECBAg0ImAQ586YdQIAQIECCQj8PhQqIMHyfRJR0YSiKs6/fDo+ObrH4/UAaslQIAAAQIECNQWMKOmNpkXECBAgEA2AmbXZJOq7jvqqk7dm2qRAAECBAgQGELAjJohlK2DAAECBMYRMLtmHPdR17qaRbNY5n7Ublg5AQIECBAgQKChgBk1DeG8jAABAgQyEzC7JrOE1e+uc9HUN/MKAgQIECBAID0BM2rSy4keESBAgEAfAssZFnG+ksVieUiMn4kJxBWdnItmYkkVDgECBAgQmK2AGTWzTb3ACRAgMF+BG2+9++Lx0StvLYs2V+arMIXIDx7cePjBTScLnkIuxUCAAAECBAgUAgo1hYRbAgQIEJifwNnhUE+9qmCTW+oVaHLLmP4SIECAAAEC1QUUaqpbWZIAAQIEpirg/DWZZDYuuf7ofScKziRdukmAAAECBAg0ElCoacTmRQQIECAwNYFrb793eO/w+TcWi4NbU4st/3gUaPLPoQgIECBAgACBqgIKNVWlLEeAAAECsxC4KNg4JGr8hCvQjJ8DPSBAgAABAgSGFlCoGVrc+ggQIEAgHwHnsBkpVwo0I8FbLQECBAgQIJCAgEJNAknQBQIECBBIW8BVoobKj5MEDyVtPQQIECBAgEC6Ago16eZGzwgQIEAgMYGLw6Kcx6a71Kxmz1w7+fSde2++dtJdu1oiQIAAAQIECOQpoFCTZ970mgABAgRGFjDLpm0CzJ5pK+j1BAgQIECAwDQFFGqmmVdRESBAgMBAAhezbJx8eD+52TP7jSxBgAABAgQIzF1AoWbuI0D8BAgQINCZgKLNJkrFmU0qHiNAgAABAgQIbBNQqNkm43ECBAgQINBCIIo2z5z+9GvHR1evLhZzmm2zKszceHj//vHN1z9uQeilBAgQIECAAIFZCijUzDLtgiZAgACBoQTOZtksT5J7Mdsm1jylws1FYebLg6/8yAmBhxpZ1kOAAAECBAhMVUChZqqZFRcBAgQIJC3w5Iyb6O7plaQ7vVgVZaKPZsyknSm9I0CAAAECBPIVUKjJN3d6ToAAAQITE7hcvIngYuZN/AxZwIliTPw8ej/+j4JM3DqMKRT8ECBAgAABAgT6F1Co6d/YGggQIECAQCcCcUnwoqHVuW+K3+K2KOqUH9t0f1WAKZ4pCjEOWypE3BIgQIAAAQIECBAgQIAAAQIECBAgQIAAAQIECBAgQIAAAQIECBAgQIAAAQIECBAgQIAAAQIECBAgQIAAAQIECBAgQIAAAQIECBAgQIAAAQIECBAgQIAAAQIECBAgQIAAAQIECBAgQIAAAQIECBAgQIAAAQIECBAgQIAAAQIECBAgQIAAAQIECBAgQIAAAQIECBAgQIAAAQIECBAgQIAAAQIECBAgQIAAAQIECBAgQIAAAQIECBAgQIAAAQIECBAgQIAAAQIECBAgQIAAAQIECBAgQIAAAQIECBAgQIAAAQIECBAgQIAAAQIECBAgQIAAAQIECBAgQIAAAQIECBAgQIAAAQIECBAgQIAAAQIECBAgQIAAAQIECBAgQIAAAQIECBAgQIAAAQIECBAgQIAAAQIECBAgQIAAAQIECBAgQIAAAQIECBAgQIAAAQIECBAgQIAAAQIECBAgQIAAAQIECBAgQIAAAQIECBAgQIAAAQIECBAgQIAAAQIECBAgQIAAAQIECBAgQIAAAQIECBAgQIAAAQIECBAgQIAAAQIECBAgQIAAAQIECBAgQIAAAQIECBAgQIAAAQIECBAgQIAAAQIECBAgQIAAAQIECBAgQIAAAQIECBAgQIAAAQIECBAgQIAAAQIECBAgQIAAAQIECBAgQIAAAQIECBAgQIAAAQIECBAgQIAAAQIECBAgQIAAAQIECBAgQIAAAQIECBAgQIAAAQIECBAgQIAAAQIECBAgQIAAAQIECBAgQIAAAQIECBAgQIAAAQIECBAgQIAAAQIECBAgQIAAAQIECBAgQIAAAQIECBAgQIAAAQIECBAgQIAAAQIECBAgQIAAAQIECBAgQIAAAQIECBAgQIAAAQIECBAgQIAAAQIECBAgQIAAAQIECBAgQIAAAQIECBAgQIAAAQIECBAgQIDAxAQOJhaPcAgQIECAAAECBAgQINCLwO9+9198v37Dpx9+59v/9Lv1X+cVBAjkLNDm8+LpnAPXdwIECBAgQIAAAQIECAwlsPwr9yt113W6OPvbuEJNXTjLE8hcoM3nxVOZx677BAgQIECAAAECBAgQIECAAIHJCCjUTCaVAiFAgAABAgQIECBAgAABAgRyF1CoyT2D+k+AAAECBAgQIECAAAECBAhMRkChZjKpFAgBAgQIECBAgAABAgQIECCQu4BCTe4Z1H8CBAgQIECAAAECBAgQIEBgMgIKNZNJpUAIECBAgAABAgQIECBAgACB3AUUanLPoP4TIECAAAECBAgQIECAAAECkxFQqJlMKgVCgAABAgQIECBAgAABAgQI5C6gUJN7BvWfAAECBAgQIECAAAECBAgQmIyAQs1kUikQAgQIECBAgAABAgQIECBAIHcBhZrcM6j/BAgQIECAAAECBAgQIECAwGQEFGomk0qBECBAgAABAgQIECBAgAABArkLKNTknkH9J0CAAAECBAgQIECAAAECBCYjoFAzmVQKhAABAgQIECBAgAABAgQIEMhdQKEm9wzqPwECBAgQIECAAAECBAgQIDAZAYWayaRSIAQIECBAgAABAgQIECBAgEDuAgo1uWdQ/wkQIECAAAECBAgQIECAAIHJCCjUTCaVAiFAgAABAgQIECBAgAABAgRyF1CoyT2D+k+AAAECBAgQIECAAAECBAhMRkChZjKpFAgBAgQIECBAgAABAgQIECCQu4BCTe4Z1H8CBAgQIECAAAECBAgQIEBgMgIKNZNJpUAIECBAgAABAgQIECBAgACB3AUUanLPoP4TIECAAAECBAgQIECAAAECkxFQqJlMKgVCgAABAgQIECBAgAABAgQI5C6gUJN7BvWfAAECBAgQIECAAAECBAgQmIyAQs1kUikQAgQIECBAgAABAgQIECBAIHcBhZrcM6j/BAgQIECAAAECBAgQIECAwGQEnh4rkmtvv3f4zOlPv3b4sz/7u6s+HLwctweLxd9e3vzS6rFL///kdLH4j6tHTj+M25Onf/H/+/LgKz+69+ZrJ5eWzPyXG2+9+2KEsG4Tj23xKdnEUtP2iQj7/Imx+at/+V//0Wodq3EZ9zfYP+Ge8pjcEdcra55ZxbXW99F+3eG7/pmWle/lz+pL74f1cbNYfkZ/cJGA0w9Tfj9c9LP/ezvGxhOGy95sHB/Ry+Obr3/cf2/zXMOOcfr4/bc+Pn/8c3/z34y9/XC532FvW+jyNtClz5zHuSyN0ifeL/FcfPZ4v5SUErhbM69PfJ8UeZ3idn8C6dnahW2fUfGCDdvFZ+2sf9bGg7YHzmj8N6BAfOZs2Zd+Yttr25gd+3tk+R4b5ucC6+DlbW/sFj05/6Je7RiMjVonjosPwD//Z/G6pc0Tg6dOe1uWfeyTwobplj6O9nDkYFWYORubXfkvzU//5Zgbi2txbdrAbWJ+NpZOnv6r/zyn91mTQPe9Zqq+U41rXz67fH7t+66rz5To4uPP8jE/W7q0atNW4XywOPgny3Y2/YFnZ/MPn/6rLw39OVb0OQoytoVW6enpM+es8dXGd37bhjsHbiZPro31Lj8HQ+DxZ+EY27X/93f/xXJo1fuJsfidb//ON+u9avil1/LW1bZjOZDHufM9VmZxv63A2tjt7DOn7fdIm8+LXgs1BVjTjagWCVt+CIy7k7yv77/73f/32+cbap0NpD3r/Mny+bMN2WLAjfHltqePi9WYWRWt9i178fzph9/59j/97sXv1e4V6+qpOFbuxNl4HMp7qnGVQdfvFzGvP777d+Om7FMYTu39UI6xz/srvz/7uwN/3w362bLPr/he27fc5efrvw9jPV04D1WoGWlsBHOy20JrxZnBtoNi23Co7+LL43wev5W+R/rYwV9HHG27ts2O13oQKfw+4mdUhL/8nFr8x9T+ANjs+yxmDuXzh8wpxFh8l3SxTVDxvVh7u6vN50UvhZoi8QNs8FcxrQ1apdEmy6wG02f/dukyxBdYpS5G0SalD5X4sjj62Z9/VKnzFwv95P/59u8cXvy6+15pQ2KojcOiQ72OxRHjWk5RPv3dMTd+G46bxXLcVP4MHNHXuCneQQnejjguLmnEZ/mPf+65fzjmoTznBZTvXOrYnl/is6Nqof28/UazZzZ1o89CzQgbj5tCfPxYKn+gKW0HDf39+9gi7qS27XOpc5n9kupYr/q50oS7zY5Xk/X19ZquP1M76Gev2zt1+tfk+yza7/N7pU7/qyybc4wpfJdU3e5q83lReSelRsI724iqss4ay4z25k9hMO1zSmWjJaye/cvPHu7r7/rzVXa4E8rDT5Yf5P+gqyn3U41rPce7fjdudulsfs642exS9dFUCjTr/R2zaNpkoy++e/YdDtCX9ec/99xRH4WtBHd+ysNklG2hhD5vyhZnBZuxC5yXOpTRL6uc/td/NOBfsuvq9DbW2+x41Q2ij+UT/4yKkHvLXVXPJt9n0bZCTVXhZsuVPndq/VGo2dqqvWpfwabN50UnV32Kjajf/e6/+P7ywzrQah8nXo2h9VK/FP1bFgH+U7z5ItGtW9zTQKwj1hWFh0RmF23tcfQvZrJEHoew2daRphvN+/qcWB5+aWUdh7+1+zmP6z8lMr46i6uuStNxE59du9Y1Vd+IOz4L0xo343727BoH5eeKz/V4DyfiV+7e8jxnq++5fWP70os6+iXON9BRU4+bifdgX9ZNPzced27tTpgvN8hOctoWWguhl18T+xy9FGO8h4vtwktP+GWnwMV3SD7b/TsDmsmTmXxGRTYu7bPNJD3C3COw9rmzZ+nhnu7ze6R1oabPjaieiAd586c6mPaZng+2h5HXfcum9HxcQWxTf1Y7VY+LiJsWGe2x2JiPwljTDqRaHC3i2lc8axr3jtfF8eqd/KyNm6SKz219Y9zEju8SKrG4Fq/86l9+9m9HGDeVx0xGn+ujFU0rY54vuPzOiUOBN/7E99B50WPj8yk9mOr7aofR2bZQFJZiXO9YrvFTKX+OrgV1ZhE5TPnzZ63Po/xa5DTF75AdII/z29dY37HuJJ7KNG9h9zh33ptJDKXROpHBd2wvY7VxoaZ40+eyEbVhZPUCGuspilfLu0ntCG0w2PpQ253BrQ1XeCKmkFVYbO8iFztVvVxJa+/6qywQhbG6RbGL917acQ29070cN/+xinl5mYvL9l08GuMm+h65uXg0rXvRt7q+uYyb+Ot2ihvTOX6uD/05HpfNbfBO2fg9GRtlOWxfxFhdzaJJ9/NiT07Oi3rdFily+P5dd4nP1VQ/f9b7OsbvOea07BT5jQJTfJbPaac/97xFDov3Zt3t5XL+3c9TIMbvansgj+/YYqxGv7sQb1SomcKbvsDrEvRiR+hsKmiximxvu7TpG2F9hzvG6PIL+d8t17txJ6Dv/tRpv9iZqvKaGGOpFxGKOGL81C0mFK8d67YYN9H3sfpQdb2Fb5Xlcxo3y3hix/HfpbQhnUvRYNNYKMbJEJ5dHUoUG+N9vwe7+IPAefEui++ZTWOj/Fh4d1WkOHf5aNl+8t+/ZYPz+2efP11tZG9oP8uHMs/pJfPY5spt2+RSADV+mVLelmGf/4E9rxn/NdI1+KJ9HK7cZRA5bZOvxd3ZrObahZqJvekL119q+JfA4vWLzHaEHve7wp3OBluFdXWySPHGXjaWzUZibCTHe2sXQI5jbMidxF12VZ4zbqooDbbML6WwIR3vuZz+krMtO6m/D8s7xXE/h5k08Xl93s9svme2jY/y4223hUou5WZzu3+23VMel7kF0GV/cy5Ub3NYfib+7a4Ky9vWMfbjE3kvPsFY/HFziD8+PLFyDwwmkOM2+TpOMVbXH6/ze61CzVTf9HGVjDYf2DnuQNcZJLHscrD9k8h/3dc1W/70w2avWyxyfmPHG3rXhmEuM2nWc1fsJK4/3v3vTcbNwcvRj3gP5zIDa93NuFkX6e73Ht9zyytaLD64+Hf6u/E9VPy+jKCz8y0VGsX7cICN28Z9L70Pi24neTvhbaF/2WZbqE+X4r2xur38fonH+hgo8Z2w6zu5j3Wm1uYUCtWbTOPKm5sen8pjUyyulXMz4PdZebXuDyRwvi/30XJ12f8hJMZqG7anq764zy/gog+Xv2zXd7pWO1SxbNugi/Wd3/7kxz/3N//N2mOVf+2zSHPhcfpheXra+mWdiw2Ji8N/Dl5eGsUJGrsc4MWUw8V3vv1Pv1sZaLAFD15e5uLfHP7lZ/+sbdwr94vxV9j37HsmdX7Ix/+1vrHc0cZS7Bwuz+NyObaLuKILvYyds/dsfIakOHaK93DLcTOabWSt53FzdgnbuY2bjt5zkZ74ORsfJ0//1X8eMxbW39+rRc7+v/TZGp/tq/fn2fuy1Zd9tF5s3C7vfvNsbT38F58xTb+jozC27FKX31udRzjlbaE2n88duzz+PI3v3/VtnlJSL71fVp/l//Ufdfg9dnYY1LLdJ76TS32Y7N2OPwM3OZ3nOZ662C65WLCf7f7Yxtsxpi5Wn+m91Xux3c7hltAfvy/j+WLbeP07Ld6HxQU+St9fXe+TPP4+W67vH+74Tt0SiodTFTgv0sQhxX38bBzD5RVd7BOtPn+abs+U22xzv1KhJtAOfvbn/6TNija89jHWni/i4qVPfCHHB0HpQ6DRRuzyr5iN/4K02ijo9qSjRZEgikdVP3hKXzgfn2OdWRUb+TEbZvl4Jxu/53+937XhVORr8NsWf/1ejsXTf1lhHF7yXeX/8UZho/G3AWl5yEe0uXg83lt+6VaJrYgrunO23j5ii3G4bLfyuN5g08tD4b3sW5P8JWO7hJnyuPnO0OOm5Xvu8TiNz/MozpQ+ox8/V+XO+evi/fnd4j3Z9vP84PwwyzY75VX6XneZ8+2MJu/DYlWXtiniwW3usa4mh/ic9/E7xQo7un3c74rf+4+/G2L9xbiI+23GRpsZBh26nH2mVnSIkC/9nG8zhc+Z0XnxqO32z9lhmMs2eytuXgoikV+6+gxcC+fxd+b6zv3acsWvW8Z6uz8oxWdysYKp3Z6P+c4+o5rsk5y/D0/Obc++v+L+xWdVN394iDbj++y8wD+r92fEPsWfGCNHf/lZp+d9azCGY8zGz+PPn/iOi3pDm+/YVZP1/1+O8d0/gRYnmFsu1cmOftsN1229bfIBEH35zrd/p/Gbu8O/NrTaONlmUn68ow2WosmfxEbdto3gYqGmtw2/aGK6fa0x2uVYXL2J//yfxZdG07jLr/v85547ii+7aHc5W+Kj8nMV75+NqS52xlbvrW4Kkm3fc7tiz3HcdGkbNsW4afG5Pbtxsz6mWrznHjfV5WfL40bP7xTfdcsNhlYb48vP8Jf6+Axv8r0Yh3013AB6vOPXRyxl+/Nx0dkGZF9jpBgf57NKKn0ftflcbvFZU+bt7HOn3Ghxv4vtnxijXXyfFn1K+baLz8ByfH2N9ehn3Z2nNmO9HNPySm/Lpur9dLXubWvtMm995azo++pzqpvtymizj/dnw23KRV/frYVdl7dNx0xfMTbZftjm0dcYXn3udLe/t6v/UaPYW6jpCq0vsE0BVv0AaDPQmr6B1/sbLj/+uecGm7bXxQZLxNBnv7uyXbcu/d5boen8Q6/1xnz4xhu0wfuvtw3ersZOm/ddKYdP3G36hfNEQ9sfMG6222x9pqv3RF/jptzxLnY6+9hgLPexuN+B60+Whb3OD+lo8JkVIdUttJ99zjWdeVEYVr2tuk1Rpb0+vzvX11+1323eWw3z/birQ3lUtXjcsQ132jhtaC7Jh7r4DCwCGyq3sb74PDz82d6dp84+81Ir1HSYt962c4pxUb7t4n1ZtNf1+7PpvkjX/Sji6+O26XZzHzE29V53ic+dNjOZ19vb9nuXY3fTOiKO2A/ceTLhFVrrGQKxQbX8S8TvfLPvv3gVgcZMhFhf/HU51l08Xr4NgKb9iYF9/te/cpN17z92OZ8mWPf1jZaPvwjFxnnE36iB8xfFzJHzQ3TaNLPxtcVxrxufbPlgxB3xN839vtVHu8sPsH+wXC52PBr/hG/dDeAitr7+6hftdhFbbEw1hhnphYVtHuOm3qWNI7bIa1/jpqv3xBDjpuU5UmID96W+HNeHfri2/CwvDpdbb3qM3yvPhizei+E81Hfn6vDI9ttCq/HxO98cqt+Xt4U2f+eHZ9PPtbbbiMW24RAehUXE23SAD/EZ1LRvXb2u5WfgWTfOv1OWn4XDjfUYw7G+eI9ty/FyvDU+1UFXvn2101Xe+tw+3hT7xfvybF+t1Xbz+bn6Djetx2NpC5zvV7eaJRwRFt8pTb/T6igVY3fXZ06d9rYtu7VQ0wVafFjGm36oDdf1IFeIZ4WJZcHm8pdzzGJZX77q7+df1pU3LDe0e1axHtfld765rYi1ob8bH4qp9zFONj6Z4IMxBobYcIgPiOUbt22x5id1DqOK2IaYmdVFbBFXVKITHCIbu5TZuInzVFT+sivGTd9fal2Nmz4/b1bfeY13xgf9K2QxUOM7Lt73kcfisTq3MVbyei+u/ugTcdeJs82yXW4L9f0+2xbnjg3K5cUUmm0Lxbhp8wer1Qb18BcmiG2A5u+X+APKUFe/3JbN/h5vW3iLng31nbJNId5jRcFmuUx5x/8nY21zb+trV4+3/O4660axgzvkZ2s5/shNB9vNxfmkyk27n4FAFNn+//aup9WOY7mfK67BS9twpZ3Dy85g9AXe4hnZnyDwNoFsgrMXOMlC8ls5uotEAu9jsgm8zYN8gmdhL/QFREA7i7ydJXjy0iDBTf9mus+dM3fmnO5f9UxX99QF6czM6T/Vv6qurqquniMls9SaEnSO1KeeG/9soEa6cxCUdalJPxzw0Ehxz7tMFpYu6UIGXNaOWA+xGF5DMUoFK8fkGtK01DVwx+K9VPvjdgeO6fir2PvoQGAYGyvTsQSFchnGtlsqGyvQmOszYJurvVPt5MD2VB/h+zC2muRGui6FsU99CnRZkSBNGAP4JwnW+J3Y0FyGz6lfbxE3u2q20pBagVx0zaw9z4a0j69HBmV3fIyd/5Id/FIGdcBDFqzpfpwhNNXMpzTwBiC0yfq/PfjqdrBxfRCgGX6FgYBvch2l4/1L0E/CLNHu5cJLbugE3O0zHwI++B3t80z1XHpNAU0+2PiZuxwGiPGV6G8yUJMjGLHG7n7qyIMSwLn21Loon2Eh63avWMOIoflUnQzBmgs/yU51Vez7YDysTQDkLRgJS/VddmzcLj6wkOzELoXluN2y2E4f2RzTyN5jbOxOOtsn6knnhMvGwk98Zv+TGApujn+LcWUnKqFBrCn+l0ySDYQaMtzgZJXAWCIXYF8pHXJKdLDuS7Kde1uIyz7rMVk/k2aMiSC4qd7mGY815l4SeEP7ymX9Tgn9EYO7tIzf9KKdXA0O7hCDsPHgniWvZaEdaeAqtGOfyyOQwa92ukdHoBFoQc9kyAw7AH4yUCNxooIDoCkYMRwx6GJpkypEMI/teziG3Nd9sEbmdGOy5aYrR3uljQcfFKQXnBMY0GnrJ9qN+to7+uzYLjTvepSWG8xJxwQW21P8KxowFs6JReSGXfO0GQgIGp1i/tT3+bNqpnrhngHjEk6W1IAsrUNOoS2xRVh50YQJxs/+TDOrL07xpNT3ksAbaNbE1ykMJbI+1Z6WZ15HRR91HtPd86180HRMF/glzIBqMpg6xqmFe6lfrckGC/wIwRrMr/BM8nkjUCPcQXqNha9FpSg32soYm7HCIUkFdn1oeinlcMhFAxkgBHOBdZ6GA5m6Lh34k44NP6s5NS4Fz4rLDTAwuZmWhNxyI1jznJxw2ZnTI5M/ZYPuyFTCGienIG8LJY0woQGpQofk5UbfmsSpZwMjS4wDbcKghowR7S8SMCboyFKFDbyhczgjJbIzswy88kZa5ptgbnZcbS2YWrmoTpIv96vxSgt9gUYMFvIr3MzeY3YjUCMRbjgWIG7fekMXEqNNa9R6zB6JEQW50WboQx41BA2XyI6AcalhrsmyI87ujWVQw73JzfJc0CU3nByWDpTOcYnU4xqD7cUCYVIDUqtszMlMynNvC6VU6cpqWbPGhLO6aMn3ZY1pXPJeEngDXa1uzi6JeY62Pd/oo8A18I3dePD4WlZNDkFbsA2JX+3IUr8ZAv/TZ4aJsuMPAjX+KAJ11rGWYAQrc5IAFmk4s6TS9YQRbFWGvjZ5hPNPM+ZmxWIOzJiUPqtm93z8POYe78aIKbdyGVW/DNG23HBzIuc7Vdhfy4B+0RAonZobvR5nUm65gNUUDTmelQx2SAxIzbKRgy+kLaRmzRpjwGaG5tRDY5rWvGcDb6BRa/BtTfxK9bUVHSXJ1iJ1VSmWbq5fCX9gG2vYiD/FNNhjPlhzqujs9weBGskOQS3BiFkkjnwhDWBpNeinhszuLvVt6TH0tcmjx3UK8uRn2hSUZCHV9p6azIGRZN6OK7QsN6/OP3o2Hm/s/ftXv3wSW/ZYOXbN06ZfxmNk6NPkeJYPdvBrmUQfjvmo7Z49JqhtzRrjyto9kiDHmIZS9wJnSW3wrRSWa/Yr4NuuJh3lNwPZd300dURxTflaui+pX631yNMUbtIYwD5QI0l/LG9UTUGT7xlrzIMCxmDOR3l6S+zuEnqCoa/B8dYoj8LFZshIVRkfIMxHtanUvtzvGxkCRVyrxBbyTIxlXEWdUe0Xr6Jy43RWcuq4Rv0yZjaLrRbHs6QjgTUMa9kY05h7yIbXhzHFKyzDBbByBpyXAM2vz0RmKIfHEmNg2pQ5S3XsaDO4aK8j41t9OkqyHkj8N+1yUDN9Er7U5ldL+bQP1EgMtNZBY4x5MKYGg35KgCRGlQ7H++rp1LjKP5PTpS3jI2DqZJ0wckNtHZ9asXWaRCzPWne0S8oNb+zK+bGGxHPyXN7xLB3skKxhEodiDZmQ9sEEsErzM3bMjB3L4BFLzxrlBM6SusD/Gnhp6WNrOkqy0cn6b1p43SIdksQQh8draYZKbZjuAzUuH+IeQzwW4ZZB4415oFmHQT/mu0wpnt0ft7f2vSTQtCStkqMegS6tY+NlndM7AY+cn1qxNbmZ4rJcblhjV6ucjFFi5EaD48k4zOOxS+7ZIwW1BCRYbLwtlFy9ND9jCWaz0FhcYulashzrxGoN/C+Jlaa2t6ijBEFwO/6kSXgdLZLEEG4DShkAieTsAzW8gVZnMCIWJ9aYR/s1naEb4yEwri4QLR23t9a9ZmP517MPXkhw0Dw2ximUYJG7rmZsTW5yc7tvjzF2NcvJGKVKHc+iu2V+7aJ+UEGwZo5Zp/KetIWK8jMVSDe/kzNDSVxSScteXrIJWUuwOjtoChqU8I3fUCs/cH+ktOhR6fIotEIBvdG2yUy+LlAj2RFoXWEzxjymEgz6mqcUa+RjzJJoqRwzvYFDv9AIhqh3bNJgggCUTFX1Ytuy3JTKxuQdcr1yMjURanM8GXqnxs0+E6xdVQUkGHwYW6g0P9PHycxv2ulIJy9jDTbABNtWviZlHMjGmmL5Bphq99fYbApGd21MrFYdLp/Jt3u+Rd3TBWrYid+6wuaNecg8s+CvOldOdsYbWeUMF+0LEebMSeBnCmgeW+3KU3tGkERutI9tRtwXfcz+apTmOTgNGLMOldPftWal8GvlNNeUPiUyjRj5Kzd6Zn7z2ejlxtn3zM7zunhaGuX8/XN8gw2xYTutaKZ/fhmot0VJRlit9oGUW/7oEzfxWwhGHAOQNebRJrPgH6OlzHfcgsxGSzOM8XXtC9ERDGoYG5WWemTMq31VKrNjhQGq3+lnglBSHUNuTtQwBw9EignSSbE9ICDxpnxmntlCUyxjs65rs4NY+6Hkce8pfsU8Y+c5o1Ni6LEycQiwfGvBX5Nk+kv8uTjOWKkYBEjbq2u6YTv9KHRdoIad+K0rbIFAVWfQT0mJwMgqErPHD8MAABsNSURBVL1ueVezhrExNLK6Z0pe2WdMoIDta+16DE/WppHsj9jdH/aU7pDXiCVp2AixHeKcdF183XT6iPpZ7prfRxfDIdYWYgMfMTQtVYZZD2pzAgXZ4uoD/0vJhYZ2BXzbteKvseswq8M08L0tGtJtL4yf0cut4OYzanaMYbYBhU0LVPIL6TQKlDeyqCyJ2gwXjfgf0sRlNx22ofKO0T0qB6KTqGblpgDc1WKZrMPZDAoJU1gDXNLnsK4gKyIZ32G/rV5vybCuzQlk7bPSc7TVuRI7LpZvaL98tmLsKE+VY9dhzp87RY19vxYCLN/Xom+5fm6xBpkp7GNMaUegWD6XMVzawX0sXa3shozHpeO+XbnRga8+KtjMCX0jOU0Rq8NPt5y7RNl5yDpB9eAr4deWnJyycijhUmxd3j5rH5tYDEuU4/m2K56tmAsvs4VzIVmmHdb22jLfQ0YNwbH2FTZ7LKMtgWqfz4TwWxVDoAoE2tJFeSBnMye2hKXAIcjDpAKt8GO2NXKaXVvCZRuBrC3pwGmZrvNpS8FkNjOIDRDUyXGdVLO2F0bD8l0nEmlU3eKNk7SOKi1txzIqZVxrZLeqpJwBQf8KVms8tvGsgwCbOVHvHKzDYa7VCayV7pTZtiUnZwv83O22EVhKkfG2y9axBsTwoMb3XsWMawtlWNsL2GyZ7+escLS+mHWRv7cvKXjIFzhSfS1dCXy+8+4N0U1nCFwSFekqLcvklpUULRBWcdeSLirNzo/f/vTlw8vHpckg+jenLA40wykOp9hSZ/eqnC/v3tyLHeHWytl6UprjpqM8B/BesOSNdLzqw2S4nAz3iSEu7J/4t/UNXReosYk/JTOSyN9Ue/bMEDAEDAFDIA8CkoWbNRbOdmeP8lBfQyudXbBqoL0GVKZorDfTamo0N5+xm1Z9Fs4Z9StaN6nQ/aS2jCNH713diBp1hsA8Am79f17bnJsfjX1jCBxHgH5HTevGyXHYjn5rvwBxFB770hAwBAwBQ8AQaAOB1rMdbdOqDTkdjSI5G8HVN9t2BGItty1nm9fCA6PTEGARoAM1rRsnLKCI9LJ1NdZj0wQt2q2Rm0aTIWAIGAKGgCFgCBgCaQi0ZtumjV5HacuE0sEHo2JtBNp5xxKDHB2oYTqzOoaAIWAIGAKGgBQBCwRLEbT6YwTMCRojYveGgCGgDAEmE0rZEIwcQ8AQSEHAAjUpaFlZQ8AQMAQMAUPAEGgRAXOCWuSqjckQMAQaQ2DbGRY5mbnuLz/bO3EZ3lmghkHN6hgChoAhYAgYAoaAIWAIGAKGgCFgCBgChoAhsAACFqhZAFRr0hAwBAwBQ8AQMAQMAUPAEDAEDAFDwBAwBAwBBgEL1DCoWR1DwBAwBAwBQ8AQaAYByU++NwOCDcQQMAQ0I2C/vNVxx47QaBZSoy0vAnSg5h/+439u5yWljdZae8kly2czetuQZxuFIWAIbBEBewfAFrluY6YRaN6Btpdt07KRraL98lY2KK2hIgiYXcHATgdq3r/65ROmQ6tTFwLG57r4ZdQaAobAcQRenX/07HgJ+9YQiEeA3cyI76FsyV/PPnhRlgL9vVfoQDOBJXvZtn5RnKRw3RfGTpJgDw0BQ4BE4Hy3Q4Tr7HOyfrPVeuPkTbPjs4EZAoaAIWAIxCNwtbt6uJUgjznn8XLhNzNexdeoq+R//8vfvfr68kky0ciqfXX+4TfJFa3C4gggsNRa9vfioFkH1SNg61qtLOyOul3WSr2Ubheo4f58hPZHrrb+WqxxgpH907//1+/+81//sQlsej67Jd3+DAFDwBDYOAKt6PWNs3Fm+LZpNQMM/djmCw2dyoot2bYqAT5JFKuj2nJ02SAj/LqTEFsBQ0AZAvTRJ2XjWIocJj10KVoqa9fOIlbGMCPXENgEArartgk2rzbILRwrQHbMaoBaRysgYPbZCiBbFwsgIDhqav7cJD/WezEzm5HsAnN3J0nfyMNbLHDuuNS91jFizx23Zbi1z+fW5djGZwgYAtcI8LtqpguvUWzvymyhvDzdunGdF00drbVl2+rANIUKVke1NBfZ92ay/lwKf6zsYghs+v1Yt9jdxZYmfn7RasegZ/nMLij5eWEtGgKGgCFwiIBlCBziYXeGwHEEqAyMC8Hu93Fy7FsRArx91o5tKwKwvsrNzMUagoU10BhEmPXxQv2UTzbegD5w7DKlL01lpevgLb+7yKSENTPx5xlKGSe7NQV/nnb5N164qEimnU2X428tGAKGgB4EnF63l+7rYUd2Stg1C3IhNcSyD0ZJg+zutxLyjYwRAq3YtqNhVXPL6igMsJ25yAYLOX+uGuEgCJX4eER3Oz6beberKfg1xkY697p31LApYR+//enLMUEt3fO7DrsmgliscNludUuzwMZiCLSIAGe01byr0yIXc4+JXbvYtTI3/Uu1x9pCNRvXS2GpoV2Bw9+EbauBBywNrI5qZS6ywUJWh7F8qqFeiXWLld+aX7cinXv+ZcKc0VozcDGTSLCY7VoIYt1+9+YPMThZGUPAEDAEakKANdqkC25NGBmt8Qi0Lhe8LcTufsdjbyU5BFiHqQXblkOs9lr1z0W/UVJBln8dWNe0brEBOh2zViYPXaCGNVrrBi6OfexiFte67lI8f9nAn248jDpDwBBoAwH+rLRswW0DvZZHwa1dZ7uz+y2jgrExtpCzIexYmFrB4GS99Q1atezaE8bxrYW5yAYWGN0FuFnfeM8q5Rdl1i1Ofh2UF7VmNPO+dC9AXaCGN1rrBS5+/nBCVWYCxI/qVElJ5Pov7/3td6fat+8NAUPAECiFAM5KM8ZbC8ZuKcxr6FewdlVrRMbzhbOFLAMjHuE1S7JOqOnANbl0sy+Bjmog05/dKOF01030455gjsSVLFdK4uNJqGb1DvpkA3USeqV1c7wHqAvUsEZrD1zbx2MEQnXx8PLxAymTS9Vnjz3B+ZG8MKrUeK1fQ8AQ2BoCnPFmjme7cuLXLubHFZwRabbQtGSwztV0a/Y0DwL8cbZdAw5/HgxLtCLx12rOhkJggQ2AsH6cIIlhp/0F86WCHl7vUGtsjQkQOexF/44aqBvOaG09ui4RqlqVIhSM4+tdbhHi5Ijry2oZAoaAIcAhwBpvtep1DqXt1braXX3LjNpsoWnUWsdletR1PGWyCjGyGh2mOjgSSyVnZ9c8FwWB8NdsUFKy6ZzDQY+VhtRyvY9X7riu0zvPU2n25avLXM2hK/eBGt5oRXT95R9J0KuotjXDzSsY6oVdkrTMKoTBiDQEDIEmEGCD8DB2az0r3QTjFh6EzBZq+5cwWQNbs9OysDgpb55z+N2gqs4YV86Uk+RJ7Owa/TXJ5jHrvwUmsMFMzRs6Eh8v4CL7pPVOVZmruY6X7QM1MFpZgaw5ShsjbDLDra4gliTSCvmRRKBjeGFlDAFDwBDIhQBrxAl293KRbu0shAAbwAM52D3DGroQacWbfXX+4TcMEa3jwmCioY7E4c+xU6wBgxppkBx/cv7a3dp0lCSwIPHfJLIBnCX1l6xbeu7K9E49L6jPZSfuAzW9UPBRrhqjtLETYUtBLIlCZI/PxfLByhkChoAhkBMB1mCwrJqcXNDXFhvAcyO5aDl7RBDEahoXfRIcR5HE4Yes1/wexjiENJei/bWq5qJ089jrLAEjeZw1Zt76OUudmBCAeFBVqHeqOMUjeafSAVju5iBQwxqtaLR9w5WerFUIFXgoUYiu+muJ/KB/+zMEDAFDYE0EJAZDrt2SNcdrfcUhINmFdbuVjzQa6HEjP12KDWJZVs1pbMuU4G1b42kZjqFXb2+zL2WtRkf5JAAysMDLduCsZC3QZiMIfbwASaZPnjeIN2jPCrvz7s2fMgF1GKiRGK0gCIRpB48F7tGDf750dUmluPu8hp0HiUKE8Qb5YfG1eoaAIWAIlEGAMxhgLNSg18tgWnevkixajLxlW0iwIeN28us6Cl63FMdRL7FtXQ/G0ziYs5fq/TXuxecgRlsQYQogYVbCay/bU01HPxNkEXYJDJp8YomPFw1YZEFJoBFdaF5LcmctHWTUYPDsGWTUdX9NK212JwnAaN95gGDB8QCtxJ9l0xCgWRVDwBAoj4DEUWk9e6I8d0pSwAXwAsWaDclAI/Mp2dCz4CaD+PJ1ZLatBayX59B0DxJnV/tcRIBDkpUgkekx2uxL1NGOlnVA6OONIRHf+3WE/fWnLgimcaOsDy6ePRIDNGjgRqBGupPUT/4nfx700cylxKB3IHRBLE3R1cAYL1j3w33qp2XTpCJm5Q0BQ0ATAhKjrrbsiZaP5eSUKel6r90RkmD1l/d+8/euPplhXNfRMMwXjXabhH/juhKHH20hYK3RaRqPs7V7aVaN5o0GYfZHlmyaa3nhg/ZYB0qvuVIf7xqHvFd+HaEb1Sa/wFkSXJwD4kagBgWFWTWIdN19eKkzWAO6JAvKz+cf/n4OzFPPMWG1RFcDrQPBIs+A2rtpApb2aQgYAnUiAKec/dVDN2K1QfghN+BsYv1zhsQPkjVw2Gbr15IAHrDR6sAGWWDlQOogwpgt7byckt0eo8cPMF+02W2naE/9XspP9KdV1iFn0Hva5S2VZ6G8NMimcS6CX/CXwhhTPyV+2lRfUoxxzKxUsDeDjzcFSZZnPqvme0ljWuR3SZwnAzXSrBoH+gUmGWsESJg2VTcsuF9fPnkFutyCQv+EphSbHpcnfy41aYf45BAsKERMtmG7pa5vv/vrb0v1bf0aAoZA3QhINiig1+HMadDrYy6E9e9v3r78X9CJ77EGtuq4jMcvuRcG8LquNTmwY1mAHLD4CJ2XCy0G9tT4Ybv286VPYe/ttscPpsq28kzIzw4GfbLeB6bBvxreycLIEuxvYWBC1VyUBmmw4eLfK8PAOVnHBxREx3RKBHtz+HiTgGR8KM2qcaQUl9+lcZ4M1IAHktTWwMNeaZcNSowW3JA14nZAf/oy0Jn6KcVGg1GfQ7CWUIipvLDyhoAhYAjkQKAPwl89ZNuCXodzpykAMrP+YYgXrTouLP/m6kkCeKHN0rbQYYCmCz7sbSF2Qy2Tg6gquwtzt3cUDzDq2IiglsZAbJAx6WcGfgacumNQpbA6lPXrrAzoZ026WcqvYX3pBrJrq3N2WV0wpIW97vkmy6Rxfbv3ZXbHMlkyZutJ23Xyt+pJkxw+3iwYGb/og2C83eVJKRasWQPn2UCNB+9bKT+C8bqmAgiKus+gubngYkySRTcHNgGXtReOgA3SeR0MwVgDJKl/iynEVEKsvCFgCBgCORDIsKsMg6G484n19tj6B6ywBq25LufgT4k2pAG8QHNY89fEPKz3g+yQG2s+bKFAY+pnBgfRH5kpu6EHOwwBGsxd8GkGh6Z/LANjzsFPtIPA5NpB6+Dou35/Rv+OjBuy3nJwWrqBDLyAG/QTsAQf1/rD/Ot11OzciyJlyfdl9n7fTnJMZ7WTJuBhBh8vCvMchTLYXSBjVdsrrK1r4DwbqMGoc6T9oh331ykAGI5LKoGw2B5T1D05PU2SrJpM2HjBWsdIAfa9MuwWsQEU6ZeajjwF6l+df/QsXNunIWAIGAKpCMAYE6aRd13C4MV6t2YgPhgOpwI0Q0xA55o0Dvuu6TrTeo8hH9hCS2GQagvBNmBpefTgqy9cXerFwqHPYRBrTScR444I0AQyNxHczMFPD9jevl1SxwQe9nb/cUcfcrYkLXtBKXCRc+2CnyDRCbHD79esPkDq6twIrMW2g3LI8IeeTqmTWlZ7dmXQ+z5QGTU84IZ/UYUHhXK+aiKX7IK8Pti47DupMDcIXzp5jXT66i7GdI7/jv0hSguCXBnRJPJ9dEaKa+++WxyfQ+gRwT/W/7HvMMn7YMvZvW5A794k0egYilTW7yAkx/qZ+w4LWp8me3xxmKsfnmPxcJj87Nr6XopJaDN8BowwVvcsCZ/QxvjTRa0fSvg2bs/uDQFDwBDQggB0m1uIH6YYOzO0d46KC5y8xk4fdo3YtWam/V3Q7848uXf29qXLBHCrSeKf2xH6k2vn09y0JZKhvvgStpCTjfvOSK7eFkJwE3LkmCixMQb24eNF5guEDM4MMis6m5GgF3rBtfGsZRvI8/MH4CX9g33rZOPzoAexoSbBrucf3kfY2f1z2U+zZPusmh9nC1T8Rc61C3Le66f8a9d+DnZrlhxwBBqkR5NiqOjxffI9ZDqm/FwZ1Idf7eyMLHpuj6ebZ3N9zjzvTkaUeH/OmJ5c2KLdoHNy+tTB1mJ9adiAhE3ZracnAzUw3pwQ5FiEh3xxC/JeeXeRUBcPfYoCx7IiriN4PjDz9qUbhGuJ/wvvqqGjsFAOEHKMhyejrznAxBn2O/fiqqunjHF/sJCRxvvcWKAQl45az/Vtzw0BQ8AQWAMB6Di3yGMDQKzXHb3BAXVp5U/cztXVU9ZZgbHw/tUvn/RrIR+cGWEoXgdH7TV5a7bQPFu9g8gYolON7ufL0Ln/9eyDF6nBxBvzBTuUiRt6UwS27OxjvBkd/iF8HV9d0GbX87W3cVEgye7v+Mfb/dDp2BFv1Y7VuHYFJ9cH17LMwSBYIUiTqhtC/dTPjAH7vZ4LdkGKvxf8vC5wQOq0cFTM9Z8KwyLlkfzgdAMSJyQB/z1tbq7fdfrmB3YdCRh3civwpYPf7OjAkczkv5OBGrQIpb1AsGZPbG8Mn3UGMZT4/B+vnOfaRITLKRF6p9Mbb984upGilEW40E7AxEVdEdX2wawwij6oFe4gRLiGULqPC2eI9Hd4mPGvF7YuzTljq9aUIWAIGAL6EMiVMTkcWdDr3lnBVz4oj8uxXsezXrd3VwgavX2JS/eXdy3EOujWeNFOd09X2/9nDkjcACvIB74oYAsJM4wR3HzsJFN+tHoAzN653+2GDj5KlJwvbTv7QLd3+LPzE03jb2/j4qaErLtu6Q1a0Kz5r/zaNbVudWsWjn/k8pPAgtc4hbBWkAYdep8PyQs/4D7HX9D73t87YhPsfb3PpX5eCB709EOX9j54jvFI2siUnRlICLIWuY6M5DaDLz3ymyn5P/qOmjBSfMJAQfTNXSafsxq2o/FamvYFbP7vvd98CoYsNT5M5Ot/Z49gDF3/679zfQehzE7GSNiyt28NGgKGgCGgDQEYvEvqdTfezmHpdftQp4fra72/NDYtv2gzJ3ZwYJ0tRP86WE5aMrcVMqvoZlfARs18cfYX/RJmGuCVK67Az5VHtO/uAlk1+7sGL8quXbPrVjYfBesynHr4X2uzr/eHF/P3jui4va8nGnIef+46qCEiZlR5EGsYfZP1dgbjWbmlOgfOwyN57j75J96RjRYdqAGVUNqYGO6yqWANjGSAQXHCV0KUFQwBYyTtaKwLoxRKXyNtRpMhYAgYAksisILBuyT5UW2bjo+CaV9o4MA2ZgvJgw8DbPZ4tXYBOw+bc62Na2o87fJzGUdzCsNSz/q1q72gcnCASwRpAi9rtQsCdmEcGj9b0DkBZ2m2F466JwVqwFBMjMaCNa/deD6Tggls0EZjirHDBpMG47M/Q8AQMAS2iEBjen3PQhgTWP9Mx+8hib4AZg3aQtiIE/95bD5zDTUVyMJ4+vny1Rc5bEYx0Cs1AH76LLIm+BmcqJXgK9pNa3Mx8E7D/Kttc34Ou2PviColvAOdU4oEut85nNkGkwM16AjBmqWP+rADSqmHhQfjyB2VbUExQtCWwCaFP1bWEDAEDAEtCLSg1wdY4peoukzJ3OvfoI/mL80WmmdxK9j4EXbzZcs2kdd/v4dtOM919d/s9Z4GR38ttBqZi+p4BxmqJViTO3jgTqJ0Px29pAzXaHMdx3nqvWqnEYx6mfBUM17JuZ+nfvzAn9XNdvZwqr+czwBk7p/BHtMHxeiOU32a6xehxu0veA9l+C0myIJ9WNOGgCFgCFSHQMV6PWDd6feUX5cIFe1zGoGRLUT9qsN0y8s/PW5UyvuvGZsw+qUxCv3U8On134uP3/70Jd6RWAPNgcat83E0F/F+pap8NgRE/BgCS1V8gibn62X79d8lBtVvymT36VaRn5psriVwxi98Uhk1Q0GCQ19Rds0+bRXMH45jiWtMYKTMI1UWi8QSfeRsEzSClxakyYmqtWUIGAItITDU625ctRwF6HYjg37XaPDWLiPeFrpTy1q/5hEeYFOLHRTk0NtDd2DD2XwJqIQj/vXw0/h4zTtcXftsVby7Zu+zaZ6DwSaAo36IdvG7qNdXrOEPS5AY4avO5oKO6dfT48Ew9ogZnVEzBN1PoC/63xx/8we8nHf4felrgLh0Bs2xMfpJ8GP/lvmzexrx0RqtPoarfWcIGAKGQCkEvF6/rTmrFGsffsbYgu/rSInZQvM4BztIq53oKbeMs3kWHnwT+KlV/0H3mV17wLL9jddTly4T5DulWf9VZvZjnXX67Rl+QbGwn8foMQRAkrJkoMu9HtjL1pIXwFeZzK4gp2f3sgRqAmOC4layEDOCGoayyKc3ljGRf+cnMs74JU2MjISpwyfj2KwpQ8AQMARWQSDodUWB+E63Y/dmTSNqFbAr6cRsoXlGTWBT0g7qCC29mTePlv5vNOm/EJi2o51xchMCy875ve2PsxU9EtXCPJzQb2smLtB+ncP+eeHgUpTQHsrsyz+WoDnoGa/7ouhGIcjG15dPosuHglkDNaHRIKi4X9l4rcJAncFnDWOlCnx+Pfvgxc/nu8+CPMV8oo6fwDHFi5VBZpfrHP+a+ys9NkZuwATU086M0tguiU8rYwsOSzB6d7tVsyfV6HY4Se4nJZ+lykwN8zB1TDNr/eKGezAkNQfrZrBZww4CG9182T2H7vF0pLLWyo8QKKX/gqyvHZzBUYcRBNXehgwbNwC/kfzX36707tFuHiLrc23+Lc2soN/6jflF8dxjmBo4GGLA2GEl1+wQsMEYVoozdDaWVE4ZveGCUev9BYGFAYtehZGwvXDCGIHA1OCoH0N7KXzQp1S4jtFt3xkChoAhYAhMI5BZr+96xwR9XT1tZe2bRq7dp5lloilbKDM2Nl8KTiMErV3Q9hO8ENMHrkWBuLHusyDbssw1/uXFN5NuO9D3NgeueZRTXkMAGK2X9p9XDdRcw3l9FYANT3qFHu6uP2GQ4q6FgMz1qE5fGT6nMbIShoAhYAjUhECMXg9rXhiXGWQBiTY/U2ViS7ZQDDaQiuGcsfmid57E8HPIyy3Jul6uXVM25N8pnw21jH/X2I2vELwJz05haTotIJX2mYKxRln9fzRdIZbfziRvAAAAAElFTkSuQmCC;" vertex="1" parent="1">
          <mxGeometry x="577.9300000000001" y="365" width="114.14" height="60" as="geometry" />
        </mxCell>
      </root>
    </mxGraphModel>
  </diagram>
</mxfile>
